<svg xmlns="http://www.w3.org/2000/svg" xmlns:xlink="http://www.w3.org/1999/xlink" version="1.1" width="256" height="256" viewBox="0 0 256 256" xml:space="preserve">

<defs>
</defs>
<g style="stroke: none; stroke-width: 0; stroke-dasharray: none; stroke-linecap: butt; stroke-linejoin: miter; stroke-miterlimit: 10; fill: none; fill-rule: nonzero; opacity: 1;" transform="translate(1.4065934065934016 1.4065934065934016) scale(2.81 2.81)" >
	<path d="M 65.295 89 H 17.789 c -3.094 0 -5.603 -2.508 -5.603 -5.603 V 6.603 C 12.186 3.508 14.695 1 17.789 1 H 72.19 c 3.094 0 5.603 2.508 5.603 5.603 v 69.9 C 77.792 83.405 72.197 89 65.295 89 z" style="stroke: none; stroke-width: 1; stroke-dasharray: none; stroke-linecap: butt; stroke-linejoin: miter; stroke-miterlimit: 10; fill: rgb(248,243,248); fill-rule: nonzero; opacity: 1;" transform=" matrix(1 0 0 1 0 0) " stroke-linecap="round" />
	<path d="M 58.729 90 H 17.466 c -3.463 0 -6.28 -2.817 -6.28 -6.28 V 6.28 c 0 -3.463 2.817 -6.28 6.28 -6.28 h 55.067 c 3.463 0 6.28 2.817 6.28 6.28 v 65.209 c 0 0.553 -0.447 1 -1 1 s -1 -0.447 -1 -1 V 6.28 c 0 -2.36 -1.92 -4.28 -4.28 -4.28 H 17.466 c -2.36 0 -4.28 1.92 -4.28 4.28 v 77.44 c 0 2.36 1.92 4.28 4.28 4.28 h 41.262 c 0.553 0 1 0.447 1 1 S 59.281 90 58.729 90 z" style="stroke: none; stroke-width: 1; stroke-dasharray: none; stroke-linecap: butt; stroke-linejoin: miter; stroke-miterlimit: 10; fill: rgb(0,0,0); fill-rule: nonzero; opacity: 1;" transform=" matrix(1 0 0 1 0 0) " stroke-linecap="round" />
	<path d="M 65.672 39.288 H 24.328 c -0.552 0 -1 -0.448 -1 -1 s 0.448 -1 1 -1 h 41.344 c 0.553 0 1 0.448 1 1 S 66.225 39.288 65.672 39.288 z" style="stroke: none; stroke-width: 1; stroke-dasharray: none; stroke-linecap: butt; stroke-linejoin: miter; stroke-miterlimit: 10; fill: rgb(0,0,0); fill-rule: nonzero; opacity: 1;" transform=" matrix(1 0 0 1 0 0) " stroke-linecap="round" />
	<path d="M 29.672 51.221 h -5.344 c -0.552 0 -1 -0.447 -1 -1 s 0.448 -1 1 -1 h 5.344 c 0.552 0 1 0.447 1 1 S 30.224 51.221 29.672 51.221 z" style="stroke: none; stroke-width: 1; stroke-dasharray: none; stroke-linecap: butt; stroke-linejoin: miter; stroke-miterlimit: 10; fill: rgb(0,0,0); fill-rule: nonzero; opacity: 1;" transform=" matrix(1 0 0 1 0 0) " stroke-linecap="round" />
	<path d="M 38.841 63.152 H 24.328 c -0.552 0 -1 -0.447 -1 -1 s 0.448 -1 1 -1 h 14.513 c 0.552 0 1 0.447 1 1 S 39.394 63.152 38.841 63.152 z" style="stroke: none; stroke-width: 1; stroke-dasharray: none; stroke-linecap: butt; stroke-linejoin: miter; stroke-miterlimit: 10; fill: rgb(0,0,0); fill-rule: nonzero; opacity: 1;" transform=" matrix(1 0 0 1 0 0) " stroke-linecap="round" />
	<path d="M 65.672 27.356 H 50.328 c -0.553 0 -1 -0.448 -1 -1 s 0.447 -1 1 -1 h 15.344 c 0.553 0 1 0.448 1 1 S 66.225 27.356 65.672 27.356 z" style="stroke: none; stroke-width: 1; stroke-dasharray: none; stroke-linecap: butt; stroke-linejoin: miter; stroke-miterlimit: 10; fill: rgb(0,0,0); fill-rule: nonzero; opacity: 1;" transform=" matrix(1 0 0 1 0 0) " stroke-linecap="round" />
	<path d="M 65.672 16.169 H 24.328 c -0.552 0 -1 -0.448 -1 -1 s 0.448 -1 1 -1 h 41.344 c 0.553 0 1 0.448 1 1 S 66.225 16.169 65.672 16.169 z" style="stroke: none; stroke-width: 1; stroke-dasharray: none; stroke-linecap: butt; stroke-linejoin: miter; stroke-miterlimit: 10; fill: rgb(0,0,0); fill-rule: nonzero; opacity: 1;" transform=" matrix(1 0 0 1 0 0) " stroke-linecap="round" />
	<path d="M 59.082 63.312 l -7.712 -2.357 c -0.996 -0.304 -1.927 0.627 -1.623 1.623 l 2.357 7.712 c 0.339 1.111 0.947 2.122 1.768 2.943 l 14.706 14.706 c 1.415 1.415 3.71 1.415 5.125 0 l 3.028 -3.028 c 1.415 -1.415 1.415 -3.71 0 -5.125 L 62.025 65.08 C 61.204 64.258 60.193 63.651 59.082 63.312 z" style="stroke: none; stroke-width: 1; stroke-dasharray: none; stroke-linecap: butt; stroke-linejoin: miter; stroke-miterlimit: 10; fill: rgb(255,224,125); fill-rule: nonzero; opacity: 1;" transform=" matrix(1 0 0 1 0 0) " stroke-linecap="round" />
	<path d="M 73.674 76.729 l 3.056 3.056 c 1.415 1.415 1.415 3.71 0 5.125 l -3.028 3.028 c -1.415 1.415 -3.71 1.415 -5.125 0 l -3.056 -3.056 L 73.674 76.729 z" style="stroke: none; stroke-width: 1; stroke-dasharray: none; stroke-linecap: butt; stroke-linejoin: miter; stroke-miterlimit: 10; fill: rgb(203,175,234); fill-rule: nonzero; opacity: 1;" transform=" matrix(1 0 0 1 0 0) " stroke-linecap="round" />
	<path d="M 65.521 85.882 c -0.256 0 -0.512 -0.098 -0.707 -0.293 c -0.391 -0.391 -0.391 -1.023 0 -1.414 l 8.153 -8.152 c 0.391 -0.391 1.023 -0.391 1.414 0 s 0.391 1.023 0 1.414 l -8.153 8.152 C 66.033 85.784 65.777 85.882 65.521 85.882 z" style="stroke: none; stroke-width: 1; stroke-dasharray: none; stroke-linecap: butt; stroke-linejoin: miter; stroke-miterlimit: 10; fill: rgb(0,0,0); fill-rule: nonzero; opacity: 1;" transform=" matrix(1 0 0 1 0 0) " stroke-linecap="round" />
	<path d="M 71.14 90 c -1.234 0 -2.396 -0.481 -3.269 -1.354 L 53.165 73.94 c -0.297 -0.298 -0.568 -0.615 -0.81 -0.945 c -0.535 -0.731 -0.942 -1.544 -1.207 -2.413 l -2.357 -7.712 c -0.249 -0.815 -0.029 -1.695 0.573 -2.298 c 0.603 -0.602 1.483 -0.823 2.298 -0.573 l 7.712 2.356 c 0.871 0.266 1.685 0.674 2.419 1.212 c 0.335 0.246 0.651 0.517 0.939 0.806 l 14.705 14.705 c 0.874 0.874 1.355 2.035 1.355 3.27 c 0 1.235 -0.481 2.396 -1.355 3.27 l -3.028 3.028 C 73.536 89.519 72.375 90 71.14 90 z M 50.985 61.897 c -0.1 0 -0.17 0.052 -0.207 0.089 c -0.048 0.048 -0.12 0.15 -0.075 0.3 l 2.357 7.712 c 0.2 0.654 0.506 1.266 0.909 1.816 c 0.183 0.249 0.388 0.489 0.61 0.713 l 14.705 14.704 c 1.022 1.023 2.686 1.023 3.71 0 l 3.028 -3.028 c 0.496 -0.496 0.77 -1.154 0.77 -1.855 c 0 -0.7 -0.273 -1.359 -0.77 -1.855 L 61.318 65.787 c -0.218 -0.217 -0.456 -0.422 -0.708 -0.607 c -0.553 -0.404 -1.165 -0.712 -1.82 -0.912 l -7.712 -2.356 C 51.045 61.901 51.014 61.897 50.985 61.897 z" style="stroke: none; stroke-width: 1; stroke-dasharray: none; stroke-linecap: butt; stroke-linejoin: miter; stroke-miterlimit: 10; fill: rgb(0,0,0); fill-rule: nonzero; opacity: 1;" transform=" matrix(1 0 0 1 0 0) " stroke-linecap="round" />
	<path d="M 61.202 64.374 c -0.64 -0.469 -1.356 -0.829 -2.12 -1.062 l -7.712 -2.357 c -0.996 -0.304 -1.927 0.627 -1.623 1.623 l 2.357 7.712 c 0.233 0.762 0.592 1.477 1.059 2.116 L 61.202 64.374 z" style="stroke: none; stroke-width: 1; stroke-dasharray: none; stroke-linecap: butt; stroke-linejoin: miter; stroke-miterlimit: 10; fill: rgb(203,175,234); fill-rule: nonzero; opacity: 1;" transform=" matrix(1 0 0 1 0 0) " stroke-linecap="round" />
	<path d="M 53.163 73.405 c -0.025 0 -0.051 -0.001 -0.077 -0.003 c -0.291 -0.022 -0.558 -0.171 -0.729 -0.406 c -0.536 -0.732 -0.943 -1.545 -1.208 -2.414 l -2.357 -7.712 c -0.249 -0.815 -0.029 -1.695 0.573 -2.298 c 0.603 -0.602 1.483 -0.823 2.298 -0.573 l 7.712 2.356 c 0.871 0.266 1.685 0.674 2.419 1.212 c 0.235 0.173 0.384 0.439 0.406 0.73 s -0.084 0.577 -0.29 0.783 l -8.039 8.031 C 53.682 73.301 53.427 73.405 53.163 73.405 z M 50.985 61.897 c -0.1 0 -0.17 0.052 -0.207 0.089 c -0.048 0.048 -0.12 0.15 -0.075 0.3 l 2.357 7.712 c 0.083 0.271 0.185 0.537 0.304 0.793 l 6.223 -6.217 c -0.258 -0.12 -0.523 -0.223 -0.797 -0.307 l -7.712 -2.356 C 51.045 61.901 51.014 61.897 50.985 61.897 z" style="stroke: none; stroke-width: 1; stroke-dasharray: none; stroke-linecap: butt; stroke-linejoin: miter; stroke-miterlimit: 10; fill: rgb(0,0,0); fill-rule: nonzero; opacity: 1;" transform=" matrix(1 0 0 1 0 0) " stroke-linecap="round" />
	<path d="M 40.672 27.356 H 24.328 c -0.552 0 -1 -0.448 -1 -1 s 0.448 -1 1 -1 h 16.344 c 0.552 0 1 0.448 1 1 S 41.224 27.356 40.672 27.356 z" style="stroke: none; stroke-width: 1; stroke-dasharray: none; stroke-linecap: butt; stroke-linejoin: miter; stroke-miterlimit: 10; fill: rgb(0,0,0); fill-rule: nonzero; opacity: 1;" transform=" matrix(1 0 0 1 0 0) " stroke-linecap="round" />
	<path d="M 65.672 51.221 H 39.328 c -0.552 0 -1 -0.447 -1 -1 s 0.448 -1 1 -1 h 26.344 c 0.553 0 1 0.447 1 1 S 66.225 51.221 65.672 51.221 z" style="stroke: none; stroke-width: 1; stroke-dasharray: none; stroke-linecap: butt; stroke-linejoin: miter; stroke-miterlimit: 10; fill: rgb(0,0,0); fill-rule: nonzero; opacity: 1;" transform=" matrix(1 0 0 1 0 0) " stroke-linecap="round" />
</g>
</svg>