<svg width="16" height="17" viewBox="0 0 16 17" fill="none" xmlns="http://www.w3.org/2000/svg">
<g clip-path="url(#clip0_14996_170911)">
<path d="M4.66634 3.16659V1.83325H11.333V3.16659H14.6663V4.49992H13.333V14.4999C13.333 14.6767 13.2628 14.8463 13.1377 14.9713C13.0127 15.0963 12.8432 15.1666 12.6663 15.1666H3.33301C3.1562 15.1666 2.98663 15.0963 2.8616 14.9713C2.73658 14.8463 2.66634 14.6767 2.66634 14.4999V4.49992H1.33301V3.16659H4.66634ZM3.99967 4.49992V13.8333H11.9997V4.49992H3.99967ZM5.99967 6.49992H7.33301V11.8333H5.99967V6.49992ZM8.66634 6.49992H9.99967V11.8333H8.66634V6.49992Z" fill="#828282"/>
</g>
<defs>
<clipPath id="clip0_14996_170911">
<rect width="16" height="16" fill="white" transform="translate(0 0.5)"/>
</clipPath>
</defs>
</svg>
