<svg width="23" height="20" viewBox="0 0 23 20" fill="none" xmlns="http://www.w3.org/2000/svg">
<path fill-rule="evenodd" clip-rule="evenodd" d="M0.25 6.5C0.25 6.08579 0.58579 5.75 1 5.75H10.5C10.9142 5.75 11.25 6.08579 11.25 6.5C11.25 6.91421 10.9142 7.25 10.5 7.25H1C0.58579 7.25 0.25 6.91421 0.25 6.5Z" fill="#FF7A00" stroke="#FF7A00" stroke-width="0.5"/>
<path fill-rule="evenodd" clip-rule="evenodd" d="M4.25 14.5C4.25 14.0858 4.58579 13.75 5 13.75H7C7.41421 13.75 7.75 14.0858 7.75 14.5C7.75 14.9142 7.41421 15.25 7 15.25H5C4.58579 15.25 4.25 14.9142 4.25 14.5Z" fill="#FF7A00" stroke="#FF7A00" stroke-width="0.5"/>
<path fill-rule="evenodd" clip-rule="evenodd" d="M8.75 14.5C8.75 14.0858 9.0858 13.75 9.5 13.75H13.5C13.9142 13.75 14.25 14.0858 14.25 14.5C14.25 14.9142 13.9142 15.25 13.5 15.25H9.5C9.0858 15.25 8.75 14.9142 8.75 14.5Z" fill="#FF7A00" stroke="#FF7A00" stroke-width="0.5"/>
<path fill-rule="evenodd" clip-rule="evenodd" d="M2.41607 2.91207C1.99101 3.33235 1.75 4.13117 1.75 5.89V13.0008C1.75 13.415 1.41421 13.2258 1 13.2258C0.58579 13.2258 0.25 14.015 0.25 13.6008V5.89C0.25 4.13883 0.45399 2.74265 1.36143 1.84543C2.26591 0.95113 3.671 0.75 5.44 0.75H13.5C13.9142 0.75 14.25 1.08579 14.25 1.5C14.25 1.91421 13.9142 2.25 13.5 2.25H5.44C3.659 2.25 2.84409 2.48887 2.41607 2.91207Z" fill="#FF7A00" stroke="#FF7A00" stroke-width="0.5"/>
<path fill-rule="evenodd" clip-rule="evenodd" d="M21 9.28125C21.4142 9.28125 21.75 9.61705 21.75 10.0312V14.1113C21.75 15.8625 21.546 17.2587 20.6386 18.1559C19.7341 19.0502 18.329 19.2513 16.56 19.2513H5.44C3.671 19.2513 2.26591 19.0502 1.36143 18.1559C0.45399 17.2587 0.25 15.8625 0.25 14.1113V13.0013C0.25 12.5871 0.58579 12.2513 1 12.2513C1.41421 12.2513 1.75 12.5871 1.75 13.0013V14.1113C1.75 15.8701 1.99101 16.6689 2.41607 17.0892C2.84409 17.5124 3.659 17.7513 5.44 17.7513H16.56C18.341 17.7513 19.1559 17.5124 19.5839 17.0892C20.009 16.6689 20.25 15.8701 20.25 14.1113V10.0312C20.25 9.61705 20.5858 9.28125 21 9.28125Z" fill="#FF7A00" stroke="#FF7A00" stroke-width="0.5"/>
<path fill-rule="evenodd" clip-rule="evenodd" d="M19.0583 0.789592C19.7412 0.725092 20.3713 1.0381 20.9404 1.60719C21.5063 2.17307 21.8158 2.80183 21.749 3.4832C21.6861 4.12517 21.3029 4.62542 20.9404 4.98785L17.2304 8.69782C17.0848 8.84342 16.9045 8.95632 16.748 9.03462C16.5907 9.11322 16.3934 9.18892 16.1914 9.21922L16.1847 9.22022L14.7621 9.42052C14.3066 9.48312 13.8447 9.35782 13.5123 9.02532C13.1798 8.69292 13.0545 8.23102 13.1171 7.77554L13.1174 7.77292L13.3184 6.34626C13.3487 6.1442 13.4244 5.94694 13.503 5.78961C13.5813 5.63308 13.6942 5.4528 13.8398 5.30719L17.5498 1.59719C17.9122 1.23479 18.4134 0.850512 19.0583 0.789592ZM19.1994 2.28295C19.0768 2.29453 18.888 2.38025 18.6104 2.65785L14.903 6.36528C14.903 6.36528 14.8963 6.37335 14.8875 6.38636C14.8744 6.40563 14.8593 6.43109 14.8447 6.46043C14.83 6.48974 14.8184 6.51763 14.8104 6.54075C14.8044 6.55812 14.8022 6.56793 14.8016 6.57009L14.6105 7.9271L15.9675 7.73597C15.9697 7.73546 15.9795 7.73318 15.9969 7.72719C16.02 7.7192 16.0479 7.7076 16.0772 7.69295C16.1065 7.67828 16.132 7.6632 16.1513 7.65013C16.1643 7.6413 16.1723 7.63462 16.1723 7.63462L19.8798 3.92719C20.1573 3.64962 20.2441 3.45987 20.2562 3.33684C20.2644 3.25321 20.2539 3.04197 19.8798 2.66785C19.4989 2.28694 19.284 2.27495 19.1994 2.28295Z" fill="#FF7A00" stroke="#FF7A00" stroke-width="0.5"/>
<path fill-rule="evenodd" clip-rule="evenodd" d="M17.3466 1.93482C17.7452 1.82196 18.1598 2.05355 18.2726 2.45209C18.5222 3.33332 19.2068 4.0144 20.0711 4.25362C20.4703 4.36411 20.7043 4.7773 20.5938 5.17651C20.4833 5.57571 20.0701 5.80976 19.6709 5.69926C18.2952 5.31848 17.2198 4.23956 16.8294 2.86079C16.7165 2.46225 16.9481 2.04768 17.3466 1.93482Z" fill="#FF7A00" stroke="#FF7A00" stroke-width="0.5"/>
</svg>
