<svg width="16" height="17" viewBox="0 0 16 17" fill="none" xmlns="http://www.w3.org/2000/svg">
<path d="M15 5.12363V10.4283C15 10.7304 14.7552 10.9752 14.4531 10.9752C14.1511 10.9752 13.9062 10.7304 13.9062 10.4283V6.76425L4.14453 6.76436C3.84247 6.76436 3.59766 6.51955 3.59766 6.21748C3.59766 5.91542 3.84247 5.67061 4.14453 5.67061L13.9062 5.6705V5.12363C13.9062 4.97751 13.8494 4.84026 13.7461 4.73686C13.6429 4.63368 13.5055 4.57675 13.3595 4.57686L6.90625 4.57675C6.60419 4.57675 6.35938 4.33194 6.35938 4.02988V3.97476C6.35938 3.37181 5.86879 2.88123 5.26584 2.88101L3.18729 2.88037C2.58444 2.88037 2.09375 3.37106 2.09375 3.97412V7.60913C2.09375 7.61009 2.09386 7.61105 2.09386 7.61201L2.09375 12.4254C2.09375 13.0285 2.58444 13.5191 3.1875 13.5191H8.79297C9.09503 13.5191 9.33984 13.7639 9.33984 14.066C9.33984 14.3681 9.09503 14.6129 8.79297 14.6129H3.1875C1.98128 14.6129 1 13.6316 1 12.4254L1.00011 9.0905C1.00011 9.08975 1 9.08911 1 9.08847V3.97412C1 2.7679 1.98128 1.78662 3.1875 1.78662L5.26616 1.78726C6.30298 1.78748 7.1736 2.51305 7.39737 3.48289L13.3594 3.483H13.3597C13.7977 3.483 14.2096 3.65369 14.5195 3.96344C14.8293 4.2733 15 4.68538 15 5.12363ZM14.4531 12.0689H12.9492V10.565C12.9492 10.263 12.7044 10.0182 12.4023 10.0182C12.1003 10.0182 11.8555 10.263 11.8555 10.565V12.0689H10.3516C10.0495 12.0689 9.80469 12.3138 9.80469 12.6158C9.80469 12.9179 10.0495 13.1627 10.3516 13.1627H11.8555V14.6666C11.8555 14.9687 12.1003 15.2135 12.4023 15.2135C12.7044 15.2135 12.9492 14.9687 12.9492 14.6666V13.1627H14.4531C14.7552 13.1627 15 12.9179 15 12.6158C15 12.3138 14.7552 12.0689 14.4531 12.0689Z" fill="#828282"/>
</svg>
