<svg width="17" height="18" viewBox="0 0 17 18" fill="none" xmlns="http://www.w3.org/2000/svg">
<path d="M8.49999 1.91501C4.5933 1.91501 1.41499 5.09332 1.41499 9.00001C1.41499 12.9067 4.5933 16.085 8.49999 16.085C12.4067 16.085 15.585 12.9067 15.585 9.00001C15.585 5.09332 12.4067 1.91501 8.49999 1.91501ZM8.49999 13.0753C8.10266 13.0753 7.78053 12.7532 7.78053 12.3559C7.78053 11.9585 8.10266 11.6364 8.49999 11.6364C8.89733 11.6364 9.21946 11.9585 9.21946 12.3559C9.21946 12.7532 8.89733 13.0753 8.49999 13.0753ZM9.21946 9.38209C9.21946 9.77943 8.89733 10.1016 8.49999 10.1016C8.10266 10.1016 7.78053 9.77943 7.78053 9.38209V5.59291C7.78053 5.19558 8.10266 4.87345 8.49999 4.87345C8.89733 4.87345 9.21946 5.19558 9.21946 5.59291V9.38209Z" fill="#16379E"/>
</svg>
