<svg width="24" height="24" viewBox="0 0 24 24" fill="none" xmlns="http://www.w3.org/2000/svg">
<path d="M23.0749 3.6917L20.8248 1.4417C20.6054 1.22223 20.2495 1.22196 20.0299 1.44143C20.0299 1.44156 20.0297 1.4417 20.0294 1.4417L13.2796 8.19184C13.174 8.29724 13.1149 8.44021 13.1149 8.58936V10.8395C13.1149 11.1501 13.3667 11.4019 13.6772 11.4019H15.9274C16.0765 11.4019 16.2195 11.3427 16.3249 11.2372L23.0749 4.48716C23.2945 4.26769 23.2946 3.91172 23.0753 3.69212C23.0752 3.69212 23.0752 3.69184 23.0749 3.6917ZM15.6944 10.277H14.2397V8.82245L20.4272 2.63495L21.8818 4.0895L15.6944 10.277Z" fill="white" stroke="white" stroke-width="0.25"/>
<path d="M21.5521 8.02699C21.2415 8.02699 20.9897 8.2788 20.9897 8.58936V16.4644C20.9888 17.3959 20.2338 18.1509 19.3022 18.152H13.6772C13.5555 18.1517 13.437 18.1912 13.3397 18.2644L9.73973 20.9645V18.7145C9.73973 18.4038 9.48793 18.152 9.17723 18.152H3.55223C2.62069 18.1509 1.86569 17.3959 1.86486 16.4645V6.33936C1.86583 5.40796 2.62069 4.65296 3.55223 4.65199H13.6772C13.9879 4.65199 14.2397 4.40019 14.2397 4.08949C14.2397 3.77893 13.9879 3.52713 13.6772 3.52713H3.55223C1.99957 3.52864 0.741241 4.78698 0.739727 6.33936V16.4645C0.741241 18.017 1.99957 19.2753 3.55223 19.277H8.61473V22.0895C8.61473 22.4001 8.86653 22.6519 9.17723 22.6519C9.299 22.6519 9.41734 22.6124 9.51476 22.5394L13.8653 19.2769H19.3022C20.8549 19.2753 22.1131 18.017 22.1147 16.4644V8.58949C22.1147 8.2788 21.8628 8.02699 21.5521 8.02699Z" fill="white" stroke="white" stroke-width="0.25"/>
<path d="M10.3021 6.90199H4.67736C4.36653 6.90199 4.11473 7.1538 4.11473 7.46449C4.11473 7.77505 4.36653 8.02686 4.67736 8.02686H10.3021C10.6128 8.02686 10.8647 7.77505 10.8647 7.46449C10.8647 7.1538 10.6128 6.90199 10.3021 6.90199Z" fill="white" stroke="white" stroke-width="0.25"/>
<path d="M4.67736 11.402H10.3021C10.6128 11.402 10.8647 11.1501 10.8647 10.8395C10.8647 10.5288 10.6128 10.277 10.3021 10.277H4.67736C4.36653 10.277 4.11473 10.5288 4.11473 10.8395C4.11473 11.1501 4.36653 11.402 4.67736 11.402Z" fill="white" stroke="white" stroke-width="0.25"/>
<path d="M4.67736 14.7769H18.1772C18.4879 14.7769 18.7396 14.5251 18.7396 14.2144C18.7396 13.9038 18.4878 13.652 18.1772 13.652H4.67736C4.36653 13.652 4.11473 13.9038 4.11473 14.2144C4.11473 14.5251 4.36653 14.7769 4.67736 14.7769Z" fill="white" stroke="white" stroke-width="0.25"/>
</svg>
