<svg width="17" height="18" viewBox="0 0 17 18" fill="none" xmlns="http://www.w3.org/2000/svg">
<path d="M8.47661 1.89883C4.77241 1.89883 1.73441 4.73542 1.40781 8.35442H7.18557V6.41773C7.18557 6.15697 7.34302 5.92138 7.58381 5.82126C7.8253 5.72126 8.10285 5.7767 8.28748 5.96134L10.8697 8.54366C11.1222 8.79603 11.1222 9.20396 10.8697 9.45645L8.28748 12.0387C8.10285 12.2233 7.8253 12.2789 7.58381 12.1787C7.34302 12.0787 7.18557 11.843 7.18557 11.5823V9.64558H1.40781C1.73441 13.2646 4.77241 16.1012 8.47661 16.1012C12.3984 16.1012 15.5778 12.9218 15.5778 9.00006C15.5778 5.07822 12.3984 1.89883 8.47661 1.89883Z" fill="white"/>
</svg>
