<svg width="24" height="24" viewBox="0 0 24 24" fill="none" xmlns="http://www.w3.org/2000/svg">
<g clip-path="url(#clip0_12771_780)">
<path d="M23.8219 18.1934L21.3404 15.4072C21.207 15.2574 21.0159 15.1717 20.8153 15.1717H17.5682V8.42089H23.2969C23.5658 8.42089 23.8111 8.26756 23.9289 8.02578C24.0467 7.78404 24.0164 7.49627 23.8507 7.28449L22.1793 5.14821L23.8581 2.92385C24.0188 2.71099 24.0452 2.42553 23.9263 2.18679C23.8073 1.94801 23.5636 1.79712 23.2969 1.79712H16.8651C16.4768 1.79712 16.162 2.11193 16.162 2.50024V7.71776V15.1717H11.7656V9.82563C12.584 9.53539 13.1719 8.75384 13.1719 7.8372C13.1719 6.67409 12.2256 5.72782 11.0625 5.72782C9.89939 5.72782 8.95312 6.67409 8.95312 7.8372C8.95312 8.75384 9.54098 9.53539 10.3594 9.82563V15.1717H4.875V13.1069C5.69339 12.8166 6.28125 12.0351 6.28125 11.1184C6.28125 9.95534 5.33498 9.00907 4.17188 9.00907C3.00877 9.00907 2.0625 9.95534 2.0625 11.1184C2.0625 12.0351 2.65036 12.8166 3.46875 13.1069V15.1717H0.703125C0.314812 15.1717 0 15.4865 0 15.8748V21.4998C0 21.8881 0.314812 22.2029 0.703125 22.2029H20.8153C21.0182 22.2029 21.2112 22.1153 21.3447 21.9626L23.8262 19.1238C24.0596 18.8569 24.0577 18.4581 23.8219 18.1934ZM17.5682 3.20337H21.8853L20.7314 4.73229C20.5395 4.98659 20.5425 5.3382 20.7389 5.58912L21.8541 7.01459H17.5683V3.20337H17.5682ZM11.0625 7.13407C11.4502 7.13407 11.7656 7.44949 11.7656 7.8372C11.7656 8.2249 11.4502 8.54032 11.0625 8.54032C10.6748 8.54032 10.3594 8.2249 10.3594 7.8372C10.3594 7.44949 10.6748 7.13407 11.0625 7.13407ZM4.17188 10.4153C4.55958 10.4153 4.875 10.7307 4.875 11.1184C4.875 11.5062 4.55958 11.8216 4.17188 11.8216C3.78417 11.8216 3.46875 11.5062 3.46875 11.1184C3.46875 10.7307 3.78417 10.4153 4.17188 10.4153ZM15.0642 18.7062C15.0642 18.7062 13.0167 20.7622 12.9929 20.7967H8.03925L9.47817 19.1813C9.71395 18.9166 9.71583 18.5178 9.48248 18.2508L8.02003 16.5779H12.993C13.0157 16.6107 15.0642 18.7062 15.0642 18.7062ZM1.40625 16.5779H6.15211L8.01539 18.7092L6.15605 20.7967H1.40625V16.5779ZM20.496 20.7967H14.9635L16.5509 19.2077C16.8233 18.935 16.8253 18.4938 16.5555 18.2185L14.947 16.5779H20.5L22.3592 18.6654L20.496 20.7967Z" fill="white"/>
</g>
<defs>
<clipPath id="clip0_12771_780">
<rect width="24" height="24" fill="white"/>
</clipPath>
</defs>
</svg>
