<svg width="20" height="20" viewBox="0 0 20 20" fill="none" xmlns="http://www.w3.org/2000/svg">
<path d="M16.2769 2.5H14.7769V4C14.7769 4.3 14.5269 4.5 14.2769 4.5C14.0269 4.5 13.7769 4.3 13.7769 4V2.5H5.77666V4C5.77666 4.3 5.52665 4.5 5.27665 4.5C5.02664 4.5 4.77663 4.3 4.77663 4V2.5H3.2766C2.52658 2.5 1.97656 3.15 1.97656 4V5.8H17.977V4C17.977 3.15 17.0769 2.5 16.2769 2.5ZM1.97656 6.85V16C1.97656 16.9 2.52658 17.5 3.3266 17.5H16.3269C17.1269 17.5 18.027 16.85 18.027 16V6.85H1.97656ZM6.42667 15.25H5.22664C5.02664 15.25 4.82663 15.1 4.82663 14.85V13.6C4.82663 13.4 4.97664 13.2 5.22664 13.2H6.47668C6.67668 13.2 6.87669 13.35 6.87669 13.6V14.85C6.82668 15.1 6.67668 15.25 6.42667 15.25ZM6.42667 10.75H5.22664C5.02664 10.75 4.82663 10.6 4.82663 10.35V9.1C4.82663 8.9 4.97664 8.7 5.22664 8.7H6.47668C6.67668 8.7 6.87669 8.85 6.87669 9.1V10.35C6.82668 10.6 6.67668 10.75 6.42667 10.75ZM10.4268 15.25H9.17674C8.97674 15.25 8.77673 15.1 8.77673 14.85V13.6C8.77673 13.4 8.92674 13.2 9.17674 13.2H10.4268C10.6268 13.2 10.8268 13.35 10.8268 13.6V14.85C10.8268 15.1 10.6768 15.25 10.4268 15.25ZM10.4268 10.75H9.17674C8.97674 10.75 8.77673 10.6 8.77673 10.35V9.1C8.77673 8.9 8.92674 8.7 9.17674 8.7H10.4268C10.6268 8.7 10.8268 8.85 10.8268 9.1V10.35C10.8268 10.6 10.6768 10.75 10.4268 10.75ZM14.4269 15.25H13.1768C12.9768 15.25 12.7768 15.1 12.7768 14.85V13.6C12.7768 13.4 12.9268 13.2 13.1768 13.2H14.4269C14.6269 13.2 14.8269 13.35 14.8269 13.6V14.85C14.8269 15.1 14.6769 15.25 14.4269 15.25ZM14.4269 10.75H13.1768C12.9768 10.75 12.7768 10.6 12.7768 10.35V9.1C12.7768 8.9 12.9268 8.7 13.1768 8.7H14.4269C14.6269 8.7 14.8269 8.85 14.8269 9.1V10.35C14.8269 10.6 14.6769 10.75 14.4269 10.75Z" fill="#0B2585"/>
</svg>
