<svg width="24" height="24" viewBox="0 0 24 24" fill="none" xmlns="http://www.w3.org/2000/svg">
<g clip-path="url(#clip0_13956_49708)">
<mask id="mask0_13956_49708" style="mask-type:luminance" maskUnits="userSpaceOnUse" x="0" y="0" width="24" height="24">
<path d="M0 1.90735e-06H24V24H0V1.90735e-06Z" fill="white"/>
</mask>
<g mask="url(#mask0_13956_49708)">
<path d="M8.48438 13.6875C8.48438 14.8525 7.53998 15.7969 6.375 15.7969C5.21002 15.7969 4.26562 14.8525 4.26562 13.6875C4.26562 12.5225 5.21002 11.5781 6.375 11.5781C7.53998 11.5781 8.48438 12.5225 8.48438 13.6875Z" stroke="white" stroke-width="1.40625" stroke-miterlimit="10" stroke-linecap="round" stroke-linejoin="round"/>
<path d="M23.2969 23.2969H0.703125V20.0156H23.2969V23.2969Z" stroke="white" stroke-width="1.40625" stroke-miterlimit="10" stroke-linecap="round" stroke-linejoin="round"/>
<path d="M6.375 15.7969C4.43334 15.7969 2.85938 17.3709 2.85938 19.3125V20.0156H9.89062V19.3125C9.89062 17.3709 8.31666 15.7969 6.375 15.7969Z" stroke="white" stroke-width="1.40625" stroke-miterlimit="10" stroke-linecap="round" stroke-linejoin="round"/>
<path d="M8.48438 2.8125C8.48438 3.97748 7.53998 4.92188 6.375 4.92188C5.21002 4.92188 4.26562 3.97748 4.26562 2.8125C4.26562 1.64752 5.21002 0.703125 6.375 0.703125C7.53998 0.703125 8.48438 1.64752 8.48438 2.8125Z" stroke="white" stroke-width="1.40625" stroke-miterlimit="10" stroke-linecap="round" stroke-linejoin="round"/>
<path d="M19.7344 2.8125C19.7344 3.97748 18.79 4.92188 17.625 4.92188C16.46 4.92188 15.5156 3.97748 15.5156 2.8125C15.5156 1.64752 16.46 0.703125 17.625 0.703125C18.79 0.703125 19.7344 1.64752 19.7344 2.8125Z" stroke="white" stroke-width="1.40625" stroke-miterlimit="10" stroke-linecap="round" stroke-linejoin="round"/>
<path d="M6.375 4.92188C4.43334 4.92188 2.85938 6.49589 2.85938 8.4375V9.14062H9.89062V8.4375C9.89062 6.49589 8.31666 4.92188 6.375 4.92188Z" stroke="white" stroke-width="1.40625" stroke-miterlimit="10" stroke-linecap="round" stroke-linejoin="round"/>
<path d="M17.625 4.92188C15.6833 4.92188 14.1094 6.49589 14.1094 8.4375V9.14062H21.1406V8.4375C21.1406 6.49589 19.5667 4.92188 17.625 4.92188Z" stroke="white" stroke-width="1.40625" stroke-miterlimit="10" stroke-linecap="round" stroke-linejoin="round"/>
<path d="M23.2969 12.4219V9.14063H0.703125V12.4219H4.68745" stroke="white" stroke-width="1.40625" stroke-miterlimit="10" stroke-linecap="round" stroke-linejoin="round"/>
<path d="M8.0625 12.4219H23.2968" stroke="white" stroke-width="1.40625" stroke-miterlimit="10" stroke-linecap="round" stroke-linejoin="round"/>
<path d="M17.6719 16.6406V15.2344" stroke="white" stroke-width="1.40625" stroke-miterlimit="10" stroke-linecap="round" stroke-linejoin="round"/>
<path d="M20.2031 16.875L21.1406 15.9375" stroke="white" stroke-width="1.40625" stroke-miterlimit="10" stroke-linecap="round" stroke-linejoin="round"/>
<path d="M14.1094 15.9375L15.0469 16.875" stroke="white" stroke-width="1.40625" stroke-miterlimit="10" stroke-linecap="round" stroke-linejoin="round"/>
</g>
</g>
<defs>
<clipPath id="clip0_13956_49708">
<rect width="24" height="24" fill="white"/>
</clipPath>
</defs>
</svg>
