<svg width="16" height="17" viewBox="0 0 16 17" fill="none" xmlns="http://www.w3.org/2000/svg">
<g clip-path="url(#clip0_15111_171427)">
<path d="M8 0.5C3.58853 0.5 0 4.08853 0 8.5C0 12.9115 3.58853 16.5 8 16.5C12.4115 16.5 16 12.9108 16 8.5C16 4.08916 12.4115 0.5 8 0.5ZM8 15.2607C4.27266 15.2607 1.23934 12.228 1.23934 8.5C1.23934 4.77203 4.27266 1.73934 8 1.73934C11.7273 1.73934 14.7607 4.77203 14.7607 8.5C14.7607 12.228 11.728 15.2607 8 15.2607Z" fill="#246AFF"/>
<path d="M11.0982 7.82445H8.61949V5.34576C8.61949 5.0037 8.34249 4.72607 7.9998 4.72607C7.65711 4.72607 7.38011 5.0037 7.38011 5.34576V7.82445H4.90143C4.55874 7.82445 4.28174 8.10207 4.28174 8.44414C4.28174 8.7862 4.55874 9.06382 4.90143 9.06382H7.38011V11.5425C7.38011 11.8846 7.65711 12.1622 7.9998 12.1622C8.34249 12.1622 8.61949 11.8846 8.61949 11.5425V9.06382H11.0982C11.4409 9.06382 11.7179 8.7862 11.7179 8.44414C11.7179 8.10207 11.4409 7.82445 11.0982 7.82445Z" fill="#246AFF"/>
</g>
<defs>
<clipPath id="clip0_15111_171427">
<rect width="16" height="16" fill="white" transform="translate(0 0.5)"/>
</clipPath>
</defs>
</svg>
