<svg width="32" height="32" viewBox="0 0 32 32" fill="none" xmlns="http://www.w3.org/2000/svg">
<g clip-path="url(#clip0_9105_79542)">
<path d="M25.0587 22.1269H6.94141V15.434C6.94141 13.9733 8.12559 12.7891 9.58634 12.7891H22.4138C23.8746 12.7891 25.0588 13.9733 25.0588 15.434V22.1269H25.0587Z" fill="#FFF3A7"/>
<path d="M22.4141 12.7891H19.9141C21.3748 12.7891 22.559 13.9733 22.559 15.434V22.1269H25.059V15.434C25.0589 13.9733 23.8748 12.7891 22.4141 12.7891Z" fill="#FCE65B"/>
<path d="M28.1485 29.4091H3.84766V23.8012C3.84766 22.3404 5.03184 21.1562 6.49259 21.1562H25.5037C26.9644 21.1562 28.1486 22.3404 28.1486 23.8012V29.4091H28.1485Z" fill="#FFF3A7"/>
<path d="M25.5039 21.1562H23.0039C24.4647 21.1562 25.6488 22.3404 25.6488 23.8012V29.4091H28.1488V23.8012C28.1488 22.3404 26.9647 21.1562 25.5039 21.1562Z" fill="#FCE65B"/>
<path d="M25.5036 21.1562H6.49259C5.03184 21.1562 3.84766 22.3404 3.84766 23.8012V23.8184C5.87266 23.8184 5.87266 27.1111 7.89766 27.1111C9.92259 27.1111 9.92259 23.8184 11.9475 23.8184C13.9726 23.8184 13.9726 27.1111 15.9976 27.1111C18.0227 27.1111 18.0227 23.8184 20.0478 23.8184C22.073 23.8184 22.073 27.1111 24.0982 27.1111C26.1233 27.1111 26.1233 23.8184 28.1485 23.8184V23.8012C28.1485 22.3404 26.9643 21.1562 25.5036 21.1562Z" fill="#F54C5A"/>
<path d="M25.5039 21.1562H23.0039C24.4647 21.1562 25.6488 22.3404 25.6488 23.8012V23.8184V26.1905C26.3693 25.2164 26.8292 23.8184 28.1488 23.8184V23.8012C28.1488 22.3404 26.9647 21.1562 25.5039 21.1562Z" fill="#EB3443"/>
<path d="M9.96662 17.9839C11.4739 17.9839 11.4739 15.5329 12.9812 15.5329C14.4886 15.5329 14.4886 17.9839 15.9959 17.9839C17.5032 17.9839 17.5032 15.5329 19.0106 15.5329C20.5181 15.5329 20.5181 17.9839 22.0256 17.9839C23.5331 17.9839 23.533 15.5329 25.0405 15.5329H25.0549V15.434C25.0549 13.9733 23.8707 12.7891 22.4099 12.7891H9.58244C8.12169 12.7891 6.9375 13.9733 6.9375 15.434V15.5329H6.95188C8.45925 15.5329 8.45925 17.9839 9.96662 17.9839Z" fill="#F54C5A"/>
<path d="M22.4102 12.7891H19.9102C21.3709 12.7891 22.5551 13.9733 22.5551 15.434V17.8646C23.5598 17.3738 23.7342 15.5329 25.0407 15.5329H25.0551V15.434C25.055 13.9733 23.8709 12.7891 22.4102 12.7891Z" fill="#EB3443"/>
<path d="M17.2717 3.25381C17.2717 3.95656 16.701 4.52631 15.9972 4.52631C15.2933 4.52631 14.7227 3.95662 14.7227 3.25381C14.7227 2.551 15.9972 0.46875 15.9972 0.46875C15.9972 0.46875 17.2717 2.55106 17.2717 3.25381Z" fill="#FFDB63"/>
<path d="M14.2852 7.07031H17.7092V12.7941H14.2852V7.07031Z" fill="#8FE0FF"/>
<path d="M14.3125 9H17.6822V10.8719H14.3125V9Z" fill="#BDEDFF"/>
<path d="M29.4086 31.5289H2.59138C1.41906 31.5289 0.46875 30.5786 0.46875 29.4062H31.5312C31.5312 30.5786 30.5809 31.5289 29.4086 31.5289Z" fill="#BDEDFF"/>
<path d="M7.89417 25.3828C8.49742 25.3828 8.49842 24.4453 7.89417 24.4453C7.29098 24.4453 7.28998 25.3828 7.89417 25.3828Z" fill="#060606"/>
<path d="M15.9997 25.3828C16.6029 25.3828 16.6039 24.4453 15.9997 24.4453C15.3965 24.4453 15.3954 25.3828 15.9997 25.3828Z" fill="#060606"/>
<path d="M24.1091 25.3828C24.7123 25.3828 24.7133 24.4453 24.1091 24.4453C23.5058 24.4453 23.5048 25.3828 24.1091 25.3828Z" fill="#060606"/>
<path d="M9.97234 16.5391C10.5756 16.5391 10.5766 15.6016 9.97234 15.6016C9.36909 15.6016 9.36809 16.5391 9.97234 16.5391Z" fill="#060606"/>
<path d="M15.9997 16.5391C16.6029 16.5391 16.6039 15.6016 15.9997 15.6016C15.3965 15.6016 15.3954 16.5391 15.9997 16.5391Z" fill="#060606"/>
<path d="M22.0309 16.5391C22.6342 16.5391 22.6352 15.6016 22.0309 15.6016C21.4277 15.6016 21.4267 16.5391 22.0309 16.5391Z" fill="#060606"/>
<path d="M22.1048 5.1854C22.3421 5.1854 22.5747 4.9464 22.5736 4.71459L22.5703 3.97378C22.5677 3.38521 21.6301 3.36015 21.6328 3.9779L21.6361 4.71871C21.6373 4.9769 21.8469 5.1854 22.1048 5.1854Z" fill="#060606"/>
<path d="M20.1399 5.75453C20.5703 6.18028 21.2304 5.51478 20.7994 5.08816L20.2724 4.56666C19.8415 4.14041 19.1822 4.80672 19.6129 5.23303L20.1399 5.75453Z" fill="#060606"/>
<path d="M19.0679 7.54238H19.07L19.8119 7.53906C20.4039 7.53644 20.3869 6.60156 19.8078 6.60156L19.0659 6.60488C18.4609 6.60756 18.4632 7.54238 19.0679 7.54238Z" fill="#060606"/>
<path d="M20.1832 8.36638L19.6609 8.8925C19.2341 9.32238 19.8989 9.9835 20.3262 9.553L20.8485 9.02688C21.2756 8.59688 20.6102 7.93613 20.1832 8.36638Z" fill="#060606"/>
<path d="M23.4676 8.32421C23.2855 8.50821 23.287 8.80496 23.4711 8.98708L23.9981 9.50858C24.4285 9.93433 25.0886 9.26883 24.6575 8.84221C24.4297 8.53964 23.8583 7.92939 23.4676 8.32421Z" fill="#060606"/>
<path d="M23.9922 7.00537C23.9933 7.23775 24.2263 7.47206 24.463 7.47206L25.2049 7.46875C25.7969 7.46613 25.7799 6.53125 25.2008 6.53125L24.4589 6.53456C24.2 6.53575 23.9911 6.74656 23.9922 7.00537Z" fill="#060606"/>
<path d="M23.758 5.83993C23.8785 5.83993 23.999 5.79374 24.0906 5.70143L24.6129 5.1753C25.0399 4.74518 24.3745 4.08462 23.9475 4.5148L23.4253 5.04093C23.1486 5.31974 23.3654 5.83993 23.758 5.83993Z" fill="#060606"/>
<path d="M9.83138 1.88071C10.0687 1.88071 10.3013 1.64171 10.3002 1.4099L10.2969 0.669089C10.2943 0.0805263 9.35663 0.0554638 9.35938 0.673214L9.36269 1.41403C9.36388 1.67221 9.57344 1.88071 9.83138 1.88071Z" fill="#060606"/>
<path d="M7.87038 2.44987C8.30075 2.87562 8.96088 2.21012 8.52982 1.78349L8.00281 1.26199C7.57206 0.835681 6.91263 1.50206 7.34338 1.92837L7.87038 2.44987Z" fill="#060606"/>
<path d="M6.79834 4.23769H6.80046L7.5424 4.23438C8.1344 4.23175 8.11734 3.29688 7.53828 3.29688L6.79634 3.30019C6.1914 3.30294 6.19371 4.23769 6.79834 4.23769Z" fill="#060606"/>
<path d="M7.90971 5.06949L7.38746 5.59562C6.96065 6.02555 7.6254 6.68662 8.05278 6.25612L8.57503 5.72999C9.00203 5.29987 8.33665 4.6393 7.90971 5.06949Z" fill="#060606"/>
<path d="M11.1981 5.02191C11.016 5.20591 11.0175 5.50273 11.2016 5.68479L11.7286 6.20623C12.1588 6.63216 12.8191 5.96641 12.388 5.53985L11.861 5.01841C11.677 4.83623 11.3802 4.83785 11.1981 5.02191Z" fill="#060606"/>
<path d="M11.7188 3.70069C11.7199 3.95888 11.9295 4.16738 12.1874 4.16738H12.1896L12.9315 4.16406C13.5235 4.16144 13.5064 3.22656 12.9274 3.22656L12.1854 3.22988C11.9266 3.231 11.7176 3.44181 11.7188 3.70069Z" fill="#060606"/>
<path d="M11.4846 2.53529C11.6051 2.53529 11.7256 2.4891 11.8172 2.39679L12.3395 1.87066C12.7666 1.4406 12.1011 0.779848 11.6742 1.21016L11.1519 1.73629C10.8751 2.0151 11.0921 2.53529 11.4846 2.53529Z" fill="#060606"/>
<path d="M31.5312 28.9399H28.6192V23.8008C28.6192 22.0913 27.2342 20.6996 25.5274 20.6877V15.4373C25.5274 13.7844 24.2326 12.4288 22.6041 12.33V6.75306C22.6041 6.49413 22.3943 6.28431 22.1354 6.28431C21.8764 6.28431 21.6666 6.49413 21.6666 6.75306V12.3236H18.1808V7.06862C18.1808 6.80969 17.971 6.59987 17.7121 6.59987H16.4612V4.93275C18.3274 4.42069 17.6651 2.55006 17.0525 1.38025C16.7304 0.765 16.4132 0.245875 16.3998 0.224063C16.1333 -0.0746875 15.8668 -0.0746875 15.6003 0.224063C15.5869 0.245875 15.2697 0.765 14.9476 1.38025C14.3362 2.5475 13.6651 4.40019 15.5238 4.92844V6.59987H14.2881C14.0291 6.59987 13.8193 6.80969 13.8193 7.06862V12.3236H10.3335V3.44963C10.3335 2.84356 9.396 2.84356 9.396 3.44963V12.33C7.7675 12.4288 6.47275 13.7844 6.47275 15.4373V20.6877C4.76594 20.6996 3.38094 22.0913 3.38094 23.8008V28.9399H0.46875C0.209812 28.9399 0 29.1497 0 29.4086C0 30.8375 1.1625 32 2.59138 32H29.4086C30.8375 32 32 30.8375 32 29.4086C32 29.1497 31.7902 28.9399 31.5312 28.9399ZM15.1942 3.25388C15.1942 2.65325 15.7252 1.89631 16.0007 1.39919C16.2666 1.87725 16.9089 2.79856 16.7746 3.395C16.5749 4.28219 15.1942 4.27712 15.1942 3.25388ZM14.7567 9.46325H17.2432V10.3977H14.7567V9.46325ZM17.2433 7.53737V8.52575H14.7568V7.53737H17.2433ZM14.7567 11.3352H17.2432V12.3236H14.7567V11.3352ZM9.58625 13.2611H22.4137C23.5105 13.2611 24.4198 14.0768 24.5682 15.1333C23.8631 15.3373 23.4668 15.9808 23.1375 16.5161C22.7553 17.1375 22.4973 17.5184 22.0294 17.5184C21.5614 17.5184 21.3034 17.1375 20.9212 16.5161C20.5242 15.8707 20.0302 15.0674 19.0144 15.0674C17.9987 15.0674 17.5047 15.8707 17.1077 16.5161C16.7256 17.1375 16.4676 17.5184 15.9997 17.5184C15.5318 17.5184 15.2738 17.1375 14.8916 16.5161C14.4947 15.8707 14.0007 15.0674 12.985 15.0674C12.5592 15.0674 12.1753 15.2157 11.8438 15.5083C11.3893 15.9093 12.0095 16.6123 12.464 16.2113C12.6257 16.0686 12.7864 16.0049 12.985 16.0049C13.4529 16.0049 13.7109 16.3858 14.0931 17.0072C14.49 17.6526 14.984 18.4559 15.9997 18.4559C17.0154 18.4559 17.5094 17.6526 17.9064 17.0072C18.2886 16.3858 18.5465 16.0049 19.0144 16.0049C19.4824 16.0049 19.7404 16.3858 20.1226 17.0072C20.5196 17.6526 21.0136 18.4559 22.0294 18.4559C23.0451 18.4559 23.5391 17.6526 23.9361 17.0072C24.1754 16.6182 24.366 16.3235 24.5899 16.1574V20.6871H7.41012V16.1575C7.634 16.3236 7.82456 16.6182 8.06381 17.0072C8.46075 17.6527 8.95475 18.4559 9.97044 18.4559C10.4677 18.4559 10.8911 18.2631 11.2647 17.8664C11.6803 17.4252 10.9977 16.7824 10.5822 17.2236C10.3876 17.4303 10.2046 17.5184 9.97044 17.5184C9.50256 17.5184 9.24456 17.1376 8.86238 16.5162C8.53319 15.9809 8.13681 15.3374 7.43181 15.1333C7.58012 14.0767 8.4895 13.2611 9.58625 13.2611ZM6.4945 21.6246H6.94131H25.0586H25.5054C26.5709 21.6246 27.4593 22.3944 27.6453 23.4069C26.7038 23.6301 26.1882 24.4671 25.7259 25.2188C25.1813 26.1042 24.8001 26.6419 24.1 26.6419C23.6329 26.6419 23.2905 26.5462 22.4741 25.2188C21.9351 24.3424 21.3242 23.3493 20.0496 23.3493C18.775 23.3493 18.1641 24.3425 17.6252 25.2188C17.0806 26.1043 16.6994 26.642 15.9994 26.642C15.5324 26.642 15.19 26.5463 14.3736 25.2188C13.8347 24.3425 13.2239 23.3493 11.9493 23.3493C10.6747 23.3493 10.064 24.3425 9.52506 25.2188C8.9805 26.1043 8.59931 26.642 7.89944 26.642C7.43244 26.642 7.09006 26.5463 6.27369 25.2188C5.81144 24.4672 5.29587 23.6302 4.3545 23.407C4.54062 22.3944 5.42906 21.6246 6.4945 21.6246ZM29.4086 31.0625H2.59138C1.84219 31.0625 1.20769 30.5618 1.00513 29.8774H22.9058C23.5119 29.8774 23.5119 28.9399 22.9058 28.9399H4.31831V24.3701C4.61319 24.5036 4.94375 24.8456 5.47531 25.7099C6.01425 26.5862 6.62506 27.5794 7.89962 27.5794C9.17412 27.5794 9.78487 26.5862 10.3238 25.7099C10.8684 24.8244 11.2496 24.2867 11.9495 24.2867C12.4165 24.2867 12.7589 24.3824 13.5752 25.7099C14.1142 26.5862 14.725 27.5794 15.9996 27.5794C17.2741 27.5794 17.885 26.5862 18.4239 25.7099C18.9686 24.8244 19.3497 24.2867 20.0497 24.2867C20.5168 24.2867 20.8593 24.3824 21.6757 25.7099C22.2147 26.5862 22.8256 27.5794 24.1002 27.5794C25.3748 27.5794 25.9856 26.5861 26.5246 25.7099C26.9344 25.0437 27.2517 24.5746 27.6818 24.3829V28.9399H25.2799C24.6739 28.9399 24.6739 29.8774 25.2799 29.8774H30.9949C30.7923 30.5618 30.1578 31.0625 29.4086 31.0625Z" fill="#060606"/>
</g>
<defs>
<clipPath id="clip0_9105_79542">
<rect width="32" height="32" fill="white"/>
</clipPath>
</defs>
</svg>
