<svg width="20" height="20" viewBox="0 0 20 20" fill="none" xmlns="http://www.w3.org/2000/svg">
<path d="M16.3805 2.96883H15.5993V1.66675H14.2972V2.96883H5.70345V1.66675H4.40137V2.96883H3.62012C2.54316 2.96883 1.66699 3.845 1.66699 4.92196V16.3803C1.66699 17.4572 2.54316 18.3334 3.62012 18.3334H16.3805C17.4575 18.3334 18.3337 17.4572 18.3337 16.3803V4.92196C18.3337 3.845 17.4575 2.96883 16.3805 2.96883ZM17.0316 16.3803C17.0316 16.7393 16.7395 17.0313 16.3805 17.0313H3.62012C3.26113 17.0313 2.96908 16.7393 2.96908 16.3803V7.78654H17.0316V16.3803ZM17.0316 6.48446H2.96908V4.92196C2.96908 4.56297 3.26113 4.27091 3.62012 4.27091H4.40137V5.573H5.70345V4.27091H14.2972V5.573H15.5993V4.27091H16.3805C16.7395 4.27091 17.0316 4.56297 17.0316 4.92196V6.48446Z" fill="#757575"/>
<path d="M5.44271 9.15356H4.14062V10.4556H5.44271V9.15356Z" fill="#757575"/>
<path d="M8.0472 9.15356H6.74512V10.4556H8.0472V9.15356Z" fill="#757575"/>
<path d="M10.6507 9.15356H9.34863V10.4556H10.6507V9.15356Z" fill="#757575"/>
<path d="M13.2552 9.15356H11.9531V10.4556H13.2552V9.15356Z" fill="#757575"/>
<path d="M15.8597 9.15356H14.5576V10.4556H15.8597V9.15356Z" fill="#757575"/>
<path d="M5.44271 11.7578H4.14062V13.0599H5.44271V11.7578Z" fill="#757575"/>
<path d="M8.0472 11.7578H6.74512V13.0599H8.0472V11.7578Z" fill="#757575"/>
<path d="M10.6507 11.7578H9.34863V13.0599H10.6507V11.7578Z" fill="#757575"/>
<path d="M13.2552 11.7578H11.9531V13.0599H13.2552V11.7578Z" fill="#757575"/>
<path d="M5.44271 14.3621H4.14062V15.6641H5.44271V14.3621Z" fill="#757575"/>
<path d="M8.0472 14.3621H6.74512V15.6641H8.0472V14.3621Z" fill="#757575"/>
<path d="M10.6507 14.3621H9.34863V15.6641H10.6507V14.3621Z" fill="#757575"/>
<path d="M13.2552 14.3621H11.9531V15.6641H13.2552V14.3621Z" fill="#757575"/>
<path d="M15.8597 11.7578H14.5576V13.0599H15.8597V11.7578Z" fill="#757575"/>
</svg>
