<svg width="24" height="24" viewBox="0 0 24 24" fill="none" xmlns="http://www.w3.org/2000/svg">
<g clip-path="url(#clip0_15304_130986)">
<path d="M12 0H6.8C6.5791 0 6.4 0.179102 6.4 0.4V3.2H0.4C0.179102 3.2 0 3.3791 0 3.6V23.6C0 23.8209 0.179102 24 0.4 24H12C12.2209 24 12.4 23.8209 12.4 23.6V0.4C12.4 0.179102 12.2209 0 12 0ZM11.6 20.8H7.2V20H11.6V20.8ZM0.8 6H6.4V18H0.8V6ZM11.6 4.4H7.2V3.2H11.6V4.4ZM0.8 18.8H6.4V20H0.8V18.8ZM7.2 19.2V5.2H11.6V19.2H7.2ZM11.6 0.8V2.4H7.2V0.8H11.6ZM6.4 4V5.2H0.8V4H6.4ZM0.8 20.8H6.4V23.2H0.8V20.8ZM7.2 23.2V21.6H11.6V23.2H7.2Z" fill="white" stroke="white" stroke-width="0.25"/>
<path d="M23.9866 21.8991L19.1866 3.4991C19.1599 3.39597 19.0931 3.30789 19.0009 3.25418C18.9089 3.20066 18.7993 3.18601 18.6964 3.21355L12.6964 4.81355C12.4839 4.87019 12.357 5.08777 12.4124 5.30066L17.2124 23.7007C17.2392 23.8038 17.3062 23.8919 17.3984 23.9454C17.4904 23.9987 17.5999 24.0132 17.7027 23.9854L23.7027 22.3854C23.9148 22.3288 24.0415 22.1116 23.9866 21.8991ZM13.9243 7.92703L19.1515 6.53347L19.3396 7.2534L14.1128 8.6491L13.9243 7.92703ZM19.5415 8.02957L21.8615 16.9286L16.6363 18.3227L14.3163 9.42312L19.5415 8.02957ZM22.0652 17.703L22.4747 19.2727L17.2476 20.6663L16.8396 19.0971L22.0652 17.703ZM18.514 4.08992L18.9495 5.75984L13.7224 7.153L13.2872 5.48386L18.514 4.08992ZM17.8851 23.1098L17.4495 21.4399L22.6767 20.046L23.1118 21.7151L17.8851 23.1098Z" fill="white" stroke="white" stroke-width="0.25"/>
<path d="M5.19961 7.19995H1.99961C1.77871 7.19995 1.59961 7.37905 1.59961 7.59995V10.8C1.59961 11.0208 1.77871 11.2 1.99961 11.2H5.19961C5.42051 11.2 5.59961 11.0208 5.59961 10.8V7.59995C5.59961 7.37905 5.42051 7.19995 5.19961 7.19995ZM4.79961 10.4H2.39961V7.99995H4.79961V10.4Z" fill="white" stroke="white" stroke-width="0.25"/>
</g>
<defs>
<clipPath id="clip0_15304_130986">
<rect width="24" height="24" fill="white"/>
</clipPath>
</defs>
</svg>
