<svg width="24" height="24" viewBox="0 0 24 24" fill="none" xmlns="http://www.w3.org/2000/svg">
<g clip-path="url(#clip0_13953_35053)">
<path d="M22.6069 22.5938H21.752V0.703125C21.752 0.314812 21.4372 0 21.0488 0H2.95089C2.56257 0 2.24776 0.314812 2.24776 0.703125V22.5938H1.39282C1.00451 22.5938 0.689697 22.9086 0.689697 23.2969C0.689697 23.6852 1.00451 24 1.39282 24H22.607C22.9953 24 23.3101 23.6852 23.3101 23.2969C23.3101 22.9086 22.9953 22.5938 22.6069 22.5938ZM9.60312 22.5938V17.8003H14.3966V22.5938H9.60312ZM15.8029 22.5938V17.0971C15.8029 16.7088 15.488 16.394 15.0997 16.394H8.89999C8.51168 16.394 8.19687 16.7088 8.19687 17.0971V22.5938H3.65401V1.40625H20.3457V22.5938H15.8029Z" fill="white"/>
<path d="M10.4882 3.1084H7.04248C6.65417 3.1084 6.33936 3.42321 6.33936 3.81152V7.25721C6.33936 7.64552 6.65417 7.96034 7.04248 7.96034H10.4882C10.8765 7.96034 11.1913 7.64552 11.1913 7.25721V3.81152C11.1913 3.42321 10.8765 3.1084 10.4882 3.1084ZM9.78504 6.55409H7.74561V4.51465H9.78504V6.55409Z" fill="white"/>
<path d="M16.9574 3.1084H13.5117C13.1234 3.1084 12.8086 3.42321 12.8086 3.81152V7.25721C12.8086 7.64552 13.1234 7.96034 13.5117 7.96034H16.9574C17.3457 7.96034 17.6605 7.64552 17.6605 7.25721V3.81152C17.6605 3.42321 17.3457 3.1084 16.9574 3.1084ZM16.2543 6.55409H14.2148V4.51465H16.2543V6.55409Z" fill="white"/>
<path d="M10.4882 9.6543H7.04248C6.65417 9.6543 6.33936 9.96911 6.33936 10.3574V13.8031C6.33936 14.1914 6.65417 14.5062 7.04248 14.5062H10.4882C10.8765 14.5062 11.1913 14.1914 11.1913 13.8031V10.3574C11.1913 9.96911 10.8765 9.6543 10.4882 9.6543ZM9.78504 13.1H7.74561V11.0605H9.78504V13.1Z" fill="white"/>
<path d="M16.9574 9.6543H13.5117C13.1234 9.6543 12.8086 9.96911 12.8086 10.3574V13.8031C12.8086 14.1914 13.1234 14.5062 13.5117 14.5062H16.9574C17.3457 14.5062 17.6605 14.1914 17.6605 13.8031V10.3574C17.6605 9.96911 17.3457 9.6543 16.9574 9.6543ZM16.2543 13.1H14.2148V11.0605H16.2543V13.1Z" fill="white"/>
</g>
<defs>
<clipPath id="clip0_13953_35053">
<rect width="24" height="24" fill="white"/>
</clipPath>
</defs>
</svg>
