<svg width="20" height="20" viewBox="0 0 20 20" fill="none" xmlns="http://www.w3.org/2000/svg">
<path d="M16.38 2.96883H15.5988V1.66675H14.2967V2.96883H5.70296V1.66675H4.40088V2.96883H3.61963C2.54268 2.96883 1.6665 3.845 1.6665 4.92196V16.3803C1.6665 17.4572 2.54268 18.3334 3.61963 18.3334H16.38C17.457 18.3334 18.3332 17.4572 18.3332 16.3803V4.92196C18.3332 3.845 17.457 2.96883 16.38 2.96883ZM17.0311 16.3803C17.0311 16.7393 16.739 17.0313 16.38 17.0313H3.61963C3.26064 17.0313 2.96859 16.7393 2.96859 16.3803V7.78654H17.0311V16.3803ZM17.0311 6.48446H2.96859V4.92196C2.96859 4.56297 3.26064 4.27091 3.61963 4.27091H4.40088V5.573H5.70296V4.27091H14.2967V5.573H15.5988V4.27091H16.38C16.739 4.27091 17.0311 4.56297 17.0311 4.92196V6.48446Z" fill="#757575"/>
<path d="M5.44271 9.15356H4.14062V10.4556H5.44271V9.15356Z" fill="#757575"/>
<path d="M8.04671 9.15356H6.74463V10.4556H8.04671V9.15356Z" fill="#757575"/>
<path d="M10.6512 9.15356H9.34912V10.4556H10.6512V9.15356Z" fill="#757575"/>
<path d="M13.2552 9.15356H11.9531V10.4556H13.2552V9.15356Z" fill="#757575"/>
<path d="M15.8592 9.15356H14.5571V10.4556H15.8592V9.15356Z" fill="#757575"/>
<path d="M5.44271 11.7578H4.14062V13.0599H5.44271V11.7578Z" fill="#757575"/>
<path d="M8.04671 11.7578H6.74463V13.0599H8.04671V11.7578Z" fill="#757575"/>
<path d="M10.6512 11.7578H9.34912V13.0599H10.6512V11.7578Z" fill="#757575"/>
<path d="M13.2552 11.7578H11.9531V13.0599H13.2552V11.7578Z" fill="#757575"/>
<path d="M5.44271 14.3621H4.14062V15.6641H5.44271V14.3621Z" fill="#757575"/>
<path d="M8.04671 14.3621H6.74463V15.6641H8.04671V14.3621Z" fill="#757575"/>
<path d="M10.6512 14.3621H9.34912V15.6641H10.6512V14.3621Z" fill="#757575"/>
<path d="M13.2552 14.3621H11.9531V15.6641H13.2552V14.3621Z" fill="#757575"/>
<path d="M15.8592 11.7578H14.5571V13.0599H15.8592V11.7578Z" fill="#757575"/>
</svg>
