<svg width="15" height="16" viewBox="0 0 15 16" fill="none" xmlns="http://www.w3.org/2000/svg">
<path fill-rule="evenodd" clip-rule="evenodd" d="M11.169 2.62374C11.169 1.68166 11.934 0.916656 12.8761 0.916656C13.8182 0.916656 14.5832 1.68166 14.5832 2.62374C14.5832 3.56582 13.8182 4.33082 12.8761 4.33082C11.934 4.33082 11.169 3.56582 11.169 2.62374ZM8.44187 9.95443L10.489 7.31305L10.4606 7.32722C10.574 7.17139 10.5952 6.97305 10.5173 6.79597C10.4401 6.61889 10.2694 6.49847 10.0859 6.4843C9.89396 6.46305 9.70341 6.54805 9.58937 6.70389L7.87592 8.92097L5.91312 7.3768C5.79271 7.28472 5.65104 7.24859 5.50937 7.26347C5.36842 7.28472 5.24092 7.36193 5.15521 7.47526L3.05925 10.2031L3.01604 10.2668C2.89562 10.4928 2.95229 10.7832 3.16479 10.9397C3.26396 11.0035 3.37021 11.046 3.49062 11.046C3.65425 11.0531 3.80937 10.9673 3.90854 10.8335L5.68646 8.54484L7.70521 10.0614L7.76896 10.1032C7.99562 10.2236 8.27896 10.1676 8.44187 9.95443ZM9.94353 2.17768C9.91519 2.35477 9.90103 2.53185 9.90103 2.70893C9.90103 4.30268 11.1902 5.59114 12.7769 5.59114C12.9539 5.59114 13.1239 5.5706 13.301 5.54227V11.2578C13.301 13.6598 11.8844 15.0835 9.47603 15.0835H4.24215C1.83311 15.0835 0.416443 13.6598 0.416443 11.2578V6.01685C0.416443 3.60852 1.83311 2.17768 4.24215 2.17768H9.94353Z" fill="#16379E"/>
</svg>
