<svg width="20" height="20" viewBox="0 0 20 20" fill="none" xmlns="http://www.w3.org/2000/svg">
<path d="M4.25368 4.25172C4.33327 4.17193 4.42782 4.10862 4.53191 4.06543C4.63601 4.02223 4.7476 4 4.8603 4C4.97301 4 5.0846 4.02223 5.1887 4.06543C5.29279 4.10862 5.38734 4.17193 5.46693 4.25172L10.0012 8.78773L14.5355 4.25172C14.6152 4.17206 14.7098 4.10887 14.8138 4.06575C14.9179 4.02264 15.0295 4.00045 15.1421 4.00045C15.2548 4.00045 15.3664 4.02264 15.4705 4.06575C15.5745 4.10887 15.6691 4.17206 15.7488 4.25172C15.8284 4.33139 15.8916 4.42596 15.9347 4.53005C15.9779 4.63413 16 4.74569 16 4.85835C16 4.97101 15.9779 5.08257 15.9347 5.18666C15.8916 5.29074 15.8284 5.38532 15.7488 5.46498L11.2128 9.99927L15.7488 14.5336C15.8284 14.6132 15.8916 14.7078 15.9347 14.8119C15.9779 14.916 16 15.0275 16 15.1402C16 15.2529 15.9779 15.3644 15.9347 15.4685C15.8916 15.5726 15.8284 15.6672 15.7488 15.7468C15.6691 15.8265 15.5745 15.8897 15.4705 15.9328C15.3664 15.9759 15.2548 15.9981 15.1421 15.9981C15.0295 15.9981 14.9179 15.9759 14.8138 15.9328C14.7098 15.8897 14.6152 15.8265 14.5355 15.7468L10.0012 11.2108L5.46693 15.7468C5.38727 15.8265 5.2927 15.8897 5.18861 15.9328C5.08452 15.9759 4.97297 15.9981 4.8603 15.9981C4.74764 15.9981 4.63608 15.9759 4.532 15.9328C4.42791 15.8897 4.33334 15.8265 4.25368 15.7468C4.17401 15.6672 4.11082 15.5726 4.06771 15.4685C4.02459 15.3644 4.0024 15.2529 4.0024 15.1402C4.0024 15.0275 4.02459 14.916 4.06771 14.8119C4.11082 14.7078 4.17401 14.6132 4.25368 14.5336L8.78968 9.99927L4.25368 5.46498C4.17388 5.38539 4.11058 5.29084 4.06738 5.18674C4.02419 5.08265 4.00195 4.97105 4.00195 4.85835C4.00195 4.74565 4.02419 4.63406 4.06738 4.52996C4.11058 4.42586 4.17388 4.33131 4.25368 4.25172Z" fill="black"/>
</svg>
