<svg width="17" height="17" viewBox="0 0 17 17" fill="none" xmlns="http://www.w3.org/2000/svg">
<path fill-rule="evenodd" clip-rule="evenodd" d="M2.42 0.5C1.35961 0.5 0.5 1.35961 0.5 2.42V14.58C0.5 15.6404 1.35961 16.5 2.42 16.5H14.58C15.6404 16.5 16.5 15.6404 16.5 14.58V2.42C16.5 1.35961 15.6404 0.5 14.58 0.5H2.42ZM6.486 11.5525C6.574 11.6112 6.69426 11.6405 6.8468 11.6405C7.01106 11.6405 7.1372 11.6083 7.2252 11.5437C7.31906 11.4733 7.38654 11.3971 7.4276 11.3149C7.46866 11.2328 7.49214 11.1771 7.498 11.1477L8.51 7.86533L9.522 11.1477C9.53374 11.1771 9.5572 11.2328 9.5924 11.3149C9.63346 11.3912 9.70094 11.4645 9.7948 11.5349C9.88866 11.6053 10.0148 11.6405 10.1732 11.6405C10.3375 11.6405 10.4607 11.6112 10.5428 11.5525C10.6308 11.4939 10.6924 11.4293 10.7276 11.3589C10.7687 11.2827 10.7951 11.2269 10.8068 11.1917L12.4612 6.39573C12.5082 6.23147 12.5286 6.09947 12.5228 5.99973C12.5228 5.89414 12.4876 5.80613 12.4172 5.73573C12.3468 5.66533 12.2236 5.59787 12.0476 5.53333C11.8833 5.47467 11.7455 5.4512 11.634 5.46293C11.5284 5.47467 11.4404 5.5216 11.37 5.60374C11.3055 5.68 11.2468 5.80027 11.194 5.96454L10.1028 9.23813L9.17 5.99093C9.1524 5.94987 9.126 5.8912 9.0908 5.81493C9.0556 5.73867 8.99106 5.66827 8.8972 5.60374C8.8092 5.5392 8.67426 5.50693 8.4924 5.50693C8.334 5.50693 8.2108 5.53626 8.1228 5.59493C8.0348 5.6536 7.97026 5.72107 7.9292 5.79733C7.894 5.8736 7.8676 5.94106 7.85 5.99973L6.926 9.22053L5.826 5.95573C5.7732 5.79146 5.7116 5.6712 5.6412 5.59493C5.57666 5.51867 5.4916 5.4776 5.386 5.47173C5.28626 5.46587 5.15426 5.48933 4.99 5.54213C4.73773 5.62427 4.5852 5.72693 4.5324 5.85013C4.4796 5.96747 4.49133 6.14934 4.5676 6.39573L6.222 11.1917C6.23374 11.2211 6.2572 11.2739 6.2924 11.3501C6.33346 11.4264 6.398 11.4939 6.486 11.5525Z" fill="#2684FF"/>
</svg>
