<svg width="17" height="17" viewBox="0 0 17 17" fill="none" xmlns="http://www.w3.org/2000/svg">
<path fill-rule="evenodd" clip-rule="evenodd" d="M2.42 0.5C1.35961 0.5 0.5 1.35961 0.5 2.42V14.58C0.5 15.6404 1.35961 16.5 2.42 16.5H14.58C15.6404 16.5 16.5 15.6404 16.5 14.58V2.42C16.5 1.35961 15.6404 0.5 14.58 0.5H2.42ZM3.44007 10.5933C3.50503 10.6378 3.61262 10.66 3.76284 10.66C3.91306 10.66 4.02065 10.6378 4.08561 10.5933C4.15057 10.5488 4.19117 10.4922 4.20741 10.4235C4.22365 10.3507 4.23177 10.2759 4.23177 10.1991V9.40453H5.01129C5.18182 9.40453 5.35437 9.3742 5.52895 9.31355C5.70353 9.24886 5.8639 9.15586 6.01006 9.03456C6.16028 8.90921 6.28005 8.75354 6.36937 8.56754C6.46275 8.38155 6.50944 8.16523 6.50944 7.91858C6.50944 7.66789 6.46275 7.44955 6.36937 7.26355C6.28005 7.07756 6.16028 6.92188 6.01006 6.79654C5.8639 6.66715 5.70353 6.57213 5.52895 6.51148C5.35843 6.45083 5.18791 6.42051 5.01738 6.42051H3.76893C3.61871 6.42051 3.51112 6.44274 3.44616 6.48722C3.3812 6.5317 3.3406 6.59033 3.32436 6.66311C3.30812 6.73185 3.3 6.80463 3.3 6.88145V10.193C3.3 10.2698 3.30812 10.3446 3.32436 10.4174C3.3406 10.4902 3.37917 10.5488 3.44007 10.5933ZM5.01738 8.48264H4.23177V7.3424H5.01129C5.12498 7.3424 5.22444 7.36666 5.30971 7.41518C5.39902 7.4637 5.46805 7.53041 5.51677 7.61533C5.56549 7.70024 5.58985 7.7993 5.58985 7.91251C5.58985 8.04595 5.55939 8.15512 5.4985 8.24003C5.44166 8.32494 5.36857 8.38762 5.27926 8.42805C5.19399 8.46444 5.1067 8.48264 5.01738 8.48264ZM7.0495 10.5933C7.11446 10.6378 7.21799 10.66 7.36009 10.66H8.44412C8.74456 10.66 9.02064 10.6054 9.27236 10.4962C9.52814 10.3871 9.75144 10.2375 9.94226 10.0474C10.1331 9.85334 10.2813 9.62691 10.3868 9.36813C10.4924 9.10532 10.5452 8.82228 10.5452 8.51902C10.5452 8.21981 10.4924 7.94284 10.3868 7.68811C10.2813 7.43337 10.1331 7.21099 9.94226 7.02095C9.75144 6.83091 9.53017 6.68333 9.27845 6.5782C9.02673 6.47307 8.75471 6.42051 8.46239 6.42051H7.36618C7.21596 6.41646 7.10837 6.43668 7.04341 6.48116C6.97845 6.52563 6.93785 6.58426 6.92161 6.65705C6.90537 6.72578 6.89725 6.79856 6.89725 6.87539V10.193C6.89725 10.2739 6.9074 10.3507 6.9277 10.4235C6.948 10.4922 6.9886 10.5488 7.0495 10.5933ZM8.46239 9.73204H7.82293V7.3424H8.4563C8.6796 7.3424 8.87854 7.39496 9.05312 7.50009C9.2277 7.60118 9.36574 7.7427 9.46724 7.92465C9.56874 8.1066 9.61949 8.31281 9.61949 8.54329C9.61949 8.77376 9.56874 8.97795 9.46724 9.15586C9.36574 9.33377 9.2277 9.47529 9.05312 9.58041C8.87854 9.6815 8.68163 9.73204 8.46239 9.73204ZM11.1663 10.5994C11.2312 10.6398 11.3368 10.66 11.483 10.66C11.6372 10.66 11.7448 10.6398 11.8057 10.5994C11.8707 10.5549 11.9113 10.4983 11.9275 10.4295C11.9438 10.3567 11.9519 10.2819 11.9519 10.2051V8.92539H13.1942C13.2795 8.92539 13.3526 8.91932 13.4135 8.90719C13.4784 8.89506 13.5292 8.86271 13.5657 8.81015C13.6023 8.75354 13.6205 8.66054 13.6205 8.53116C13.6205 8.39772 13.6023 8.3027 13.5657 8.24609C13.5292 8.18949 13.4784 8.15512 13.4135 8.14299C13.3526 8.13086 13.2815 8.12479 13.2003 8.12479H11.9519V7.3424H13.1511C13.2323 7.3424 13.3074 7.33633 13.3764 7.3242C13.4495 7.30803 13.5083 7.2676 13.553 7.2029C13.5977 7.13821 13.62 7.03308 13.62 6.88752C13.62 6.73387 13.5977 6.6247 13.553 6.56C13.5124 6.49531 13.4576 6.45689 13.3886 6.44477C13.3196 6.42859 13.2444 6.42051 13.1633 6.42051H11.5012C11.3226 6.42051 11.1987 6.45285 11.1297 6.51755C11.0607 6.58224 11.0262 6.70354 11.0262 6.88145V10.1991C11.0262 10.2759 11.0323 10.3507 11.0445 10.4235C11.0607 10.4962 11.1013 10.5549 11.1663 10.5994Z" fill="#EA3434"/>
</svg>
