<svg width="20" height="21" viewBox="0 0 20 21" fill="none" xmlns="http://www.w3.org/2000/svg">
<g clip-path="url(#clip0_13044_20489)">
<path d="M10.9122 7.84752L9.99926 5.99799L9.0864 7.84749C9.00877 8.0047 8.85884 8.11365 8.68537 8.13886L6.64453 8.43545L8.12141 9.87497C8.24695 9.99731 8.30423 10.1736 8.27461 10.3464L7.92603 12.379L9.75135 11.4194C9.9065 11.3378 10.0919 11.3378 10.2471 11.4194L12.0726 12.379L11.7238 10.3465C11.6941 10.1737 11.7514 9.99735 11.877 9.87497L13.3538 8.43545L11.3132 8.13886C11.1397 8.11365 10.9898 8.0047 10.9122 7.84752Z" fill="#246AFF"/>
<path d="M17.1329 1.40909H2.86918C1.78899 1.40909 0.910156 2.28789 0.910156 3.36811V15.3496C0.910156 16.4299 1.78899 17.3087 2.86918 17.3087H7.49823L9.62436 19.4349C9.72425 19.5348 9.85973 19.5909 10.001 19.5909C10.1423 19.5909 10.2778 19.5348 10.3777 19.4349L12.5038 17.3087H17.1329C18.2131 17.3087 19.092 16.4299 19.092 15.3496V3.36811C19.092 2.28789 18.2131 1.40909 17.1329 1.40909V1.40909ZM14.8722 8.44496L12.823 10.4423L13.302 13.2337C13.3108 13.2719 13.3153 13.3118 13.3153 13.3527C13.3153 13.6464 13.0776 13.8847 12.7841 13.8854C12.7833 13.8854 12.7826 13.8854 12.7819 13.8854C12.6971 13.8854 12.612 13.8652 12.5341 13.8242L10.0011 12.4926L7.46829 13.8242C7.28885 13.9185 7.07134 13.9028 6.90732 13.7837C6.74329 13.6645 6.66115 13.4625 6.69542 13.2627L7.17905 10.4423L5.12987 8.44492C4.98462 8.30341 4.93239 8.09172 4.99503 7.8989C5.05771 7.70604 5.2244 7.56548 5.42504 7.53636L8.25678 7.12482L9.52337 4.5587C9.61307 4.37688 9.79826 4.26179 10.001 4.26179C10.2037 4.26179 10.3889 4.37688 10.4787 4.55866L11.7453 7.12482L14.5769 7.53636C14.7776 7.56552 14.9443 7.70604 15.0069 7.8989C15.0696 8.09176 15.0174 8.30344 14.8722 8.44496Z" fill="#246AFF"/>
</g>
<defs>
<clipPath id="clip0_13044_20489">
<rect width="18.1818" height="18.1818" fill="white" transform="translate(0.910156 1.40909)"/>
</clipPath>
</defs>
</svg>
