<svg width="30" height="30" viewBox="0 0 30 30" fill="none" xmlns="http://www.w3.org/2000/svg">
<path fill-rule="evenodd" clip-rule="evenodd" d="M15 30C23.2843 30 30 23.2843 30 15C30 6.71573 23.2843 0 15 0C6.71573 0 0 6.71573 0 15C0 23.2843 6.71573 30 15 30Z" fill="#767680" fill-opacity="0.12"/>
<path d="M15.6914 15.5L19.9745 11.2167C20.2533 10.938 20.2533 10.4876 19.9745 10.209C19.6959 9.93035 19.2455 9.93035 18.9668 10.209L14.6835 14.4923L10.4003 10.209C10.1216 9.93035 9.67126 9.93035 9.39265 10.209C9.11391 10.4876 9.11391 10.938 9.39265 11.2167L13.6758 15.5L9.39265 19.7833C9.11391 20.0619 9.11391 20.5124 9.39265 20.791C9.5315 20.93 9.71406 20.9998 9.8965 20.9998C10.0789 20.9998 10.2614 20.93 10.4003 20.791L14.6835 16.5077L18.9668 20.791C19.1058 20.93 19.2883 20.9998 19.4707 20.9998C19.6531 20.9998 19.8356 20.93 19.9745 20.791C20.2533 20.5124 20.2533 20.0619 19.9745 19.7833L15.6914 15.5Z" fill="#828282"/>
</svg>
