<svg width="24" height="25" viewBox="0 0 24 25" fill="none" xmlns="http://www.w3.org/2000/svg">
<g clip-path="url(#clip0_13998_144679)">
<path d="M5 19.5H6.414L15.728 10.186L14.314 8.77202L5 18.086V19.5ZM21 21.5H3V17.257L16.435 3.82202C16.6225 3.63455 16.8768 3.52924 17.142 3.52924C17.4072 3.52924 17.6615 3.63455 17.849 3.82202L20.678 6.65102C20.8655 6.83855 20.9708 7.09286 20.9708 7.35802C20.9708 7.62319 20.8655 7.87749 20.678 8.06502L9.243 19.5H21V21.5ZM15.728 7.35802L17.142 8.77202L18.556 7.35802L17.142 5.94402L15.728 7.35802Z" fill="#0C2E68"/>
</g>
<defs>
<clipPath id="clip0_13998_144679">
<rect width="24" height="24" fill="white" transform="translate(0 0.5)"/>
</clipPath>
</defs>
</svg>
