<svg width="24" height="24" viewBox="0 0 24 24" fill="none" xmlns="http://www.w3.org/2000/svg">
<path d="M14.2245 22.125H4.99536C3.96149 22.125 3.12036 21.2839 3.12036 20.25V6.09375C3.12036 5.05988 3.96149 4.21875 4.99536 4.21875H7.94328V4.6875C7.94328 6.23831 9.20497 7.5 10.7558 7.5C12.3066 7.5 13.5683 6.23831 13.5683 4.6875V4.21875H16.5214C17.5553 4.21875 18.3964 5.05988 18.3964 6.09375V12.9375C18.3964 13.4553 18.8161 13.875 19.3339 13.875C19.8517 13.875 20.2714 13.4553 20.2714 12.9375V6.09375C20.2714 4.026 18.5892 2.34375 16.5214 2.34375H13.5683V0.9375C13.5683 0.419719 13.1486 0 12.6308 0H8.88078C8.363 0 7.94328 0.419719 7.94328 0.9375V2.34375H4.99536C2.92761 2.34375 1.24536 4.026 1.24536 6.09375V20.25C1.24536 22.3177 2.92761 24 4.99536 24H14.2245C14.7423 24 15.162 23.5803 15.162 23.0625C15.162 22.5447 14.7423 22.125 14.2245 22.125ZM9.81824 1.875H11.6932V4.6875C11.6932 5.20444 11.2727 5.625 10.7557 5.625C10.2388 5.625 9.81824 5.20444 9.81824 4.6875V1.875ZM21.9328 19.1995L16.7971 14.0525C16.6881 13.9432 16.5537 13.8624 16.4059 13.8176L12.7157 12.6967C12.3885 12.5972 12.0332 12.684 11.7885 12.9227C11.5438 13.1615 11.4485 13.5145 11.5397 13.844L12.5879 17.628C12.6311 17.7837 12.7138 17.9257 12.8279 18.04L17.9544 23.1762C18.5027 23.7245 19.223 23.9986 19.9432 23.9986C20.6634 23.9986 21.3836 23.7245 21.932 23.1762C23.0286 22.0796 23.0286 20.2954 21.9328 19.1995ZM13.8018 14.9862L15.6359 15.5433L19.1011 19.0163L17.7751 20.3423L14.3292 16.8899L13.8018 14.9862ZM20.6061 21.8504C20.2407 22.216 19.6459 22.216 19.2809 21.8511L19.0997 21.6695L20.4255 20.3437L20.6061 20.5247C20.9717 20.8901 20.9717 21.4849 20.6061 21.8504Z" fill="#3C4043"/>
</svg>
