<svg width="50" height="50" viewBox="0 0 24 24" fill="none" xmlns="http://www.w3.org/2000/svg">
<path d="M2.89963 21.0956L17.0996 6.89561C15.2996 5.09561 12.7996 3.99561 9.99963 3.99561C4.49963 3.99561 -0.000366211 8.4956 -0.000366211 13.9956C-0.000366211 16.7956 1.09963 19.2956 2.89963 21.0956Z" fill="#FD3C65"/>
<path d="M2.89807 21.094C4.69807 22.894 7.19807 23.994 9.99807 23.994C15.4981 23.994 19.9981 19.494 19.9981 13.994C19.9981 11.194 18.8981 8.69404 17.0981 6.89404L2.89807 21.094Z" fill="#FD003A"/>
<path d="M5.09963 18.8956L14.9996 8.99561C13.6996 7.79561 11.8996 6.99561 9.99963 6.99561C6.09963 6.99561 2.99963 10.0956 2.99963 13.9956C2.99963 15.8956 3.79963 17.6956 5.09963 18.8956Z" fill="white"/>
<path d="M5.1012 18.8972C6.4012 20.1972 8.1012 20.9972 10.0012 20.9972C13.9012 20.9972 17.0012 17.8972 17.0012 13.9972C17.0012 12.0972 16.2012 10.2972 14.9012 9.09717L5.1012 18.8972Z" fill="#F0F0F0"/>
<path d="M7.19963 16.7956L12.8996 11.0956C12.0996 10.3956 11.0996 9.99561 9.99963 9.99561C7.79963 9.99561 5.99963 11.7956 5.99963 13.9956C5.99963 15.0956 6.39963 16.0956 7.19963 16.7956Z" fill="#FD3C65"/>
<path d="M7.19885 16.7987C7.89885 17.5987 8.89885 17.9987 9.99885 17.9987C12.1989 17.9987 13.9989 16.1987 13.9989 13.9987C13.9989 12.8987 13.5989 11.8987 12.7989 11.1987L7.19885 16.7987Z" fill="#FD003A"/>
<path d="M9.29963 14.6956L10.6996 13.2956C10.4996 13.0956 10.2996 12.9956 9.99963 12.9956C9.39963 12.9956 8.99963 13.3956 8.99963 13.9956C8.99963 14.2956 9.09963 14.4956 9.29963 14.6956Z" fill="#F0F0F0"/>
<path d="M9.30042 14.6925C9.50042 14.8925 9.70041 14.9925 10.0004 14.9925C10.6004 14.9925 11.0004 14.5925 11.0004 13.9925C11.0004 13.6925 10.9004 13.4925 10.7004 13.2925L9.30042 14.6925Z" fill="#CFD3D4"/>
<path d="M9.60092 14.3956L17.8009 6.19561C17.8009 5.99561 17.6009 5.99561 17.5009 5.99561C17.4009 5.99561 17.2009 5.99561 17.1009 6.09561L9.60092 13.5956C9.41292 13.7836 9.38392 14.1786 9.60092 14.3956Z" fill="#787780"/>
<path d="M9.6012 14.3987C9.8012 14.5987 10.1012 14.5987 10.3012 14.3987L17.8012 6.89873C18.0012 6.69873 18.0012 6.39873 17.8012 6.19873L9.6012 14.3987Z" fill="#57555C"/>
<path d="M17.0996 6.89561L21.8996 2.09561L21.4996 0.395606C21.4996 0.195606 21.2996 0.0956055 21.0996 -0.00439453C20.8996 -0.00439453 20.6996 -0.00439453 20.5996 0.0956055L17.0996 3.59561C17.0996 3.69561 16.9996 3.89561 16.9996 3.99561V6.49561C16.9996 6.59561 17.0996 6.79561 17.0996 6.89561Z" fill="#FEDB41"/>
<path d="M23.6012 2.49717L21.9012 2.09717L17.1012 6.89717C17.2012 6.89717 17.4012 6.99717 17.5012 6.99717H20.0012C20.1012 6.99717 20.3012 6.89717 20.4012 6.89717L23.9012 3.39717C24.0012 3.19717 24.0012 2.99717 24.0012 2.89717C23.9012 2.69717 23.8012 2.59717 23.6012 2.49717Z" fill="#FCBF29"/>
</svg>
