<svg width="24" height="24" viewBox="0 0 24 24" fill="none" xmlns="http://www.w3.org/2000/svg">
<path d="M23.075 3.6916L20.8249 1.44159C20.6055 1.22213 20.2496 1.22185 20.03 1.44132C20.03 1.44146 20.0298 1.44159 20.0296 1.44159L13.2797 8.19173C13.1742 8.29713 13.115 8.4401 13.115 8.58926V10.8394C13.115 11.15 13.3668 11.4018 13.6774 11.4018H15.9275C16.0766 11.4018 16.2196 11.3426 16.325 11.2371L23.075 4.48705C23.2946 4.26758 23.2948 3.91161 23.0754 3.69201C23.0753 3.69201 23.0753 3.69173 23.075 3.6916ZM15.6945 10.2769H14.2399V8.82235L20.4274 2.63484L21.8819 4.08939L15.6945 10.2769Z" fill="white" stroke="white" stroke-width="0.25"/>
<path d="M21.5521 8.02696C21.2416 8.02696 20.9898 8.27877 20.9898 8.58933V16.4643C20.9888 17.3959 20.2338 18.1509 19.3023 18.152H13.6773C13.5555 18.1517 13.437 18.1912 13.3397 18.2644L9.73975 20.9645V18.7145C9.73975 18.4038 9.48794 18.152 9.17725 18.152H3.55225C2.62071 18.1509 1.86571 17.3959 1.86488 16.4645V6.33933C1.86585 5.40793 2.62071 4.65293 3.55225 4.65196H13.6773C13.9879 4.65196 14.2398 4.40016 14.2398 4.08946C14.2398 3.7789 13.9879 3.5271 13.6773 3.5271H3.55225C1.99959 3.52861 0.74126 4.78695 0.739746 6.33933V16.4645C0.74126 18.017 1.99959 19.2753 3.55225 19.277H8.61475V22.0895C8.61475 22.4 8.86655 22.6518 9.17725 22.6518C9.29902 22.6518 9.41736 22.6123 9.51478 22.5394L13.8653 19.2768H19.3023C20.8549 19.2753 22.1131 18.017 22.1148 16.4643V8.58946C22.1148 8.27877 21.8628 8.02696 21.5521 8.02696V8.02696Z" fill="white" stroke="white" stroke-width="0.25"/>
<path d="M10.3021 6.9021H4.67738C4.36655 6.9021 4.11475 7.1539 4.11475 7.4646C4.11475 7.77516 4.36655 8.02696 4.67738 8.02696H10.3021C10.6128 8.02696 10.8647 7.77516 10.8647 7.4646C10.8647 7.1539 10.6128 6.9021 10.3021 6.9021V6.9021Z" fill="white" stroke="white" stroke-width="0.25"/>
<path d="M4.67738 11.4021H10.3021C10.6128 11.4021 10.8647 11.1502 10.8647 10.8396C10.8647 10.5289 10.6128 10.2771 10.3021 10.2771H4.67738C4.36655 10.2771 4.11475 10.5289 4.11475 10.8396C4.11475 11.1502 4.36655 11.4021 4.67738 11.4021V11.4021Z" fill="white" stroke="white" stroke-width="0.25"/>
<path d="M4.67738 14.777H18.1773C18.4879 14.777 18.7396 14.5252 18.7396 14.2145C18.7396 13.9039 18.4878 13.6521 18.1773 13.6521H4.67738C4.36655 13.6521 4.11475 13.9039 4.11475 14.2145C4.11475 14.5252 4.36655 14.777 4.67738 14.777V14.777Z" fill="white" stroke="white" stroke-width="0.25"/>
</svg>
