<svg width="16" height="16" viewBox="0 0 16 16" fill="none" xmlns="http://www.w3.org/2000/svg">
<path fill-rule="evenodd" clip-rule="evenodd" d="M0.685715 3.2L0.685715 14.4C0.685715 15.2837 1.40206 16 2.28571 16H13.7143C14.5979 16 15.3143 15.2837 15.3143 14.4V3.2C15.3143 2.31634 14.5979 1.6 13.7143 1.6L2.28571 1.6C1.40206 1.6 0.685715 2.31634 0.685715 3.2ZM2.28571 5.48571L2.28571 14.4H13.7143V5.48571L2.28571 5.48571Z" fill="#6D7379"/>
<path d="M8 8.91429H11.8857V12.8H8V8.91429Z" fill="#6D7379"/>
<path d="M3.2 0L4.8 0V1.6H3.2V0Z" fill="#6D7379"/>
<path d="M11.2 0L12.8 0V1.6H11.2V0Z" fill="#6D7379"/>
</svg>
