<svg width="17" height="18" viewBox="0 0 17 18" fill="none" xmlns="http://www.w3.org/2000/svg">
<path d="M15.5869 4.2204V12.6425C15.5869 13.3296 15.0273 13.96 14.3402 14.045L14.1207 14.0733C12.959 14.2292 11.3227 14.7108 10.0052 15.2633C9.54482 15.4546 9.03482 15.1075 9.03482 14.6046V4.75165C9.03482 4.48957 9.18357 4.24874 9.41732 4.12124C10.7136 3.41999 12.6757 2.79665 14.0073 2.68332H14.0498C14.8998 2.68332 15.5869 3.3704 15.5869 4.2204Z" fill="#16379E"/>
<path d="M7.58978 4.12124C6.29353 3.41999 4.33145 2.79665 2.99978 2.68332H2.9502C2.1002 2.68332 1.41312 3.3704 1.41312 4.2204V12.6425C1.41312 13.3296 1.9727 13.96 2.65978 14.045L2.87937 14.0733C4.04103 14.2292 5.67728 14.7108 6.99478 15.2633C7.4552 15.4546 7.9652 15.1075 7.9652 14.6046V4.75165C7.9652 4.48249 7.82353 4.24874 7.58978 4.12124ZM3.5452 6.26749H5.13895C5.42937 6.26749 5.6702 6.50832 5.6702 6.79874C5.6702 7.09624 5.42937 7.32999 5.13895 7.32999H3.5452C3.25478 7.32999 3.01395 7.09624 3.01395 6.79874C3.01395 6.50832 3.25478 6.26749 3.5452 6.26749ZM5.6702 9.45499H3.5452C3.25478 9.45499 3.01395 9.22124 3.01395 8.92374C3.01395 8.63332 3.25478 8.39249 3.5452 8.39249H5.6702C5.96062 8.39249 6.20145 8.63332 6.20145 8.92374C6.20145 9.22124 5.96062 9.45499 5.6702 9.45499Z" fill="#16379E"/>
</svg>
