<svg width="56" height="56" viewBox="0 0 56 56" fill="none" xmlns="http://www.w3.org/2000/svg">
<path d="M28 4.66663C15.1433 4.66663 4.66663 15.1433 4.66663 28C4.66663 40.8566 15.1433 51.3333 28 51.3333C40.8566 51.3333 51.3333 40.8566 51.3333 28C51.3333 15.1433 40.8566 4.66663 28 4.66663ZM35.84 33.3666C36.5166 34.0433 36.5166 35.1633 35.84 35.84C35.49 36.19 35.0466 36.3533 34.6033 36.3533C34.16 36.3533 33.7166 36.19 33.3666 35.84L28 30.4733L22.6333 35.84C22.2833 36.19 21.84 36.3533 21.3966 36.3533C20.9533 36.3533 20.51 36.19 20.16 35.84C19.4833 35.1633 19.4833 34.0433 20.16 33.3666L25.5266 28L20.16 22.6333C19.4833 21.9566 19.4833 20.8366 20.16 20.16C20.8366 19.4833 21.9566 19.4833 22.6333 20.16L28 25.5266L33.3666 20.16C34.0433 19.4833 35.1633 19.4833 35.84 20.16C36.5166 20.8366 36.5166 21.9566 35.84 22.6333L30.4733 28L35.84 33.3666Z" fill="#DC322D"/>
</svg>
