<svg width="24" height="22" viewBox="0 0 24 22" fill="none" xmlns="http://www.w3.org/2000/svg">
<path d="M22.0091 7.4022L22.2906 7.12072C22.5991 6.81219 22.5991 6.31016 22.2906 6.00163L21.2916 5.00263C20.983 4.69405 20.481 4.69405 20.1725 5.00263L19.891 5.28406C18.8745 4.5695 17.698 4.06803 16.4267 3.84514V3.06125H17.205C17.6414 3.06125 17.9964 2.70627 17.9964 2.26991V1.78353C17.9964 1.34717 17.6414 0.992188 17.205 0.992188H12.6529C12.2165 0.992188 11.8615 1.34717 11.8615 1.78353V2.26991C11.8615 2.70627 12.2165 3.06125 12.6529 3.06125H13.4312V3.84519C12.1599 4.06808 10.9834 4.56955 9.96689 5.28406L9.68541 5.00258C9.37687 4.69409 8.87484 4.69409 8.56631 5.00258L7.56731 6.00158C7.25873 6.31011 7.25873 6.81214 7.56731 7.12072L7.8488 7.4022C6.86072 8.80784 6.27975 10.5193 6.27975 12.3642C6.27975 17.1334 10.1597 21.0133 14.9289 21.0133C19.698 21.0133 23.5781 17.1334 23.5781 12.3642C23.5781 10.5193 22.9972 8.80784 22.0091 7.4022ZM20.6365 5.46664C20.6892 5.414 20.7749 5.414 20.8275 5.46664L21.8265 6.46559C21.8792 6.51828 21.8792 6.60402 21.8265 6.65666L21.6082 6.87505C21.2508 6.44103 20.8521 6.04231 20.4181 5.68498L20.6365 5.46664ZM12.5178 2.26991V1.78353C12.5178 1.70905 12.5784 1.64844 12.6529 1.64844H17.2051C17.2796 1.64844 17.3402 1.70905 17.3402 1.78353V2.26991C17.3402 2.34439 17.2796 2.405 17.2051 2.405H12.6529C12.5784 2.405 12.5178 2.34439 12.5178 2.26991ZM14.0875 3.06125H15.7705V3.75608C15.4935 3.72922 15.2129 3.71506 14.929 3.71506C14.6451 3.71506 14.3645 3.72922 14.0875 3.75608V3.06125ZM8.03142 6.6567C7.97873 6.60402 7.97873 6.51833 8.03142 6.46564L9.03042 5.46664C9.08311 5.41395 9.16884 5.41395 9.22149 5.46664L9.43987 5.68503C9.00586 6.04236 8.60714 6.44108 8.24981 6.87509L8.03142 6.6567ZM14.929 20.3571C10.5217 20.3571 6.93609 16.7715 6.93609 12.3642C6.93609 7.95692 10.5217 4.37131 14.929 4.37131C19.3363 4.37131 22.9219 7.95688 22.9219 12.3642C22.9219 16.7715 19.3363 20.3571 14.929 20.3571ZM14.929 5.55111C11.1722 5.55111 8.11584 8.60745 8.11584 12.3643C8.11584 16.121 11.1722 19.1773 14.929 19.1773C18.6858 19.1773 21.7421 16.121 21.7421 12.3643C21.7421 8.60745 18.6857 5.55111 14.929 5.55111ZM14.929 18.5211C11.5341 18.5211 8.77209 15.7591 8.77209 12.3643C8.77209 8.96933 11.5341 6.20736 14.929 6.20736C18.3239 6.20736 21.0859 8.96933 21.0859 12.3643C21.0859 15.7591 18.3239 18.5211 14.929 18.5211ZM17.9837 7.72958L17.5188 8.5347C17.4581 8.63999 17.3478 8.69881 17.2344 8.69881C17.1787 8.69881 17.1223 8.68466 17.0706 8.6548C16.9137 8.56419 16.8599 8.36352 16.9505 8.20658L17.4154 7.40145C17.506 7.24452 17.7067 7.1907 17.8636 7.28136C18.0205 7.37197 18.0743 7.57264 17.9837 7.72958ZM18.6384 10.2226C18.5478 10.0656 18.6015 9.86497 18.7585 9.77436L19.5636 9.3095C19.7206 9.21889 19.9212 9.27266 20.0118 9.42959C20.1024 9.58653 20.0487 9.7872 19.8917 9.87781L19.0866 10.3427C19.0349 10.3725 18.9785 10.3867 18.9228 10.3867C18.8095 10.3867 18.6992 10.3279 18.6384 10.2226ZM20.7982 12.3642C20.7982 12.5454 20.6513 12.6923 20.4701 12.6923H19.5404C19.3591 12.6923 19.2122 12.5454 19.2122 12.3642C19.2122 12.183 19.3591 12.0361 19.5404 12.0361H20.4701C20.6513 12.0361 20.7982 12.183 20.7982 12.3642ZM20.0118 15.2988C19.9511 15.4041 19.8408 15.4629 19.7274 15.4629C19.6717 15.4629 19.6153 15.4488 19.5636 15.4189L18.7585 14.954C18.6015 14.8634 18.5478 14.6628 18.6384 14.5058C18.729 14.3488 18.9297 14.2951 19.0866 14.3857L19.8917 14.8506C20.0487 14.9412 20.1025 15.1419 20.0118 15.2988ZM17.9837 16.9989C18.0743 17.1558 18.0205 17.3565 17.8636 17.4471C17.8119 17.477 17.7555 17.4911 17.6998 17.4911C17.5864 17.4911 17.4761 17.4323 17.4154 17.327L16.9505 16.5218C16.8599 16.3649 16.9137 16.1642 17.0706 16.0736C17.2275 15.983 17.4283 16.0368 17.5188 16.1937L17.9837 16.9989ZM15.2571 16.9756V17.9053C15.2571 18.0865 15.1102 18.2334 14.929 18.2334C14.7478 18.2334 14.6009 18.0865 14.6009 17.9053V16.9756C14.6009 16.7944 14.7478 16.6475 14.929 16.6475C15.1102 16.6475 15.2571 16.7944 15.2571 16.9756ZM12.9075 16.5218L12.4426 17.327C12.3818 17.4323 12.2715 17.4911 12.1582 17.4911C12.1025 17.4911 12.0461 17.477 11.9944 17.4471C11.8374 17.3565 11.7837 17.1558 11.8743 16.9989L12.3391 16.1937C12.4298 16.0367 12.6304 15.983 12.7874 16.0736C12.9443 16.1642 12.9981 16.3649 12.9075 16.5218ZM11.2196 14.5058C11.3102 14.6628 11.2564 14.8634 11.0995 14.954L10.2944 15.4189C10.2427 15.4488 10.1863 15.4629 10.1306 15.4629C10.0172 15.4629 9.90689 15.4041 9.84614 15.2988C9.75553 15.1419 9.8093 14.9412 9.96623 14.8506L10.7714 14.3857C10.9283 14.2952 11.129 14.3489 11.2196 14.5058ZM10.3176 12.6923H9.38794C9.20672 12.6923 9.05981 12.5454 9.05981 12.3642C9.05981 12.183 9.20672 12.0361 9.38794 12.0361H10.3176C10.4988 12.0361 10.6457 12.183 10.6457 12.3642C10.6457 12.5454 10.4988 12.6923 10.3176 12.6923ZM11.2196 10.2226C11.1588 10.3279 11.0485 10.3867 10.9351 10.3867C10.8795 10.3867 10.8231 10.3725 10.7714 10.3427L9.96623 9.87781C9.8093 9.7872 9.75553 9.58653 9.84614 9.42959C9.93675 9.27261 10.1375 9.21889 10.2944 9.3095L11.0995 9.77436C11.2564 9.86497 11.3102 10.0656 11.2196 10.2226ZM12.9075 8.20658C12.9981 8.36352 12.9443 8.56419 12.7874 8.6548C12.7357 8.68466 12.6793 8.69881 12.6236 8.69881C12.5102 8.69881 12.3999 8.63999 12.3391 8.5347L11.8743 7.72958C11.7837 7.57264 11.8374 7.37197 11.9944 7.28136C12.1514 7.19075 12.352 7.24452 12.4426 7.40145L12.9075 8.20658ZM15.2571 11.49V9.02127C15.2571 8.84005 15.1102 8.69314 14.929 8.69314C14.7478 8.69314 14.6009 8.84005 14.6009 9.02127V11.49C14.247 11.6233 13.9942 11.9643 13.9942 12.3642C13.9942 12.8796 14.4135 13.299 14.929 13.299C15.4444 13.299 15.8638 12.8796 15.8638 12.3642C15.8638 11.9644 15.6109 11.6233 15.2571 11.49ZM14.929 12.6428C14.7754 12.6428 14.6505 12.5178 14.6505 12.3643C14.6505 12.2107 14.7754 12.0857 14.929 12.0857C15.0825 12.0857 15.2075 12.2106 15.2075 12.3643C15.2075 12.5179 15.0826 12.6428 14.929 12.6428ZM14.6009 7.75283V6.82311C14.6009 6.64189 14.7478 6.49498 14.929 6.49498C15.1102 6.49498 15.2571 6.64189 15.2571 6.82311V7.75283C15.2571 7.93405 15.1102 8.08095 14.929 8.08095C14.7478 8.08095 14.6009 7.93409 14.6009 7.75283ZM1.64733 11.3052C1.64733 11.124 1.79423 10.9771 1.97545 10.9771H5.06461C5.24583 10.9771 5.39273 11.124 5.39273 11.3052C5.39273 11.4864 5.24583 11.6333 5.06461 11.6333H1.97545C1.79423 11.6333 1.64733 11.4864 1.64733 11.3052ZM5.87541 9.18716C5.87541 9.36837 5.7285 9.51528 5.54728 9.51528H2.85291C2.67169 9.51528 2.52478 9.36837 2.52478 9.18716C2.52478 9.00594 2.67169 8.85903 2.85291 8.85903H5.54723C5.7285 8.85903 5.87541 9.00589 5.87541 9.18716ZM5.08303 13.7514H0.75C0.568781 13.7514 0.421875 13.6045 0.421875 13.4233C0.421875 13.242 0.568781 13.0951 0.75 13.0951H5.08303C5.26425 13.0951 5.41116 13.242 5.41116 13.4233C5.41116 13.6045 5.2643 13.7514 5.08303 13.7514ZM5.87541 15.5413C5.87541 15.7225 5.7285 15.8694 5.54728 15.8694H2.673C2.49178 15.8694 2.34487 15.7225 2.34487 15.5413C2.34487 15.3601 2.49178 15.2132 2.673 15.2132H5.54723C5.7285 15.2132 5.87541 15.3601 5.87541 15.5413Z" fill="black"/>
</svg>
