<svg width="17" height="17" viewBox="0 0 17 17" fill="none" xmlns="http://www.w3.org/2000/svg">
<path fill-rule="evenodd" clip-rule="evenodd" d="M2.42 0.5C1.35961 0.5 0.5 1.35961 0.5 2.42V14.58C0.5 15.6404 1.35961 16.5 2.42 16.5H14.58C15.6404 16.5 16.5 15.6404 16.5 14.58V2.42C16.5 1.35961 15.6404 0.5 14.58 0.5H2.42ZM6.37403 10.1409C6.68561 10.5566 6.99794 10.9733 7.2507 10.9733C7.72571 10.9733 8.25088 10.1919 8.78765 9.39319C9.51875 8.30534 10.2714 7.18549 10.948 7.9647C11.3735 8.45492 11.8119 9.52775 12.1982 10.4728C12.3327 10.8019 12.4609 11.1156 12.58 11.3837V11.764C12.58 12.2152 12.2152 12.58 11.764 12.58H5.236C5.01958 12.58 4.81203 12.494 4.659 12.341C4.50597 12.188 4.42 11.9804 4.42 11.764V11.4955C4.57461 11.1489 4.73213 10.7587 4.87479 10.4054C5.01523 10.0575 5.14128 9.74526 5.236 9.5453C5.50388 8.98004 5.93823 9.55951 6.37403 10.1409ZM6.868 5.644C6.868 6.32046 6.32046 6.868 5.644 6.868C4.96754 6.868 4.42 6.32046 4.42 5.644C4.42 4.96754 4.96754 4.42 5.644 4.42C6.32046 4.42 6.868 4.96754 6.868 5.644Z" fill="#FF3093"/>
</svg>
