<svg width="24" height="24" viewBox="0 0 24 24" fill="none" xmlns="http://www.w3.org/2000/svg">
<g clip-path="url(#clip0_9551_86892)">
<path d="M0.9375 16.2647C0.68886 16.2647 0.450403 16.1659 0.274587 15.9901C0.098772 15.8143 0 15.5758 0 15.3272L0 8.67918C0.00138961 7.41294 0.505014 6.19896 1.40038 5.30359C2.29574 4.40822 3.50971 3.90458 4.77595 3.90318H17.375L16.0175 2.54573C15.9304 2.45867 15.8614 2.35532 15.8142 2.24157C15.7671 2.12783 15.7429 2.00592 15.7429 1.8828C15.7429 1.63416 15.8417 1.3957 16.0175 1.21989C16.1933 1.04408 16.4318 0.945308 16.6804 0.945313C16.9291 0.945317 17.1675 1.04409 17.3433 1.21991L20.3011 4.17773C20.477 4.35354 20.5757 4.592 20.5757 4.84063C20.5757 5.08927 20.477 5.32772 20.3011 5.50354L17.2554 8.54924C17.1684 8.6363 17.065 8.70536 16.9513 8.75247C16.8375 8.79959 16.7156 8.82384 16.5925 8.82384C16.4694 8.82384 16.3475 8.79959 16.2337 8.75247C16.12 8.70536 16.0166 8.6363 15.9296 8.54924C15.8425 8.46218 15.7735 8.35883 15.7263 8.24509C15.6792 8.13134 15.655 8.00943 15.655 7.88631C15.655 7.7632 15.6792 7.64128 15.7263 7.52754C15.7735 7.41379 15.8425 7.31044 15.9296 7.22338L17.375 5.77818H4.77595C4.00683 5.77905 3.26946 6.08497 2.72561 6.62883C2.18176 7.17268 1.87586 7.91006 1.875 8.67918V15.3272C1.875 15.5758 1.77623 15.8143 1.60041 15.9901C1.4246 16.1659 1.18614 16.2647 0.9375 16.2647ZM23.0625 7.74168C22.8139 7.74168 22.5754 7.84045 22.3996 8.01627C22.2238 8.19208 22.125 8.43054 22.125 8.67918V15.3272C22.1241 16.0963 21.8182 16.8337 21.2744 17.3775C20.7305 17.9214 19.9932 18.2273 19.224 18.2282H6.62498L8.07028 16.7829C8.15734 16.6959 8.2264 16.5925 8.27351 16.4788C8.32063 16.365 8.34488 16.2431 8.34488 16.12C8.34488 15.9969 8.32063 15.875 8.27351 15.7612C8.2264 15.6475 8.15734 15.5441 8.07028 15.4571C7.98322 15.37 7.87987 15.301 7.76613 15.2538C7.65238 15.2067 7.53047 15.1825 7.40735 15.1825C7.28423 15.1825 7.16232 15.2067 7.04858 15.2538C6.93483 15.301 6.83148 15.37 6.74442 15.4571L3.69872 18.5027C3.61166 18.5897 3.5426 18.6931 3.49548 18.8068C3.44837 18.9206 3.42411 19.0425 3.42411 19.1656C3.42411 19.2887 3.44837 19.4106 3.49548 19.5244C3.5426 19.6381 3.61166 19.7415 3.69872 19.8285L6.65653 22.7864C6.83235 22.9622 7.07081 23.0609 7.31946 23.0609C7.56811 23.0609 7.80657 22.9622 7.98239 22.7864C8.15821 22.6105 8.25698 22.3721 8.25698 22.1234C8.25698 21.8748 8.15821 21.6363 7.98239 21.4605L6.62498 20.1032H19.224C20.4903 20.1018 21.7043 19.5981 22.5996 18.7028C23.495 17.8074 23.9986 16.5934 24 15.3272V8.67918C24 8.43054 23.9012 8.19208 23.7254 8.01627C23.5496 7.84045 23.3111 7.74168 23.0625 7.74168Z" fill="#3C4043"/>
</g>
<defs>
<clipPath id="clip0_9551_86892">
<rect width="24" height="24" fill="white"/>
</clipPath>
</defs>
</svg>
