<svg width="40" height="40" viewBox="0 0 40 40" fill="none" xmlns="http://www.w3.org/2000/svg">
<circle cx="20" cy="20" r="20" fill="#E6ECFF"/>
<path d="M31.1108 13.1662V26.3773C31.1108 27.4551 30.233 28.444 29.1552 28.5773L28.8108 28.6218C26.9886 28.8662 24.4219 29.6218 22.3552 30.4885C21.633 30.7885 20.833 30.244 20.833 29.4551V13.9996C20.833 13.5885 21.0663 13.2107 21.433 13.0107C23.4663 11.9107 26.5441 10.9329 28.633 10.7551H28.6997C30.033 10.7551 31.1108 11.8329 31.1108 13.1662Z" fill="#16379E"/>
<path d="M18.5658 13.0107C16.5325 11.9107 13.4547 10.9329 11.3658 10.7551H11.2881C9.95473 10.7551 8.87695 11.8329 8.87695 13.1662V26.3773C8.87695 27.4551 9.75473 28.444 10.8325 28.5773L11.177 28.6218C12.9992 28.8662 15.5658 29.6218 17.6325 30.4885C18.3547 30.7885 19.1547 30.244 19.1547 29.4551V13.9996C19.1547 13.5773 18.9325 13.2107 18.5658 13.0107ZM12.2214 16.3773H14.7214C15.177 16.3773 15.5547 16.7551 15.5547 17.2107C15.5547 17.6773 15.177 18.044 14.7214 18.044H12.2214C11.7658 18.044 11.3881 17.6773 11.3881 17.2107C11.3881 16.7551 11.7658 16.3773 12.2214 16.3773ZM15.5547 21.3773H12.2214C11.7658 21.3773 11.3881 21.0107 11.3881 20.544C11.3881 20.0885 11.7658 19.7107 12.2214 19.7107H15.5547C16.0103 19.7107 16.3881 20.0885 16.3881 20.544C16.3881 21.0107 16.0103 21.3773 15.5547 21.3773Z" fill="#16379E"/>
</svg>
