<svg width="22" height="22" viewBox="0 0 22 22" fill="none" xmlns="http://www.w3.org/2000/svg">
<path d="M11 0C8.82441 0 6.69767 0.645139 4.88873 1.85383C3.07979 3.06253 1.66989 4.78049 0.83733 6.79048C0.00476611 8.80047 -0.213071 11.0122 0.211367 13.146C0.635804 15.2798 1.68345 17.2398 3.22183 18.7782C4.76021 20.3165 6.72022 21.3642 8.85401 21.7886C10.9878 22.2131 13.1995 21.9952 15.2095 21.1627C17.2195 20.3301 18.9375 18.9202 20.1462 17.1113C21.3549 15.3023 22 13.1756 22 11C22 8.08262 20.8411 5.28472 18.7782 3.22182C16.7153 1.15892 13.9174 0 11 0ZM4.71429 12.5714C4.40349 12.5714 4.09967 12.4793 3.84125 12.3066C3.58283 12.1339 3.38142 11.8885 3.26248 11.6014C3.14354 11.3142 3.11242 10.9983 3.17306 10.6934C3.23369 10.3886 3.38335 10.1086 3.60312 9.88883C3.82289 9.66906 4.10289 9.5194 4.40772 9.45876C4.71255 9.39813 5.02851 9.42925 5.31565 9.54819C5.60279 9.66712 5.84821 9.86854 6.02088 10.127C6.19356 10.3854 6.28572 10.6892 6.28572 11C6.28572 11.4168 6.12016 11.8165 5.82546 12.1112C5.53076 12.4059 5.13106 12.5714 4.71429 12.5714ZM11 12.5714C10.6892 12.5714 10.3854 12.4793 10.127 12.3066C9.86854 12.1339 9.66713 11.8885 9.54819 11.6014C9.42926 11.3142 9.39814 10.9983 9.45877 10.6934C9.5194 10.3886 9.66907 10.1086 9.88884 9.88883C10.1086 9.66906 10.3886 9.5194 10.6934 9.45876C10.9983 9.39813 11.3142 9.42925 11.6014 9.54819C11.8885 9.66712 12.1339 9.86854 12.3066 10.127C12.4793 10.3854 12.5714 10.6892 12.5714 11C12.5714 11.4168 12.4059 11.8165 12.1112 12.1112C11.8165 12.4059 11.4168 12.5714 11 12.5714ZM17.2857 12.5714C16.9749 12.5714 16.6711 12.4793 16.4127 12.3066C16.1543 12.1339 15.9528 11.8885 15.8339 11.6014C15.715 11.3142 15.6838 10.9983 15.7445 10.6934C15.8051 10.3886 15.9548 10.1086 16.1745 9.88883C16.3943 9.66906 16.6743 9.5194 16.9791 9.45876C17.284 9.39813 17.5999 9.42925 17.8871 9.54819C18.1742 9.66712 18.4196 9.86854 18.5923 10.127C18.765 10.3854 18.8571 10.6892 18.8571 11C18.8571 11.4168 18.6916 11.8165 18.3969 12.1112C18.1022 12.4059 17.7025 12.5714 17.2857 12.5714Z" fill="#EB9516"/>
</svg>
