<svg width="24" height="24" viewBox="0 0 24 24" fill="none" xmlns="http://www.w3.org/2000/svg">
<path d="M17.9123 12.5L19.6645 10.7477C19.7785 10.6337 19.7785 10.4495 19.6645 10.3355C19.5505 10.2215 19.3662 10.2215 19.2522 10.3355L17.5 12.0877L15.7478 10.3355C15.6337 10.2215 15.4495 10.2215 15.3355 10.3355C15.2215 10.4495 15.2215 10.6337 15.3355 10.7477L17.0877 12.5L15.3355 14.2522C15.2215 14.3662 15.2215 14.5505 15.3355 14.6645C15.3923 14.7213 15.467 14.7499 15.5416 14.7499C15.6163 14.7499 15.6909 14.7213 15.7478 14.6645L17.5 12.9122L19.2522 14.6645C19.3091 14.7213 19.3837 14.7499 19.4584 14.7499C19.533 14.7499 19.6076 14.7213 19.6645 14.6645C19.7785 14.5505 19.7785 14.3662 19.6645 14.2522L17.9123 12.5Z" fill="#ED3533" stroke="#ED3533" stroke-width="0.225"/>
<path d="M22.7142 12.4286C22.712 11.2144 22.2806 10.0401 21.4964 9.11311C20.7122 8.18615 19.6255 7.56622 18.4285 7.36285V5.14285C18.4286 5.08653 18.4176 5.03074 18.3961 4.97868C18.3747 4.92662 18.3431 4.87929 18.3034 4.83942L14.8748 1.41085C14.8349 1.37108 14.7876 1.33955 14.7355 1.31808C14.6835 1.29661 14.6277 1.28561 14.5714 1.28571H4.28564C4.17198 1.28571 4.06297 1.33086 3.9826 1.41123C3.90223 1.4916 3.85707 1.60061 3.85707 1.71428V3.85714H1.71422C1.60055 3.85714 1.49154 3.90229 1.41117 3.98266C1.3308 4.06303 1.28564 4.17204 1.28564 4.28571V22.2857C1.28564 22.3994 1.3308 22.5084 1.41117 22.5888C1.49154 22.6691 1.60055 22.7143 1.71422 22.7143H16.2856C16.3993 22.7143 16.5083 22.6691 16.5887 22.5888C16.6691 22.5084 16.7142 22.3994 16.7142 22.2857V20.1428H17.9999C18.1136 20.1428 18.2226 20.0977 18.303 20.0173C18.3834 19.937 18.4285 19.8279 18.4285 19.7143V17.4943C19.6255 17.2909 20.7122 16.671 21.4964 15.744C22.2806 14.8171 22.712 13.6428 22.7142 12.4286ZM14.9999 2.74885L16.9654 4.71428H14.9999V2.74885ZM15.8571 21.8571H2.14279V4.71428H3.85707V19.7143C3.85707 19.8279 3.90223 19.937 3.9826 20.0173C4.06297 20.0977 4.17198 20.1428 4.28564 20.1428H15.8571V21.8571ZM17.5714 19.2857H4.71422V2.14285H14.1428V5.14285C14.1428 5.25651 14.1879 5.36552 14.2683 5.4459C14.3487 5.52627 14.4577 5.57142 14.5714 5.57142H17.5714V7.28571C16.2074 7.28571 14.8993 7.82754 13.9348 8.79202C12.9703 9.75649 12.4285 11.0646 12.4285 12.4286C12.4285 13.7925 12.9703 15.1006 13.9348 16.0651C14.8993 17.0296 16.2074 17.5714 17.5714 17.5714V19.2857ZM17.5714 16.7143C16.7237 16.7143 15.8951 16.4629 15.1903 15.992C14.4856 15.5211 13.9363 14.8517 13.6119 14.0686C13.2875 13.2855 13.2026 12.4238 13.368 11.5925C13.5334 10.7611 13.9415 9.99747 14.5409 9.39811C15.1403 8.79874 15.9039 8.39056 16.7353 8.2252C17.5666 8.05983 18.4283 8.1447 19.2114 8.46908C19.9945 8.79346 20.6639 9.34277 21.1348 10.0475C21.6057 10.7523 21.8571 11.5809 21.8571 12.4286C21.8557 13.5648 21.4037 14.6541 20.6003 15.4575C19.7969 16.261 18.7076 16.7129 17.5714 16.7143Z" fill="#ED3533" stroke="#ED3533" stroke-width="0.25"/>
<path d="M8.9999 11.6965L7.67304 13.0285L7.15875 12.5142C7.07839 12.4338 6.96935 12.3885 6.85563 12.3884C6.7419 12.3884 6.6328 12.4335 6.55232 12.5138C6.47185 12.5942 6.42659 12.7032 6.42651 12.8169C6.42643 12.9307 6.47153 13.0398 6.55189 13.1202L7.36875 13.9363C7.44912 14.0166 7.55811 14.0617 7.67175 14.0617C7.78539 14.0617 7.89438 14.0166 7.97475 13.9363L9.60761 12.3077C9.68808 12.2273 9.73334 12.1183 9.73342 12.0046C9.7335 11.8908 9.6884 11.7817 9.60804 11.7012C9.52768 11.6208 9.41864 11.5755 9.30491 11.5754C9.19118 11.5754 9.08208 11.6205 9.00161 11.7008L8.9999 11.6965Z" fill="#ED3533" stroke="#ED3533" stroke-width="0.25"/>
<path d="M8.9999 15.1251L7.67304 16.4571L7.15875 15.9428C7.11896 15.903 7.07171 15.8714 7.0197 15.8498C6.96769 15.8282 6.91194 15.8171 6.85563 15.817C6.79931 15.817 6.74355 15.828 6.69151 15.8496C6.63946 15.8711 6.59217 15.9026 6.55232 15.9424C6.51248 15.9822 6.48086 16.0294 6.45927 16.0815C6.43768 16.1335 6.42655 16.1892 6.42651 16.2455C6.42647 16.3018 6.43753 16.3576 6.45904 16.4097C6.48055 16.4617 6.5121 16.509 6.55189 16.5488L7.36875 17.3648C7.44912 17.4452 7.55811 17.4903 7.67175 17.4903C7.78539 17.4903 7.89438 17.4452 7.97475 17.3648L9.60761 15.7363C9.68808 15.6559 9.73334 15.5469 9.73342 15.4331C9.7335 15.3194 9.6884 15.2103 9.60804 15.1298C9.52768 15.0494 9.41864 15.0041 9.30491 15.004C9.19118 15.0039 9.08208 15.049 9.00161 15.1294L8.9999 15.1251Z" fill="#ED3533" stroke="#ED3533" stroke-width="0.25"/>
<path d="M6.85704 4.71426H11.9999C12.1136 4.71426 12.2226 4.66911 12.3029 4.58873C12.3833 4.50836 12.4285 4.39935 12.4285 4.28569C12.4285 4.17202 12.3833 4.06302 12.3029 3.98264C12.2226 3.90227 12.1136 3.85712 11.9999 3.85712H6.85704C6.74337 3.85712 6.63437 3.90227 6.55399 3.98264C6.47362 4.06302 6.42847 4.17202 6.42847 4.28569C6.42847 4.39935 6.47362 4.50836 6.55399 4.58873C6.63437 4.66911 6.74337 4.71426 6.85704 4.71426Z" fill="#ED3533" stroke="#ED3533" stroke-width="0.25"/>
<path d="M11.9999 6.42859H6.85704C6.74337 6.42859 6.63437 6.47374 6.55399 6.55411C6.47362 6.63449 6.42847 6.7435 6.42847 6.85716C6.42847 6.97082 6.47362 7.07983 6.55399 7.16021C6.63437 7.24058 6.74337 7.28573 6.85704 7.28573H11.9999C12.1136 7.28573 12.2226 7.24058 12.3029 7.16021C12.3833 7.07983 12.4285 6.97082 12.4285 6.85716C12.4285 6.7435 12.3833 6.63449 12.3029 6.55411C12.2226 6.47374 12.1136 6.42859 11.9999 6.42859Z" fill="#ED3533" stroke="#ED3533" stroke-width="0.25"/>
<path d="M9.42847 9H6.85704C6.74337 9 6.63437 9.04515 6.55399 9.12553C6.47362 9.2059 6.42847 9.31491 6.42847 9.42857C6.42847 9.54224 6.47362 9.65124 6.55399 9.73162C6.63437 9.81199 6.74337 9.85714 6.85704 9.85714H9.42847C9.54213 9.85714 9.65114 9.81199 9.73151 9.73162C9.81189 9.65124 9.85704 9.54224 9.85704 9.42857C9.85704 9.31491 9.81189 9.2059 9.73151 9.12553C9.65114 9.04515 9.54213 9 9.42847 9Z" fill="#ED3533" stroke="#ED3533" stroke-width="0.25"/>
</svg>
