<svg width="21" height="21" viewBox="0 0 21 21" fill="none" xmlns="http://www.w3.org/2000/svg">
<path d="M10.5 2.1C12.1614 2.1 13.7854 2.59265 15.1668 3.51565C16.5482 4.43866 17.6248 5.75056 18.2606 7.28546C18.8964 8.82036 19.0627 10.5093 18.7386 12.1388C18.4145 13.7682 17.6145 15.2649 16.4397 16.4397C15.2649 17.6145 13.7682 18.4145 12.1388 18.7386C10.5093 19.0627 8.82036 18.8964 7.28546 18.2606C5.75056 17.6248 4.43866 16.5482 3.51566 15.1668C2.59266 13.7854 2.1 12.1614 2.1 10.5C2.1 8.27218 2.985 6.13561 4.56031 4.5603C6.13561 2.985 8.27218 2.1 10.5 2.1ZM10.5 0.5C8.52219 0.5 6.58879 1.08649 4.9443 2.1853C3.29981 3.28412 2.01809 4.8459 1.26121 6.67316C0.504333 8.50043 0.3063 10.5111 0.692152 12.4509C1.078 14.3907 2.03041 16.1725 3.42894 17.5711C4.82746 18.9696 6.60929 19.922 8.5491 20.3078C10.4889 20.6937 12.4996 20.4957 14.3268 19.7388C16.1541 18.9819 17.7159 17.7002 18.8147 16.0557C19.9135 14.4112 20.5 12.4778 20.5 10.5C20.5 7.84783 19.4464 5.3043 17.5711 3.42893C15.6957 1.55357 13.1522 0.5 10.5 0.5Z" fill="#0B2585"/>
<path d="M14.7 9.69995H6.3C5.85817 9.69995 5.5 10.0581 5.5 10.5C5.5 10.9418 5.85817 11.3 6.3 11.3H14.7C15.1418 11.3 15.5 10.9418 15.5 10.5C15.5 10.0581 15.1418 9.69995 14.7 9.69995Z" fill="#0B2585"/>
<path d="M11.3 6.3C11.3 5.85817 10.9418 5.5 10.5 5.5C10.0581 5.5 9.69995 5.85817 9.69995 6.3V14.7C9.69995 15.1418 10.0581 15.5 10.5 15.5C10.9418 15.5 11.3 15.1418 11.3 14.7V6.3Z" fill="#0B2585"/>
</svg>
