<svg width="32" height="32" viewBox="0 0 32 32" fill="none" xmlns="http://www.w3.org/2000/svg">
<g clip-path="url(#clip0_9105_81102)">
<path d="M27.5935 11.1016H3.22969C2.62819 11.1016 2.14062 11.5891 2.14062 12.1906V15.1161H28.6826V12.1906C28.6826 11.5891 28.195 11.1016 27.5935 11.1016Z" fill="#FFB125"/>
<path d="M18.7469 5.05371L16.5405 27.3899C16.4851 27.9509 15.9853 28.3609 15.4243 28.3054L4.2448 27.2011C3.68374 27.1457 3.2738 26.6459 3.32924 26.0849L5.53562 3.74871C5.59106 3.18765 6.09081 2.77771 6.65187 2.83315L17.8313 3.93746C18.3924 3.9929 18.8023 4.49265 18.7469 5.05371Z" fill="#B6FA4C"/>
<path d="M17.8296 3.93746L6.65013 2.83315C6.08906 2.77771 5.58925 3.18765 5.53388 3.74871L5.33594 5.75265C5.50363 5.66746 5.69638 5.62671 5.8975 5.64659L17.077 6.7509C17.638 6.80634 18.048 7.30609 17.9925 7.86716L15.9841 28.1994C16.2843 28.0468 16.5033 27.7499 16.5388 27.3899L18.7452 5.05378C18.8006 4.49265 18.3907 3.9929 17.8296 3.93746Z" fill="#A8E83A"/>
<path d="M6.71813 6.91447L5.1085 23.2093C5.08544 23.4425 5.19531 23.6698 5.39419 23.7938C5.94231 24.1354 6.36669 24.6481 6.59994 25.25C6.68375 25.4663 6.88406 25.6155 7.11488 25.6383L12.9103 26.2108C13.1411 26.2336 13.3667 26.1265 13.4913 25.9308C13.8378 25.3861 14.3543 24.9664 14.9586 24.7386C15.178 24.6559 15.3301 24.4544 15.3531 24.2213L16.9628 7.92648C16.9858 7.69323 16.876 7.46591 16.6771 7.34197C16.129 7.00029 15.7046 6.4876 15.4713 5.88572C15.3875 5.66941 15.1872 5.52022 14.9564 5.49741L9.16101 4.92491C8.93013 4.90209 8.70457 5.00922 8.58001 5.20497C8.2335 5.7496 7.717 6.16928 7.11263 6.39716C6.89331 6.47985 6.74113 6.68122 6.71813 6.91447Z" fill="#77DD00"/>
<path d="M16.6804 7.34197C16.1322 7.00029 15.7079 6.4876 15.4746 5.88572C15.3908 5.66941 15.1905 5.52022 14.9597 5.49741L9.16429 4.92491C8.93341 4.90209 8.70785 5.00922 8.58328 5.20497C8.23678 5.7496 7.72028 6.16928 7.11591 6.39716C6.89659 6.47985 6.74447 6.68129 6.72141 6.91447L6.66016 7.53479L14.1694 8.25341C14.4002 8.27623 14.6005 8.42541 14.6843 8.64173C14.9175 9.2436 15.3419 9.75623 15.89 10.098C16.0889 10.222 16.1987 10.4493 16.1757 10.6825L14.7797 24.8149C14.8396 24.7876 14.9002 24.7619 14.962 24.7386C15.1813 24.6559 15.3335 24.4544 15.3565 24.2213L16.9661 7.92648C16.989 7.69329 16.8792 7.46597 16.6804 7.34197Z" fill="#73CC00"/>
<path d="M28.2249 8.37527L15.5853 26.9228C15.2678 27.3887 14.6327 27.509 14.1668 27.1915L4.88356 20.8652C4.41762 20.5477 4.29737 19.9127 4.61488 19.4467L17.2545 0.899188C17.572 0.43325 18.2071 0.313 18.673 0.6305L27.9562 6.95676C28.4221 7.27426 28.5424 7.90933 28.2249 8.37527Z" fill="#B6FA4C"/>
<path d="M27.9565 6.95681L18.6732 0.630484C18.2073 0.312983 17.5722 0.433296 17.2547 0.899172L16.1736 2.48574C16.2674 2.51511 16.3586 2.5583 16.4441 2.61649L25.7273 8.94275C26.1932 9.26025 26.3135 9.89531 25.996 10.3613L14.4375 27.3223C14.8553 27.453 15.3263 27.3032 15.5855 26.9228L28.2252 8.37525C28.5427 7.90937 28.4223 7.27431 27.9565 6.95681Z" fill="#A8E83A"/>
<path d="M16.7782 4.2464L7.55724 17.7773C7.42524 17.971 7.41274 18.2231 7.52787 18.4272C7.84524 18.9898 7.97206 19.6432 7.88837 20.2832C7.85831 20.5132 7.96256 20.7401 8.15424 20.8708L12.9666 24.1503C13.1583 24.2809 13.4077 24.295 13.6108 24.1829C14.1758 23.8709 14.8303 23.75 15.4699 23.8396C15.7021 23.8721 15.9321 23.7683 16.0641 23.5746L25.2851 10.0437C25.4171 9.84998 25.4296 9.59785 25.3145 9.39372C24.9971 8.83116 24.8703 8.17778 24.954 7.53778C24.984 7.30778 24.8798 7.08085 24.6881 6.95016L19.8757 3.67065C19.684 3.54003 19.4346 3.52596 19.2316 3.63809C18.6665 3.95009 18.012 4.07096 17.3724 3.98134C17.1403 3.94884 16.9101 4.05271 16.7782 4.2464Z" fill="#77DD00"/>
<path d="M25.3147 9.39372C24.9973 8.83116 24.8705 8.17785 24.9542 7.53778C24.9842 7.30778 24.88 7.08085 24.6883 6.95016L19.8759 3.67065C19.6842 3.54003 19.4349 3.52596 19.2318 3.63809C18.6667 3.95009 18.0123 4.07096 17.3726 3.98134C17.1405 3.94884 16.9104 4.05271 16.7784 4.2464L16.3941 4.81034L22.4085 8.86447C22.6002 8.9951 22.7045 9.22204 22.6744 9.4521C22.5907 10.0922 22.7175 10.7455 23.0349 11.308C23.15 11.5122 23.1375 11.7643 23.0055 11.958L14.9258 23.8143C15.1069 23.8063 15.2892 23.8142 15.4702 23.8396C15.7023 23.8721 15.9324 23.7682 16.0644 23.5746L25.2854 10.0437C25.4173 9.84998 25.4299 9.59785 25.3147 9.39372Z" fill="#73CC00"/>
<path d="M17.8337 15.9643C19.6576 15.9643 21.1361 14.4857 21.1361 12.6618C21.1361 10.8379 19.6576 9.35938 17.8337 9.35938C16.0098 9.35938 14.5312 10.8379 14.5312 12.6618C14.5312 14.4857 16.0098 15.9643 17.8337 15.9643Z" fill="#B6FA4C"/>
<path d="M27.9694 31.5441H2.52766C1.66022 31.5441 0.957031 30.8409 0.957031 29.9735V14.43C0.957031 13.5626 1.66022 12.8594 2.52766 12.8594H27.9694C28.8368 12.8594 29.54 13.5626 29.54 14.43V29.9735C29.5401 30.8408 28.8368 31.5441 27.9694 31.5441Z" fill="#FFB125"/>
<path d="M27.9707 12.8594H25.1133C25.9807 12.8594 26.6839 13.5626 26.6839 14.4301V29.9735C26.6839 30.841 25.9807 31.5442 25.1133 31.5442H27.9707C28.8381 31.5442 29.5413 30.841 29.5413 29.9735V14.4301C29.5414 13.5626 28.8381 12.8594 27.9707 12.8594Z" fill="#FF901D"/>
<path d="M30.4747 19.2031H24.7484C23.0903 19.2031 21.7461 20.5473 21.7461 22.2054C21.7461 23.8636 23.0903 25.2078 24.7484 25.2078H30.4747C30.789 25.2078 31.0437 24.9529 31.0437 24.6387V19.7721C31.0437 19.4579 30.7889 19.2031 30.4747 19.2031Z" fill="#FF6D3A"/>
<path d="M30.4746 19.2031H27.6071C27.9214 19.2031 28.1762 19.4579 28.1762 19.7722V23.8714C28.1762 24.2066 27.9044 24.4783 27.5693 24.4783H24.7484C23.2138 24.4783 21.949 23.3267 21.7689 21.8407C21.7544 21.9603 21.7461 22.0819 21.7461 22.2054C21.7461 23.8636 23.0903 25.2078 24.7485 25.2078H27.6072H30.4747C30.789 25.2078 31.0437 24.9531 31.0437 24.6388V23.9092V19.7722C31.0437 19.4579 30.7889 19.2031 30.4746 19.2031Z" fill="#ED5729"/>
<path d="M27.9694 12.8594H2.52766C1.66022 12.8594 0.957031 13.5626 0.957031 14.43V16.1512H29.5401V14.43C29.5401 13.5626 28.8368 12.8594 27.9694 12.8594Z" fill="#FF6D3A"/>
<path d="M29.273 13.5519C29.2166 13.4684 29.1523 13.3906 29.0812 13.3195C29.0804 13.3187 29.0795 13.3179 29.0787 13.3171C29.0083 13.247 28.9314 13.1835 28.8487 13.1277C28.8279 13.1136 28.8066 13.0999 28.785 13.0868C28.7529 13.0673 28.7197 13.0493 28.6862 13.0321C28.6644 13.0209 28.6424 13.0102 28.62 13.0001C28.422 12.91 28.2023 12.8594 27.9705 12.8594H25.1133C25.9807 12.8594 26.6838 13.5626 26.6838 14.4301V16.1513H29.5412V14.4301C29.5412 14.1591 29.4725 13.904 29.3516 13.6814C29.3275 13.6369 29.3012 13.5937 29.273 13.5519Z" fill="#ED5729"/>
<path d="M2.52772 31.5418H27.9695C28.8369 31.5418 29.5401 30.8386 29.5401 29.9712V28.25H0.957031V29.9712C0.957031 30.8386 1.66028 31.5418 2.52772 31.5418Z" fill="#FF6D3A"/>
<path d="M26.6827 28.25V29.9712C26.6827 29.9721 26.6827 29.973 26.6827 29.9739C26.6825 30.1189 26.561 30.2348 26.416 30.2348H2.52766C1.66022 30.2348 0.957031 29.5316 0.957031 28.6641V29.9713C0.957031 30.8387 1.66022 31.5419 2.52766 31.5419H25.1121H27.9695C28.0005 31.5419 28.0312 31.5408 28.0618 31.5389C28.0713 31.5384 28.0808 31.5375 28.0903 31.5368C28.1116 31.5351 28.1328 31.5332 28.1538 31.5307C28.1643 31.5295 28.1747 31.5281 28.1851 31.5267C28.2061 31.5238 28.2268 31.5204 28.2475 31.5168C28.2567 31.5151 28.2659 31.5136 28.275 31.5118C28.3043 31.5061 28.3333 31.4997 28.3618 31.4924C28.3618 31.4924 28.3619 31.4924 28.362 31.4924C28.3745 31.4891 28.3868 31.4853 28.3992 31.4818C28.4613 31.4642 28.5221 31.4433 28.5808 31.4184C28.6043 31.4085 28.6275 31.398 28.6503 31.387C28.6732 31.376 28.6958 31.3644 28.7181 31.3523L28.7181 31.3523C28.7626 31.3281 28.8058 31.3019 28.8475 31.2737L28.8476 31.2736L28.8476 31.2736C28.8832 31.2496 28.9175 31.2238 28.9508 31.1971C28.9524 31.1958 28.954 31.1946 28.9556 31.1933C28.9894 31.166 29.022 31.1372 29.0534 31.1072C29.0904 31.0719 29.1256 31.0348 29.1591 30.9961V30.996C29.2113 30.9354 29.2591 30.8709 29.3017 30.8028C29.3029 30.8009 29.3041 30.7991 29.3052 30.7973C29.3209 30.7719 29.3361 30.7463 29.3503 30.7201C29.3503 30.72 29.3504 30.7199 29.3505 30.7199V30.7198C29.3884 30.6499 29.421 30.5767 29.4482 30.5009C29.4513 30.4923 29.4541 30.4834 29.4571 30.4748C29.4636 30.4554 29.4699 30.4359 29.4757 30.4161C29.4786 30.4061 29.4815 30.3961 29.4843 30.386C29.4896 30.3662 29.4946 30.3462 29.4993 30.3261C29.5014 30.3169 29.5037 30.3078 29.5056 30.2986C29.5118 30.2696 29.5173 30.2404 29.5219 30.2109C29.5219 30.2107 29.522 30.2106 29.522 30.2104C29.522 30.2103 29.522 30.2102 29.522 30.2101C29.5272 30.1756 29.531 30.1406 29.5339 30.1054C29.5346 30.0965 29.5353 30.0876 29.536 30.0787C29.5383 30.0431 29.54 30.0074 29.54 29.9713V28.6642V28.2501H26.6827V28.25Z" fill="#ED5729"/>
<path d="M24.8549 23.5927C25.6248 23.5927 26.2489 22.9686 26.2489 22.1987C26.2489 21.4288 25.6248 20.8047 24.8549 20.8047C24.0851 20.8047 23.4609 21.4288 23.4609 22.1987C23.4609 22.9686 24.0851 23.5927 24.8549 23.5927Z" fill="#F2F2F2"/>
<path d="M30.4739 18.7434H29.9951V16.1512V14.43C29.9951 13.7471 29.6552 13.1425 29.1361 12.7751V12.1878C29.1361 11.3359 28.4431 10.6428 27.5911 10.6428H27.2336L28.6016 8.63531C29.0602 7.96244 28.8858 7.04187 28.2129 6.58325L18.9297 0.256922C18.6038 0.0347342 18.2109 -0.047266 17.8232 0.0262966C17.4356 0.0997343 17.0998 0.319672 16.8777 0.645673L8.86508 12.4034H6.63539L7.17333 6.95775C7.17939 6.89637 7.21926 6.84319 7.27489 6.82225C7.96795 6.56094 8.56858 6.07293 8.96608 5.44818C8.99739 5.39899 9.05646 5.37087 9.11758 5.37706L12.6148 5.72256C12.8655 5.74687 13.0886 5.56425 13.1133 5.31362C13.1381 5.06299 12.955 4.83981 12.7044 4.81506L9.20721 4.46956C8.80127 4.42981 8.41414 4.61687 8.19664 4.95862C7.90439 5.41799 7.46276 5.77675 6.9532 5.96887C6.56964 6.1135 6.30626 6.458 6.26576 6.86806L5.71901 12.4033H5.13757L5.98832 3.79055C6.01895 3.48055 6.29564 3.2528 6.60601 3.28387L13.6732 3.98199C13.9238 4.00618 14.147 3.82368 14.1717 3.57305C14.1965 3.32243 14.0134 3.09924 13.7628 3.07449L6.69564 2.37636C5.88539 2.29643 5.16082 2.89049 5.08076 3.70087L4.39501 10.6428H3.22719C2.37532 10.6428 1.68219 11.3358 1.68219 12.1878V12.5884C0.985251 12.9093 0.5 13.6138 0.5 14.43V16.1511V28.2522V29.9734C0.5 31.0909 1.40913 32 2.52669 32H27.9684C29.0859 32 29.9951 31.0909 29.9951 29.9734V28.2522V25.66H30.4739C31.0392 25.66 31.499 25.2002 31.499 24.635V19.7685C31.4991 19.2032 31.0392 18.7434 30.4739 18.7434ZM27.5911 11.5547C27.9402 11.5547 28.2242 11.8387 28.2242 12.1878V12.4201C28.1403 12.4095 28.0551 12.4034 27.9684 12.4034H26.0337L26.6121 11.5548H27.5911V11.5547ZM17.6312 1.15917C17.7162 1.03449 17.8447 0.950361 17.9929 0.922236C18.0283 0.915548 18.0639 0.912173 18.0992 0.912173C18.2115 0.912173 18.3213 0.945799 18.4162 1.01042L27.6994 7.33669C27.9567 7.51212 28.0235 7.86425 27.8481 8.12162L24.9302 12.4033H24.23L25.6606 10.3041C25.8926 9.96363 25.9117 9.53038 25.7103 9.17331C25.4427 8.69894 25.3342 8.14038 25.4048 7.60044C25.4573 7.19875 25.2806 6.80662 24.9436 6.577L20.1312 3.29749C19.7941 3.0678 19.3645 3.04674 19.0099 3.24255C18.5333 3.50568 17.9737 3.60899 17.4343 3.53349C17.0343 3.47737 16.6287 3.65799 16.4001 3.9933L10.6689 12.4033H9.96864L17.6312 1.15917ZM17.832 8.90238C15.8463 8.90238 14.2163 10.4507 14.0835 12.4033H11.7723L17.1535 4.50687C17.1536 4.50687 17.1536 4.50687 17.1536 4.50687C17.1842 4.46193 17.2348 4.43518 17.2869 4.43518C17.2938 4.43518 17.3008 4.43568 17.3077 4.43662C18.0413 4.53924 18.8023 4.39887 19.4505 4.04093C19.5015 4.01268 19.567 4.01674 19.6175 4.05112L24.43 7.33069C24.4804 7.36506 24.508 7.42456 24.5005 7.48231C24.4045 8.21663 24.5521 8.97625 24.916 9.62138C24.9452 9.67319 24.9417 9.73957 24.907 9.7905L23.1265 12.4033H21.5807C21.4478 10.4507 19.8179 8.90238 17.832 8.90238ZM20.6663 12.4034H14.9978C15.1285 10.9541 16.3493 9.81438 17.832 9.81438C19.3148 9.81432 20.5357 10.9541 20.6663 12.4034ZM2.59413 12.1878C2.59413 11.8386 2.87807 11.5546 3.22719 11.5546H4.30495L4.22113 12.4033H2.59413V12.1878ZM1.41194 14.43C1.41194 13.8153 1.912 13.3153 2.52669 13.3153H27.9684C28.5831 13.3153 29.0831 13.8153 29.0831 14.43V15.6952H1.41194V14.43ZM29.0831 27.7963H6.79045C6.53857 27.7963 6.33451 28.0004 6.33451 28.2522C6.33451 28.504 6.53864 28.7082 6.79045 28.7082H29.0831V29.9734C29.0831 30.588 28.5831 31.0881 27.9684 31.0881H2.52669C1.912 31.0881 1.41194 30.588 1.41194 29.9734V28.7082H3.87082C4.12269 28.7082 4.32676 28.504 4.32676 28.2522C4.32676 28.0004 4.12263 27.7963 3.87082 27.7963H1.41194V16.6071H29.0831V18.7434H24.7477H24.7477C23.3817 18.7434 22.1984 19.5396 21.6369 20.6922C21.635 20.6961 21.6329 20.6998 21.6309 20.7037C21.6262 20.7135 21.622 20.7237 21.6174 20.7336C21.5505 20.8757 21.4924 21.0227 21.4451 21.1745C21.445 21.1749 21.4449 21.1753 21.4447 21.1757C21.3438 21.5 21.2894 21.8446 21.2894 22.2017C21.2894 24.1087 22.8407 25.66 24.7476 25.66H24.7477H29.0831V27.7963H29.0831ZM30.5871 24.635C30.5871 24.6973 30.5364 24.7481 30.4739 24.7481H29.5391H24.7477C23.7824 24.7481 22.9408 24.2082 22.5091 23.4145C22.4895 23.3784 22.4707 23.3418 22.4528 23.3047C22.417 23.2305 22.3847 23.1543 22.3561 23.0763C22.256 22.8035 22.2014 22.5088 22.2014 22.2017C22.2014 21.8946 22.256 21.6 22.3561 21.3271C22.3847 21.2492 22.417 21.173 22.4528 21.0987C22.4707 21.0617 22.4895 21.025 22.5091 20.989C22.9408 20.1953 23.7824 19.6553 24.7477 19.6553H29.5391H30.4739C30.5363 19.6553 30.5871 19.7061 30.5871 19.7685V24.635Z" fill="black"/>
<path d="M24.8539 20.3516C23.8338 20.3516 23.0039 21.1815 23.0039 22.2016C23.0039 23.2216 23.8338 24.0515 24.8539 24.0515C25.874 24.0515 26.7039 23.2216 26.7039 22.2016C26.7039 21.1815 25.874 20.3516 24.8539 20.3516ZM24.8539 23.1396C24.3367 23.1396 23.9158 22.7188 23.9158 22.2016C23.9158 21.6844 24.3367 21.2635 24.8539 21.2635C25.3712 21.2635 25.792 21.6843 25.792 22.2016C25.792 22.7188 25.3712 23.1396 24.8539 23.1396Z" fill="black"/>
</g>
<defs>
<clipPath id="clip0_9105_81102">
<rect width="32" height="32" fill="white"/>
</clipPath>
</defs>
</svg>
