<svg width="20" height="21" viewBox="0 0 20 21" fill="none" xmlns="http://www.w3.org/2000/svg">
<g clip-path="url(#clip0_14156_146337)">
<path d="M15.8333 10.5384C15.3725 10.5384 15 10.9118 15 11.3717V18.0384C15 18.4976 14.6266 18.8717 14.1667 18.8717H2.5C2.03995 18.8717 1.66672 18.4976 1.66672 18.0384V6.3717C1.66672 5.91257 2.03995 5.53842 2.5 5.53842H9.16672C9.62753 5.53842 10 5.16504 10 4.70514C10 4.24509 9.62753 3.8717 9.16672 3.8717H2.5C1.12167 3.8717 0 4.99338 0 6.3717V18.0384C0 19.4167 1.12167 20.5384 2.5 20.5384H14.1667C15.545 20.5384 16.6667 19.4167 16.6667 18.0384V11.3717C16.6667 10.9109 16.2941 10.5384 15.8333 10.5384Z" fill="#102677"/>
<path d="M7.81344 9.7793C7.75515 9.83759 7.71594 9.91174 7.6993 9.9917L7.11016 12.9385C7.0827 13.075 7.12603 13.2159 7.2243 13.3151C7.30349 13.3943 7.41015 13.4367 7.5194 13.4367C7.54595 13.4367 7.57357 13.4342 7.60104 13.4284L10.5469 12.8393C10.6285 12.8225 10.7027 12.7834 10.7602 12.725L17.3535 6.13168L14.4077 3.18597L7.81344 9.7793Z" fill="#102677"/>
<path d="M19.3901 1.14852C18.5778 0.335991 17.256 0.335991 16.4443 1.14852L15.291 2.30178L18.2369 5.24764L19.3901 4.09423C19.7835 3.70177 20.0002 3.1784 20.0002 2.62176C20.0002 2.06512 19.7835 1.54174 19.3901 1.14852Z" fill="#102677"/>
</g>
<defs>
<clipPath id="clip0_14156_146337">
<rect width="20" height="20" fill="white" transform="translate(0 0.5)"/>
</clipPath>
</defs>
</svg>
