<svg width="24" height="24" viewBox="0 0 24 24" fill="none" xmlns="http://www.w3.org/2000/svg">
<path d="M21.3281 16.5C21.8459 16.5 22.2656 16.0803 22.2656 15.5625V3.75C22.2656 1.68225 20.5834 0 18.5156 0H5.48438C3.41663 0 1.73438 1.68225 1.73438 3.75V20.25C1.73438 22.3177 3.41663 24 5.48438 24H18.5156C20.5834 24 22.2656 22.3177 22.2656 20.25C22.2656 19.7322 21.8459 19.3125 21.3281 19.3125C20.8103 19.3125 20.3906 19.7322 20.3906 20.25C20.3906 21.2839 19.5495 22.125 18.5156 22.125H5.48438C4.4505 22.125 3.60938 21.2839 3.60938 20.25V9.375H20.3906V15.5625C20.3906 16.0803 20.8103 16.5 21.3281 16.5ZM3.60938 7.5V3.75C3.60938 2.71613 4.4505 1.875 5.48438 1.875H18.5156C19.5495 1.875 20.3906 2.71613 20.3906 3.75V7.5H3.60938ZM17.5781 11.25C18.0959 11.25 18.5156 11.6697 18.5156 12.1875V19.3125C18.5156 19.8303 18.0959 20.25 17.5781 20.25C17.0603 20.25 16.6406 19.8303 16.6406 19.3125V12.1875C16.6406 11.6697 17.0603 11.25 17.5781 11.25ZM7.41 12.1875C7.41 12.7053 6.93966 13.125 6.42188 13.125C5.90409 13.125 5.48438 12.7053 5.48438 12.1875C5.48438 11.6697 5.90409 11.25 6.42188 11.25C6.93966 11.25 7.41 11.6697 7.41 12.1875ZM11.1094 12.1875C11.1094 12.7053 10.6897 13.125 10.1719 13.125C9.65409 13.125 9.23438 12.7053 9.23438 12.1875C9.23438 11.6697 9.65409 11.25 10.1719 11.25C10.6897 11.25 11.1094 11.6697 11.1094 12.1875ZM14.8125 12.1875C14.8125 12.7053 14.3928 13.125 13.875 13.125C13.3572 13.125 12.9375 12.7053 12.9375 12.1875C12.9375 11.6697 13.3572 11.25 13.875 11.25C14.3928 11.25 14.8125 11.6697 14.8125 12.1875ZM7.40625 15.75C7.40625 16.2678 6.93966 16.6875 6.42188 16.6875C5.90409 16.6875 5.48438 16.2678 5.48438 15.75C5.48438 15.2322 5.90409 14.8125 6.42188 14.8125C6.93966 14.8125 7.40625 15.2322 7.40625 15.75ZM11.1094 15.75C11.1094 16.2678 10.6897 16.6875 10.1719 16.6875C9.65409 16.6875 9.23438 16.2678 9.23438 15.75C9.23438 15.2322 9.65409 14.8125 10.1719 14.8125C10.6897 14.8125 11.1094 15.2322 11.1094 15.75ZM7.40625 19.3125C7.40625 19.8303 6.93966 20.25 6.42188 20.25C5.90409 20.25 5.48438 19.8303 5.48438 19.3125C5.48438 18.7947 5.90409 18.375 6.42188 18.375C6.93966 18.375 7.40625 18.7947 7.40625 19.3125ZM11.1094 19.3125C11.1094 19.8303 10.6897 20.25 10.1719 20.25C9.65409 20.25 9.23438 19.8303 9.23438 19.3125C9.23438 18.7947 9.65409 18.375 10.1719 18.375C10.6897 18.375 11.1094 18.7947 11.1094 19.3125ZM14.8125 15.75C14.8125 16.2678 14.3928 16.6875 13.875 16.6875C13.3572 16.6875 12.9375 16.2678 12.9375 15.75C12.9375 15.2322 13.3572 14.8125 13.875 14.8125C14.3928 14.8125 14.8125 15.2322 14.8125 15.75ZM14.8125 19.3125C14.8125 19.8303 14.3928 20.25 13.875 20.25C13.3572 20.25 12.9375 19.8303 12.9375 19.3125C12.9375 18.7947 13.3572 18.375 13.875 18.375C14.3928 18.375 14.8125 18.7947 14.8125 19.3125ZM10.6406 4.6875C10.6406 5.20528 10.2209 5.625 9.70312 5.625H6.42188C5.90409 5.625 5.48438 5.20528 5.48438 4.6875C5.48438 4.16972 5.90409 3.75 6.42188 3.75H9.70312C10.2209 3.75 10.6406 4.16972 10.6406 4.6875Z" fill="white"/>
</svg>
