<svg width="24" height="25" viewBox="0 0 24 25" fill="none" xmlns="http://www.w3.org/2000/svg">
<path d="M12 4.1C13.6614 4.1 15.2854 4.59265 16.6668 5.51565C18.0482 6.43866 19.1248 7.75056 19.7606 9.28546C20.3964 10.8204 20.5627 12.5093 20.2386 14.1388C19.9145 15.7682 19.1145 17.2649 17.9397 18.4397C16.7649 19.6145 15.2682 20.4145 13.6388 20.7386C12.0093 21.0627 10.3204 20.8964 8.78546 20.2606C7.25056 19.6248 5.93866 18.5482 5.01566 17.1668C4.09266 15.7854 3.6 14.1614 3.6 12.5C3.6 10.2722 4.485 8.13561 6.06031 6.5603C7.63561 4.985 9.77218 4.1 12 4.1ZM12 2.5C10.0222 2.5 8.08879 3.08649 6.4443 4.1853C4.79981 5.28412 3.51809 6.8459 2.76121 8.67316C2.00433 10.5004 1.8063 12.5111 2.19215 14.4509C2.578 16.3907 3.53041 18.1725 4.92894 19.5711C6.32746 20.9696 8.10929 21.922 10.0491 22.3078C11.9889 22.6937 13.9996 22.4957 15.8268 21.7388C17.6541 20.9819 19.2159 19.7002 20.3147 18.0557C21.4135 16.4112 22 14.4778 22 12.5C22 9.84783 20.9464 7.3043 19.0711 5.42893C17.1957 3.55357 14.6522 2.5 12 2.5Z" fill="#0B2585"/>
<path d="M16.2 11.7001H7.8C7.35817 11.7001 7 12.0582 7 12.5001C7 12.9419 7.35817 13.3001 7.8 13.3001H16.2C16.6418 13.3001 17 12.9419 17 12.5001C17 12.0582 16.6418 11.7001 16.2 11.7001Z" fill="#0B2585"/>
<path d="M12.8 8.3C12.8 7.85817 12.4418 7.5 12 7.5C11.5582 7.5 11.2 7.85817 11.2 8.3V16.7C11.2 17.1418 11.5582 17.5 12 17.5C12.4418 17.5 12.8 17.1418 12.8 16.7V8.3Z" fill="#0B2585"/>
</svg>
