<svg width="18" height="24" viewBox="0 0 18 24" fill="none" xmlns="http://www.w3.org/2000/svg">
<path d="M9 -0.00317383C4.34522 -0.00317383 0.5625 3.77964 0.5625 8.43433C0.5625 10.0093 0.998531 11.5422 1.82817 12.8641L8.42803 23.6647C8.54063 23.8475 8.70938 23.9601 8.9063 23.9882C9.17339 24.0303 9.46884 23.9179 9.62348 23.6507L16.2422 12.7515C17.0296 11.4578 17.4375 9.95312 17.4375 8.43433C17.4375 3.77964 13.6548 -0.00317383 9 -0.00317383ZM9 12.6531C6.63759 12.6531 4.78125 10.7406 4.78125 8.43433C4.78125 6.11397 6.67964 4.21558 9 4.21558C11.3204 4.21558 13.2188 6.11397 13.2188 8.43433C13.2188 10.7265 11.3906 12.6531 9 12.6531Z" fill="#FD003A"/>
</svg>
