<svg width="21" height="24" viewBox="0 0 21 24" fill="none" xmlns="http://www.w3.org/2000/svg">
<path d="M7.62141 21C7.62141 19.0803 7.62141 15.5714 7.62141 13.7619C8.0049 13.7619 7.52805 13.7619 9.15535 13.7619C10.7827 13.7619 12.3433 14.5245 13.494 15.8819C14.6447 17.2393 15.2911 19.0803 15.2911 21H7.62141ZM9.15535 12.8571C6.61284 12.8571 4.55353 10.4279 4.55353 7.42857C4.55353 4.42929 6.61284 2 9.15535 2C11.6979 2 13.7572 4.42929 13.7572 7.42857C13.7572 10.4279 11.6979 12.8571 9.15535 12.8571ZM14.8026 14.8775C15.9758 15.2332 17.0239 16.0164 17.7978 17.1157C18.5717 18.215 19.0319 19.5743 19.1129 21H16.8251C16.8251 18.6386 16.0581 16.4889 14.8026 14.8775ZM13.251 12.8182C13.8937 12.1401 14.4077 11.3094 14.7593 10.3806C15.1109 9.45176 15.2921 8.44578 15.2911 7.42857C15.2928 6.19218 15.0247 4.9761 14.5126 3.89729C15.3813 4.1032 16.1628 4.65762 16.7242 5.46632C17.2855 6.27502 17.5922 7.28809 17.592 8.33333C17.5922 8.97794 17.4756 9.61516 17.25 10.2023C17.0245 10.7894 16.6951 11.3128 16.284 11.7375C15.8729 12.1622 15.3896 12.4784 14.8665 12.6648C14.3434 12.8511 13.7926 12.9035 13.251 12.8182Z" fill="url(#paint0_linear_10088_86427)"/>
<path d="M1.12976 16.7222H3.05674V14L6.26837 17.5L3.05674 21V18.2778H1.12976V16.7222Z" fill="url(#paint1_linear_10088_86427)"/>
<defs>
<linearGradient id="paint0_linear_10088_86427" x1="11.8332" y1="2" x2="11.8332" y2="21" gradientUnits="userSpaceOnUse">
<stop stop-color="white"/>
<stop offset="1" stop-color="#F9F8FF"/>
</linearGradient>
<linearGradient id="paint1_linear_10088_86427" x1="3.69906" y1="14" x2="3.69906" y2="21" gradientUnits="userSpaceOnUse">
<stop stop-color="white"/>
<stop offset="1" stop-color="#F9F8FF"/>
</linearGradient>
</defs>
</svg>
