<svg width="32" height="32" viewBox="0 0 32 32" fill="none" xmlns="http://www.w3.org/2000/svg">
<path d="M20.1918 10.5744C20.1918 10.5744 25.9377 0.671875 14.1287 0.671875C2.31974 0.671875 8.06557 10.5744 8.06557 10.5744" fill="#2BA4F5"/>
<path d="M8.06205 11.2435C7.81228 11.2435 7.57011 11.1185 7.44177 10.8972C7.32862 10.7019 4.69504 6.08682 6.72007 2.86343C7.91026 0.968581 10.4017 0.0078125 14.1247 0.0078125C17.8478 0.0078125 20.3385 0.968581 21.5287 2.86343C23.5538 6.08682 20.9202 10.7019 20.807 10.8972C20.62 11.22 20.1916 11.3372 19.8487 11.1614C19.5064 10.985 19.3809 10.5802 19.5672 10.2573C19.5913 10.2163 21.9282 6.1083 20.3116 3.54039C19.3926 2.08102 17.311 1.34091 14.1247 1.34091C10.9357 1.34091 8.85344 2.08167 7.93579 3.543C6.31714 6.12002 8.65749 10.2157 8.68095 10.2567C8.86861 10.5795 8.74304 10.985 8.40082 11.1614C8.29319 11.2174 8.17658 11.2435 8.06205 11.2435Z" fill="black"/>
<path d="M20.1927 9.46149V11.0607C20.1927 15.5319 17.4781 17.9757 14.1296 17.9757H14.1295C10.781 17.9757 8.06641 15.5319 8.06641 11.0607V9.46149C11.2392 9.46149 12.1737 6.10938 12.1737 6.10938C12.1737 6.10938 14.0426 9.46149 20.1927 9.46149Z" fill="white"/>
<path d="M14.1254 18.6452C10.7556 18.6452 7.35547 16.3012 7.35547 11.0638V9.46452C7.35547 9.0961 7.67147 8.79797 8.06199 8.79797C10.6604 8.79797 11.478 5.97099 11.4863 5.943C11.5601 5.67678 11.7995 5.48085 12.0893 5.45025C12.3839 5.4164 12.6592 5.55896 12.7944 5.80175C12.8627 5.92022 14.5876 8.79797 20.1881 8.79797C20.5786 8.79797 20.8946 9.0961 20.8946 9.46452V11.0638C20.8946 16.3012 17.4945 18.6452 14.1254 18.6452ZM8.76851 10.0803V11.0638C8.76851 14.8594 10.8715 17.3121 14.1254 17.3121C17.3792 17.3121 19.4815 14.8594 19.4815 11.0638V10.1167C15.5784 9.95532 13.414 8.47641 12.3646 7.43818C11.7347 8.56884 10.5707 9.81667 8.76851 10.0803Z" fill="black"/>
<path d="M18.7843 28.5033H2.71094C2.81692 24.3841 5.36039 20.8514 9.0343 19.125C10.4403 20.1115 12.1783 20.6581 14.1283 20.6581C16.0854 20.6581 17.8234 20.1048 19.2294 19.125C20.2962 19.6249 21.2571 20.2781 22.1049 21.0647" fill="#52C392"/>
<path d="M18.78 29.1732H2.70669C2.51626 29.1732 2.33411 29.1009 2.20095 28.972C2.06779 28.8438 1.99603 28.67 2.00017 28.4903C2.10987 24.2417 4.68274 20.426 8.71557 18.5312C8.95292 18.4198 9.23787 18.4433 9.45176 18.593C10.7579 19.5102 12.3737 19.9944 14.1242 19.9944C15.8705 19.9944 17.4891 19.5095 18.8056 18.5917C19.0174 18.4433 19.3017 18.4185 19.539 18.5312C20.6574 19.0545 21.6855 19.7484 22.5962 20.5926C22.8743 20.8504 22.8784 21.2722 22.6045 21.5352C22.3313 21.7975 21.8842 21.8008 21.6054 21.543C20.9031 20.8914 20.1213 20.342 19.2789 19.9059C17.7893 20.8374 16.0167 21.3275 14.1242 21.3275C12.2268 21.3275 10.457 20.8374 8.97568 19.9066C5.83843 21.5261 3.77958 24.4943 3.45461 27.8401H18.78C19.1706 27.8401 19.4866 28.1382 19.4866 28.5066C19.4866 28.875 19.1706 29.1732 18.78 29.1732Z" fill="black"/>
<path d="M23.7282 31.3265C26.8034 31.3265 29.2963 28.9746 29.2963 26.0734C29.2963 23.1722 26.8034 20.8203 23.7282 20.8203C20.6531 20.8203 18.1602 23.1722 18.1602 26.0734C18.1602 28.9746 20.6531 31.3265 23.7282 31.3265Z" fill="#E7EEF9"/>
<path d="M23.7237 31.996C20.2643 31.996 17.4492 29.3402 17.4492 26.0764C17.4492 22.812 20.2643 20.1562 23.7237 20.1562C27.1839 20.1562 29.9989 22.812 29.9989 26.0764C29.9989 29.3402 27.1839 31.996 23.7237 31.996ZM23.7237 21.4893C21.0432 21.4893 18.8623 23.5469 18.8623 26.0764C18.8623 28.6053 21.0432 30.6629 23.7237 30.6629C26.4049 30.6629 28.5859 28.6053 28.5859 26.0764C28.5859 23.5469 26.4049 21.4893 23.7237 21.4893Z" fill="black"/>
<path d="M23.7261 28.8122C23.3355 28.8122 23.0195 28.5141 23.0195 28.1456V24.0415C23.0195 23.6731 23.3355 23.375 23.7261 23.375C24.1166 23.375 24.4326 23.6731 24.4326 24.0415V28.1456C24.4326 28.5141 24.1166 28.8122 23.7261 28.8122Z" fill="black"/>
<path d="M25.9005 26.7472H21.5503C21.1598 26.7472 20.8438 26.449 20.8438 26.0806C20.8438 25.7122 21.1598 25.4141 21.5503 25.4141H25.9005C26.291 25.4141 26.607 25.7122 26.607 26.0806C26.607 26.449 26.291 26.7472 25.9005 26.7472Z" fill="black"/>
</svg>
