<svg width="17" height="17" viewBox="0 0 17 17" fill="none" xmlns="http://www.w3.org/2000/svg">
<path fill-rule="evenodd" clip-rule="evenodd" d="M2.42 0.5C1.35961 0.5 0.5 1.35961 0.5 2.42V14.58C0.5 15.6404 1.35961 16.5 2.42 16.5H14.58C15.6404 16.5 16.5 15.6404 16.5 14.58V2.42C16.5 1.35961 15.6404 0.5 14.58 0.5H2.42ZM11.7777 4.50609C11.94 4.48099 12.1057 4.53455 12.2245 4.64669C12.3434 4.76051 12.4036 4.92119 12.3919 5.08354L11.9032 10.2505L11.9022 10.2644C11.8975 10.3281 11.8929 10.3906 11.8898 10.453C11.848 11.156 11.2655 11.7133 10.5526 11.7133C9.80276 11.7133 9.19857 11.0991 9.21364 10.3459C9.2287 9.6228 9.82619 9.03698 10.5492 9.0353C10.6881 9.0353 10.8203 9.05539 10.9459 9.09389L11.1802 6.54474L7.71739 7.05357L7.34919 11.0405C7.34249 11.1058 7.33915 11.1694 7.3358 11.2346C7.29731 11.9393 6.7132 12.5 5.99856 12.5C5.24039 12.5 4.62784 11.869 4.66131 11.1024C4.69144 10.4095 5.25545 9.84875 5.94835 9.82365C6.09897 9.81863 6.24458 9.83871 6.38182 9.87888L6.77011 5.65597C6.79187 5.40993 6.98099 5.21075 7.22534 5.1756L11.7777 4.50609Z" fill="#00BECA"/>
</svg>
