<svg width="24" height="24" viewBox="0 0 24 24" fill="none" xmlns="http://www.w3.org/2000/svg">
<g clip-path="url(#clip0_13953_48330)">
<mask id="mask0_13953_48330" style="mask-type:luminance" maskUnits="userSpaceOnUse" x="0" y="-1" width="24" height="25">
<path d="M0 -0.000232697H24V23.9998H0V-0.000232697Z" fill="white"/>
</mask>
<g mask="url(#mask0_13953_48330)">
<path d="M21.4139 0.702924H15.8603C14.8248 0.702924 13.3784 1.30203 12.6461 2.03427L1.25223 13.4281C0.519996 14.1602 0.520137 15.3585 1.25237 16.0906L7.909 22.7475C8.64123 23.4798 9.83945 23.4796 10.5717 22.7474L21.9655 11.3536C22.6977 10.6214 23.2968 9.17511 23.2968 8.13945V2.58571C23.2967 1.55033 22.4494 0.702924 21.4139 0.702924Z" stroke="white" stroke-width="1.40625" stroke-miterlimit="10" stroke-linecap="round" stroke-linejoin="round"/>
<path d="M6.53001 15.5385C6.2744 15.283 6.33829 14.9101 6.72168 14.5267C7.1691 14.0794 7.4939 14.1592 7.65904 13.9942C7.85081 13.8024 7.69106 13.4721 7.56853 13.3498C7.21696 12.9982 6.44479 13.6214 6.13059 13.9355C5.51807 14.548 5.10806 15.5013 5.90151 16.2948C7.16376 17.557 8.62837 15.6025 9.42721 16.4014C9.74671 16.7209 9.61359 17.1416 9.29404 17.4613C8.75081 18.0043 8.19693 17.7382 7.97859 17.9564C7.81349 18.1215 7.89876 18.4837 8.04782 18.6329C8.35673 18.9418 9.24084 18.7606 9.93843 18.0629C10.6734 17.3281 10.8119 16.4012 10.0503 15.6397C8.67103 14.2604 7.19034 16.199 6.53001 15.5385Z" fill="white"/>
<path d="M10.9875 14.1385L9.81577 12.0401L11.9141 13.2118L10.9875 14.1385ZM13.9752 13.249L9.59738 10.927C9.38977 10.8152 9.11808 10.9378 8.91577 11.1401C8.71875 11.3371 8.59618 11.6088 8.70807 11.8165L11.03 16.1942C11.046 16.2208 11.062 16.2474 11.0727 16.2582C11.2431 16.4285 11.6106 16.2954 11.797 16.109C11.9141 15.9919 11.9674 15.864 11.8928 15.7361L11.3869 14.8255L12.6065 13.6059L13.5172 14.1119C13.645 14.1864 13.7728 14.1333 13.89 14.016C14.0764 13.8296 14.2042 13.4568 14.0391 13.2917C14.0231 13.2758 14.0018 13.265 13.9752 13.249Z" fill="white"/>
<path d="M16.0784 10.6128L14.7789 11.9122L11.706 8.83924C11.5569 8.69008 11.3173 8.80202 11.1469 8.97236C10.9712 9.14814 10.8645 9.38247 11.0136 9.53163L14.4754 12.9933C14.6192 13.1372 14.8429 13.0626 14.9974 12.908L16.6856 11.2198C16.824 11.0814 16.7388 10.8577 16.5897 10.7087C16.4353 10.5542 16.2169 10.4742 16.0784 10.6128Z" fill="white"/>
<path d="M19.3909 7.91825C19.2258 7.75311 19.0021 7.68922 18.8636 7.82764L17.3564 9.33476L16.286 8.26437L17.0954 7.45489C17.2446 7.30578 17.17 7.09278 17.0475 6.9702C16.9038 6.82653 16.6907 6.77328 16.5522 6.9117L15.7428 7.72114L14.6775 6.656L16.1848 5.14892C16.3233 5.01036 16.2593 4.78677 16.0943 4.62158C15.9504 4.47786 15.7267 4.39255 15.5776 4.5417L13.6817 6.43775C13.5272 6.59206 13.4527 6.81575 13.5965 6.95951L17.0529 10.4159C17.1967 10.5598 17.4204 10.4852 17.5748 10.3308L19.4707 8.43486C19.6199 8.2857 19.5346 8.06197 19.3909 7.91825Z" fill="white"/>
</g>
</g>
<defs>
<clipPath id="clip0_13953_48330">
<rect width="24" height="24" fill="white"/>
</clipPath>
</defs>
</svg>
