<svg width="24" height="25" viewBox="0 0 24 25" fill="none" xmlns="http://www.w3.org/2000/svg">
<rect x="0.75" y="1.25" width="22.5" height="22.5" rx="11.25" stroke="#33B679" stroke-width="1.5"/>
<rect x="1" y="1.5" width="22" height="22" rx="11" fill="#33B679"/>
<path d="M9.98005 17.2362C9.80103 17.2362 9.63951 17.1283 9.57098 16.9629C9.50244 16.7975 9.54049 16.607 9.66697 16.4803L18.523 7.62428C18.6969 7.4565 18.973 7.45888 19.1438 7.62969C19.3146 7.8005 19.317 8.0766 19.1492 8.25044L10.2931 17.1065C10.2101 17.1895 10.0975 17.2362 9.98005 17.2362Z" fill="white" stroke="white"/>
<path d="M9.97979 17.2363C9.86238 17.2363 9.74974 17.1896 9.66671 17.1066L6.12428 13.5642C5.9565 13.3903 5.95888 13.1142 6.12969 12.9434C6.3005 12.7726 6.5766 12.7702 6.75044 12.938L10.2929 16.4804C10.4193 16.6071 10.4574 16.7976 10.3889 16.963C10.3203 17.1284 10.1588 17.2363 9.97979 17.2363Z" fill="white" stroke="white"/>
</svg>
