<svg width="24" height="24" viewBox="0 0 24 24" fill="none" xmlns="http://www.w3.org/2000/svg">
<mask id="mask0_13956_49724" style="mask-type:luminance" maskUnits="userSpaceOnUse" x="1" y="1" width="22" height="22">
<path d="M1 1.91667C1 1.4104 1.41041 1 1.91667 1H22.0833C22.5896 1 23 1.41041 23 1.91667V22.0833C23 22.5896 22.5896 23 22.0833 23H1.91667C1.4104 23 1 22.5896 1 22.0833V1.91667Z" fill="white"/>
</mask>
<g mask="url(#mask0_13956_49724)">
<path d="M19.5625 7.96094L22.3555 10.1094V22.3555H1.64453V10.1094L4.4375 7.96094" stroke="white" stroke-width="1.5" stroke-miterlimit="10"/>
<path d="M1.64453 12.3867L12 18.918L22.3555 12.5586" stroke="white" stroke-width="1.5" stroke-miterlimit="10"/>
<path d="M4.4375 14.0324V2.56127C4.4375 2.055 4.84791 1.6446 5.35417 1.6446H14.9792C17.5105 1.6446 19.5625 3.69663 19.5625 6.22793V14.158" stroke="white" stroke-width="1.5" stroke-miterlimit="10"/>
<path d="M13.9858 7.75615C13.9858 6.78871 13.0913 6.00444 11.9878 6.00444C10.8843 6.00444 9.98975 6.78871 9.98975 7.75615C9.98975 8.72355 10.8843 9.50781 11.9878 9.50781" stroke="white" stroke-width="1.5" stroke-miterlimit="10"/>
<path d="M9.98975 11.2595C9.98975 12.227 10.8843 13.0112 11.9878 13.0112C13.0913 13.0112 13.9858 12.227 13.9858 11.2595C13.9858 10.2921 13.0913 9.50786 11.9878 9.50786" stroke="white" stroke-width="1.5" stroke-miterlimit="10"/>
<path d="M11.9878 4.43745V6.00439" stroke="white" stroke-width="1.5" stroke-miterlimit="10"/>
<path d="M11.9878 13.0112V14.5781" stroke="white" stroke-width="1.5" stroke-miterlimit="10"/>
</g>
</svg>
