<svg width="16" height="16" viewBox="0 0 16 16" fill="none" xmlns="http://www.w3.org/2000/svg">
<g clip-path="url(#clip0_11976_108755)">
<path d="M8.0001 0.850098C7.06105 0.84977 6.13115 1.03449 5.26352 1.39369C4.3959 1.7529 3.60756 2.27955 2.94355 2.94355C2.27955 3.60756 1.7529 4.3959 1.39369 5.26352C1.03449 6.13115 0.84977 7.06105 0.850098 8.0001C0.84977 8.93914 1.03449 9.86905 1.39369 10.7367C1.7529 11.6043 2.27955 12.3926 2.94355 13.0566C3.60756 13.7206 4.3959 14.2473 5.26352 14.6065C6.13115 14.9657 7.06105 15.1504 8.0001 15.1501C8.93914 15.1504 9.86905 14.9657 10.7367 14.6065C11.6043 14.2473 12.3926 13.7206 13.0566 13.0566C13.7206 12.3926 14.2473 11.6043 14.6065 10.7367C14.9657 9.86905 15.1504 8.93914 15.1501 8.0001C15.1504 7.06105 14.9657 6.13115 14.6065 5.26352C14.2473 4.3959 13.7206 3.60756 13.0566 2.94355C12.3926 2.27955 11.6043 1.7529 10.7367 1.39369C9.86905 1.03449 8.93914 0.84977 8.0001 0.850098V0.850098ZM8.0001 13.1501C7.78628 13.1506 7.57713 13.0876 7.39914 12.9691C7.22116 12.8506 7.08234 12.682 7.00029 12.4846C6.91824 12.2871 6.89664 12.0697 6.93823 11.86C6.97982 11.6503 7.08273 11.4576 7.23393 11.3064C7.38512 11.1552 7.57778 11.0523 7.78752 11.0107C7.99725 10.9691 8.21461 10.9907 8.41205 11.0728C8.6095 11.1548 8.77815 11.2937 8.89663 11.4716C9.01511 11.6496 9.07809 11.8588 9.0776 12.0726C9.07694 12.3582 8.9632 12.6318 8.76128 12.8338C8.55935 13.0357 8.28567 13.1494 8.0001 13.1501V13.1501ZM9.3076 4.2501L8.9001 9.7501C8.89756 9.78812 8.88064 9.82375 8.85278 9.84976C8.82492 9.87576 8.78821 9.89018 8.7501 9.8901H7.2501C7.21199 9.89018 7.17528 9.87576 7.14742 9.84976C7.11956 9.82375 7.10264 9.78812 7.1001 9.7501L6.6926 4.2501C6.68155 4.07159 6.70718 3.89272 6.76789 3.72449C6.8286 3.55627 6.92312 3.40226 7.04562 3.27195C7.16811 3.14164 7.31599 3.0378 7.48015 2.96681C7.6443 2.89583 7.82125 2.8592 8.0001 2.8592C8.17894 2.8592 8.35589 2.89583 8.52005 2.96681C8.6842 3.0378 8.83208 3.14164 8.95458 3.27195C9.07708 3.40226 9.17159 3.55627 9.2323 3.72449C9.29302 3.89272 9.31864 4.07159 9.3076 4.2501V4.2501Z" fill="#FFC048"/>
</g>
<defs>
<clipPath id="clip0_11976_108755">
<rect width="16" height="16" fill="white"/>
</clipPath>
</defs>
</svg>
