<svg width="24" height="25" viewBox="0 0 24 25" fill="none" xmlns="http://www.w3.org/2000/svg">
<path d="M23.0749 4.19172L20.8248 1.94172C20.6054 1.72225 20.2495 1.72197 20.0299 1.94144C20.0299 1.94158 20.0297 1.94172 20.0294 1.94172L13.2796 8.69186C13.174 8.79726 13.1149 8.94022 13.1149 9.08938V11.3395C13.1149 11.6501 13.3667 11.9019 13.6772 11.9019H15.9274C16.0765 11.9019 16.2195 11.8427 16.3249 11.7372L23.0749 4.98717C23.2945 4.7677 23.2946 4.41174 23.0753 4.19213C23.0752 4.19213 23.0752 4.19186 23.0749 4.19172ZM15.6944 10.777H14.2397V9.32247L20.4272 3.13497L21.8818 4.58951L15.6944 10.777Z" fill="#F6B91A" stroke="#F6B91A" stroke-width="0.5"/>
<path d="M21.5521 8.52702C21.2416 8.52702 20.9898 8.77883 20.9898 9.08939V16.9644C20.9888 17.8959 20.2338 18.6509 19.3023 18.652H13.6772C13.5555 18.6518 13.437 18.6912 13.3397 18.7644L9.73975 21.4645V19.2145C9.73975 18.9038 9.48794 18.652 9.17725 18.652H3.55225C2.62071 18.6509 1.86571 17.8959 1.86488 16.9645V6.83939C1.86585 5.90799 2.62071 5.15299 3.55225 5.15202H13.6772C13.9879 5.15202 14.2397 4.90022 14.2397 4.58952C14.2397 4.27896 13.9879 4.02716 13.6772 4.02716H3.55225C1.99959 4.02867 0.74126 5.28701 0.739746 6.83939V16.9645C0.74126 18.517 1.99959 19.7754 3.55225 19.777H8.61475V22.5895C8.61475 22.9001 8.86655 23.1519 9.17725 23.1519C9.29902 23.1519 9.41736 23.1124 9.51478 23.0395L13.8653 19.7769H19.3023C20.8549 19.7754 22.1131 18.517 22.1148 16.9644V9.08953C22.1148 8.77883 21.8628 8.52702 21.5521 8.52702Z" fill="#F6B91A" stroke="#F6B91A" stroke-width="0.5"/>
<path d="M10.3021 7.40198H4.67738C4.36655 7.40198 4.11475 7.65378 4.11475 7.96448C4.11475 8.27504 4.36655 8.52684 4.67738 8.52684H10.3021C10.6128 8.52684 10.8647 8.27504 10.8647 7.96448C10.8647 7.65378 10.6128 7.40198 10.3021 7.40198Z" fill="#F6B91A" stroke="#F6B91A" stroke-width="0.5"/>
<path d="M4.67738 11.902H10.3021C10.6128 11.902 10.8647 11.65 10.8647 11.3395C10.8647 11.0288 10.6128 10.777 10.3021 10.777H4.67738C4.36655 10.777 4.11475 11.0288 4.11475 11.3395C4.11475 11.65 4.36655 11.902 4.67738 11.902Z" fill="#F6B91A" stroke="#F6B91A" stroke-width="0.5"/>
<path d="M4.67738 15.2768H18.1773C18.4879 15.2768 18.7396 15.025 18.7396 14.7143C18.7396 14.4038 18.4878 14.152 18.1773 14.152H4.67738C4.36655 14.152 4.11475 14.4038 4.11475 14.7143C4.11475 15.025 4.36655 15.2768 4.67738 15.2768Z" fill="#F6B91A" stroke="#F6B91A" stroke-width="0.5"/>
</svg>
