<svg width="32" height="32" viewBox="0 0 32 32" fill="none" xmlns="http://www.w3.org/2000/svg">
<path d="M24.4817 3.45594V27.8878H5.42797C4.87859 27.8878 4.43359 27.4422 4.43359 26.8928V8.61094L10.7423 2.46094H23.4867C24.0361 2.46094 24.4817 2.90656 24.4817 3.45594Z" fill="#EAF6FF"/>
<path d="M24.4823 18.3984V27.8891H14.9492V21.0053C14.9492 19.5653 16.1161 18.3984 17.5561 18.3984H24.4823Z" fill="#C8EFFE"/>
<path d="M23.4872 2.46094H22.3008C22.8502 2.46094 23.2957 2.90631 23.2957 3.45575V27.8876H24.4821V3.45581C24.482 2.90637 24.0367 2.46094 23.4872 2.46094Z" fill="#C8EFFE"/>
<path d="M22.4237 1.46375V25.8956H3.37C2.82063 25.8956 2.375 25.45 2.375 24.9006V5.71688L7.63188 0.46875H21.4287C21.9781 0.46875 22.4237 0.914375 22.4237 1.46375Z" fill="#EAF6FF"/>
<path d="M22.4242 18.3984V25.8966H14.9492V21.0053C14.9492 19.5653 16.1161 18.3984 17.5561 18.3984H22.4242Z" fill="#C8EFFE"/>
<path d="M21.429 0.46875H19.8867C20.4362 0.46875 20.8815 0.914125 20.8815 1.46356V25.8953H22.4238V1.46356C22.4238 0.914125 21.9784 0.46875 21.429 0.46875Z" fill="#C8EFFE"/>
<path d="M27.0192 31.5322H19.0989C17.6593 31.5322 16.4922 30.3651 16.4922 28.9255V21.0051C16.4922 19.5655 17.6593 18.3984 19.0989 18.3984H27.0192C28.4589 18.3984 29.6259 19.5655 29.6259 21.0051V28.9255C29.6259 30.3651 28.4589 31.5322 27.0192 31.5322Z" fill="#4FC123"/>
<path d="M27.0188 18.3984H25.4766C26.9162 18.3984 28.0833 19.5655 28.0833 21.0051V28.9255C28.0833 30.3651 26.9162 31.5322 25.4766 31.5322H27.0188C28.4584 31.5322 29.6255 30.3651 29.6255 28.9255V21.0052C29.6255 19.5655 28.4584 18.3984 27.0188 18.3984Z" fill="#47A920"/>
<path d="M2.375 5.71675L7.63175 0.46875V4.72188C7.63175 5.27131 7.18631 5.71675 6.63688 5.71675H2.375Z" fill="#C8EFFE"/>
<path d="M6.08856 2.00844V4.72188C6.08856 5.27131 5.64319 5.71669 5.09375 5.71669H6.636C7.18544 5.71669 7.63081 5.27131 7.63081 4.72188V0.46875L6.08856 2.00844Z" fill="#99E6FC"/>
<path d="M22.2 25.6518L20.946 24.3979C20.7051 24.157 20.3145 24.157 20.0736 24.3979L19.2549 25.2166C19.014 25.4575 19.014 25.8481 19.2549 26.089L21.3525 28.1866C21.7872 28.6213 22.492 28.6213 22.9267 28.1866L27.0284 24.0849C27.2694 23.844 27.2694 23.4534 27.0284 23.2125L26.2701 22.4541C26.0292 22.2132 25.6386 22.2132 25.3977 22.4541L22.2 25.6518Z" fill="#D1F19E"/>
<path d="M27.0289 23.2125L26.2706 22.4541C26.0297 22.2132 25.6391 22.2132 25.3982 22.4541L25.0191 22.8332C25.1084 22.8623 25.1925 22.9118 25.2635 22.9828L25.4867 23.2125C25.7276 23.4534 25.7276 23.844 25.4867 24.0849L21.944 27.7251C21.7414 27.9278 21.4801 28.0346 21.2148 28.0484L21.353 28.1865C21.7877 28.6213 22.4925 28.6213 22.9272 28.1865L27.0289 24.0848C27.2698 23.844 27.2698 23.4533 27.0289 23.2125Z" fill="#BBEC6C"/>
<path d="M18.4017 11.8443H11.2708C10.8235 11.8443 10.4609 11.4817 10.4609 11.0345V3.90356C10.4609 3.45631 10.8235 3.09375 11.2708 3.09375H18.4017C18.8489 3.09375 19.2115 3.45631 19.2115 3.90356V11.0345C19.2115 11.4817 18.8489 11.8443 18.4017 11.8443Z" fill="#C8EFFE"/>
<path d="M18.4016 3.09375H16.8594C17.3066 3.09375 17.6692 3.45631 17.6692 3.90356V11.0345C17.6692 11.4817 17.3066 11.8443 16.8594 11.8443H18.4016C18.8489 11.8443 19.2114 11.4817 19.2114 11.0345V3.90356C19.2114 3.45631 18.8489 3.09375 18.4016 3.09375Z" fill="#99E6FC"/>
<path d="M14.8396 8.47119C14.2206 8.47119 13.7188 7.96937 13.7188 7.35037V6.83956C13.7188 6.22056 14.2206 5.71875 14.8396 5.71875C15.4586 5.71875 15.9604 6.22056 15.9604 6.83956V7.35037C15.9603 7.96937 15.4586 8.47119 14.8396 8.47119Z" fill="#FFDFCF"/>
<path d="M15.3262 8.46875H14.3563C13.398 8.46875 12.6211 9.24563 12.6211 10.204V11.8429H17.0615V10.204C17.0615 9.24563 16.2846 8.46875 15.3262 8.46875Z" fill="#0593FC"/>
<path d="M15.3264 8.46875H14.3565C14.2589 8.46875 14.1634 8.47719 14.0703 8.49269C14.8924 8.62919 15.5194 9.34325 15.5194 10.2041V11.8429H17.0616V10.204C17.0616 9.24563 16.2847 8.46875 15.3264 8.46875Z" fill="#0181FA"/>
<path d="M29.6249 22.5901C29.8838 22.5901 30.0936 22.3803 30.0936 22.1214V21.0041C30.0936 19.3083 28.714 17.9287 27.0182 17.9287H24.9506V3.45625C24.9506 2.64913 24.294 1.9925 23.4869 1.9925H22.8925V1.46375C22.8925 0.656625 22.2359 0 21.4287 0H7.63181C7.52919 0.00875 7.42688 0.017 7.30006 0.137625L2.04394 5.385C1.90975 5.519 1.86944 5.72069 1.94194 5.89594C2.01444 6.07119 2.18544 6.1855 2.37512 6.1855H6.637C7.444 6.1855 8.10056 5.52894 8.10056 4.72194V0.9375H21.4287C21.7189 0.9375 21.955 1.17356 21.955 1.46375V17.9287H19.0977C17.4019 17.9287 16.0223 19.3083 16.0223 21.0041V25.4269H3.37C3.07981 25.4269 2.84375 25.1908 2.84375 24.9006V7.907C2.84375 7.64806 2.63394 7.43825 2.375 7.43825C2.11606 7.43825 1.90625 7.64806 1.90625 7.907V24.9006C1.90625 25.7078 2.56288 26.3644 3.37 26.3644H3.965V26.8931C3.965 27.7003 4.62137 28.3569 5.42812 28.3569H16.0224V28.9246C16.0224 30.6204 17.402 32 19.0978 32H27.0182C28.7141 32 30.0937 30.6204 30.0937 28.9246V24.3096C30.0937 24.0506 29.8839 23.8408 29.6249 23.8408C29.366 23.8408 29.1562 24.0506 29.1562 24.3096V28.9246C29.1562 30.1034 28.1971 31.0625 27.0182 31.0625H19.0977C17.9189 31.0625 16.9598 30.1034 16.9598 28.9246V21.0041C16.9598 19.8253 17.9189 18.8662 19.0977 18.8662H27.0182C28.197 18.8662 29.1561 19.8253 29.1561 21.0041V22.1214C29.1561 22.3803 29.3659 22.5901 29.6249 22.5901ZM7.16306 4.72194C7.16306 5.01206 6.92712 5.248 6.637 5.248H3.50813L7.16306 1.59906V4.72194ZM5.42812 27.4194C5.13825 27.4194 4.9025 27.1833 4.9025 26.8931V26.3644H16.0224V27.4194H5.42812ZM22.8925 2.93H23.4869C23.7771 2.93 24.0131 3.16606 24.0131 3.45625V17.9287H22.8925V2.93Z" fill="black"/>
<path d="M25.0657 22.1221L22.1995 24.9883L21.277 24.0658C20.8537 23.6426 20.165 23.6426 19.7417 24.0658L18.9229 24.8846C18.4997 25.3079 18.4997 25.9966 18.9229 26.4199L21.0205 28.5174C21.3193 28.8163 21.7166 28.9808 22.1391 28.9808C22.5616 28.9808 22.9589 28.8162 23.2577 28.5175L27.3593 24.4158C27.7826 23.9925 27.7826 23.3037 27.3593 22.8804L26.601 22.1221C26.1777 21.6989 25.489 21.6989 25.0657 22.1221ZM26.6964 23.7529L22.5947 27.8546C22.473 27.9763 22.3112 28.0434 22.1391 28.0434C21.967 28.0434 21.8052 27.9764 21.6835 27.8546L19.5858 25.757C19.5481 25.7192 19.5425 25.6752 19.5425 25.6522C19.5425 25.6293 19.5481 25.5852 19.5858 25.5475L20.4046 24.7287C20.4423 24.691 20.4864 24.6854 20.5093 24.6854C20.5323 24.6854 20.5763 24.691 20.6142 24.7287L21.8681 25.9826C22.0511 26.1656 22.3479 26.1656 22.531 25.9826L25.7286 22.785C25.7663 22.7472 25.8104 22.7416 25.8333 22.7416C25.8563 22.7416 25.9003 22.7472 25.9381 22.785L26.6964 23.5433C26.7542 23.6011 26.7542 23.6951 26.6964 23.7529Z" fill="black"/>
<path d="M18.4017 12.313C19.1067 12.313 19.6803 11.7394 19.6803 11.0344V3.9035C19.6803 3.19856 19.1067 2.625 18.4017 2.625H11.2708C10.5658 2.625 9.99219 3.19856 9.99219 3.9035V11.0344C9.99219 11.7394 10.5658 12.313 11.2708 12.313H18.4017ZM13.0873 11.3755V10.2054C13.0873 9.507 13.6555 8.93881 14.3539 8.93881H15.3238C16.0222 8.93881 16.5903 9.507 16.5903 10.2054V11.3755H13.0873ZM15.4908 7.34931C15.4908 7.70887 15.1983 8.00137 14.8388 8.00137C14.4792 8.00137 14.1867 7.70887 14.1867 7.34931V6.8385C14.1867 6.47894 14.4792 6.18644 14.8388 6.18644C15.1983 6.18644 15.4908 6.47894 15.4908 6.8385V7.34931ZM10.9297 11.0344V3.9035C10.9297 3.71544 11.0827 3.5625 11.2708 3.5625H18.4017C18.5898 3.5625 18.7428 3.71544 18.7428 3.9035V11.0344C18.7428 11.2225 18.5898 11.3755 18.4017 11.3755H17.5278V10.2054C17.5278 9.29862 16.9772 8.51831 16.1931 8.18037C16.3422 7.93837 16.4284 7.65375 16.4284 7.34931V6.8385C16.4284 5.96206 15.7153 5.24894 14.8388 5.24894C13.9623 5.24894 13.2493 5.962 13.2493 6.8385V7.34931C13.2493 7.65375 13.3354 7.93837 13.4845 8.18037C12.7003 8.51831 12.1498 9.29869 12.1498 10.2054V11.3755H11.2708C11.0828 11.3755 10.9297 11.2225 10.9297 11.0344Z" fill="black"/>
<path d="M5.17578 15.4844C5.17578 15.7433 5.38559 15.9531 5.64453 15.9531H19.0736C19.3325 15.9531 19.5423 15.7433 19.5423 15.4844C19.5423 15.2254 19.3325 15.0156 19.0736 15.0156H5.64453C5.38559 15.0156 5.17578 15.2254 5.17578 15.4844Z" fill="black"/>
<path d="M13.0845 17.3906H5.64453C5.38559 17.3906 5.17578 17.6004 5.17578 17.8594C5.17578 18.1183 5.38559 18.3281 5.64453 18.3281H13.0845C13.3435 18.3281 13.5533 18.1183 13.5533 17.8594C13.5533 17.6004 13.3434 17.3906 13.0845 17.3906Z" fill="black"/>
<path d="M13.0847 19.7578H11.5508C11.2918 19.7578 11.082 19.9676 11.082 20.2266C11.082 20.4855 11.2918 20.6953 11.5508 20.6953H13.0847C13.3437 20.6953 13.5535 20.4855 13.5535 20.2266C13.5535 19.9676 13.3436 19.7578 13.0847 19.7578Z" fill="black"/>
<path d="M5.64453 20.6953H9.36453C9.62347 20.6953 9.83328 20.4855 9.83328 20.2266C9.83328 19.9676 9.62347 19.7578 9.36453 19.7578H5.64453C5.38559 19.7578 5.17578 19.9676 5.17578 20.2266C5.17578 20.4855 5.38559 20.6953 5.64453 20.6953Z" fill="black"/>
<path d="M5.64453 23.0703H13.0845C13.3435 23.0703 13.5533 22.8605 13.5533 22.6016C13.5533 22.3426 13.3435 22.1328 13.0845 22.1328H5.64453C5.38559 22.1328 5.17578 22.3426 5.17578 22.6016C5.17578 22.8605 5.38559 23.0703 5.64453 23.0703Z" fill="black"/>
<path d="M6.85357 9.97318L5.31313 11.5136C5.13001 11.6966 5.13001 11.9934 5.31307 12.1764C5.40463 12.268 5.52457 12.3137 5.64457 12.3137C5.76451 12.3137 5.88451 12.268 5.97601 12.1765L7.51645 10.6361C7.69957 10.4531 7.69957 10.1562 7.51651 9.97324C7.33345 9.79024 7.03663 9.79012 6.85357 9.97318Z" fill="black"/>
</svg>
