<svg width="24" height="24" viewBox="0 0 24 24" fill="none" xmlns="http://www.w3.org/2000/svg">
<g clip-path="url(#clip0_12771_440)">
<g clip-path="url(#clip1_12771_440)">
<path d="M11 18C11 18.552 11.448 19 12 19C12.552 19 13 18.552 13 18V6C13 5.448 12.552 5 12 5C11.448 5 11 5.448 11 6V18Z" fill="white"/>
<path d="M1 6C0.447998 6 0 6.448 0 7V17C0 17.552 0.447998 18 1 18C1.552 18 2 17.552 2 17V7C2 6.448 1.552 6 1 6Z" fill="white"/>
<path d="M9.5 16V8C9.5 7.448 9.052 7 8.5 7C7.948 7 7.5 7.448 7.5 8V16C7.5 16.552 7.948 17 8.5 17C9.052 17 9.5 16.552 9.5 16Z" fill="white"/>
<path d="M5 15C5.552 15 6 14.552 6 14V10C6 9.448 5.552 9 5 9C4.448 9 4 9.448 4 10V14C4 14.552 4.448 15 5 15Z" fill="white"/>
<path d="M16.5 16V8C16.5 7.448 16.052 7 15.5 7C14.948 7 14.5 7.448 14.5 8V16C14.5 16.552 14.948 17 15.5 17C16.052 17 16.5 16.552 16.5 16Z" fill="white"/>
<path d="M23 6C22.448 6 22 6.448 22 7V17C22 17.552 22.448 18 23 18C23.552 18 24 17.552 24 17V7C24 6.448 23.552 6 23 6Z" fill="white"/>
<path d="M19 9C18.448 9 18 9.448 18 10V14C18 14.552 18.448 15 19 15C19.552 15 20 14.552 20 14V10C20 9.448 19.552 9 19 9Z" fill="white"/>
<path d="M11 23C11 23.552 11.448 24 12 24C12.552 24 13 23.552 13 23V22C13 21.448 12.552 21 12 21C11.448 21 11 21.448 11 22V23Z" fill="white"/>
<path d="M12 3C12.552 3 13 2.552 13 2V1C13 0.447998 12.552 0 12 0C11.448 0 11 0.447998 11 1V2C11 2.552 11.448 3 12 3Z" fill="white"/>
</g>
</g>
<defs>
<clipPath id="clip0_12771_440">
<rect width="24" height="24" fill="white"/>
</clipPath>
<clipPath id="clip1_12771_440">
<rect width="24" height="24" fill="white"/>
</clipPath>
</defs>
</svg>
