<svg width="16" height="17" viewBox="0 0 16 17" fill="none" xmlns="http://www.w3.org/2000/svg">
<g clip-path="url(#clip0_13121_133329)">
<path d="M14.7674 10.5511C14.5473 10.5511 14.3689 10.7295 14.3689 10.9496V14.4877C14.3681 15.1477 13.8334 15.6825 13.1734 15.6831H1.99241C1.33243 15.6825 0.797744 15.1477 0.796966 14.4877V4.10362C0.797744 3.44379 1.33243 2.90895 1.99241 2.90817H5.53051C5.75061 2.90817 5.92899 2.72979 5.92899 2.50969C5.92899 2.28975 5.75061 2.11121 5.53051 2.11121H1.99241C0.892539 2.11245 0.00124526 3.00375 0 4.10362V14.4878C0.00124526 15.5877 0.892539 16.479 1.99241 16.4802H13.1734C14.2733 16.479 15.1646 15.5877 15.1659 14.4878V10.9496C15.1659 10.7295 14.9875 10.5511 14.7674 10.5511V10.5511Z" fill="#246AFF" stroke="#246AFF" stroke-width="0.75"/>
<path d="M15.0093 1.0859C14.309 0.385593 13.1737 0.385593 12.4734 1.0859L5.36419 8.19508C5.31547 8.2438 5.28029 8.3042 5.26192 8.37051L4.32704 11.7456C4.28859 11.884 4.32766 12.0322 4.42915 12.1338C4.5308 12.2353 4.67898 12.2744 4.81736 12.2361L8.19248 11.3011C8.25879 11.2827 8.31919 11.2475 8.36791 11.1988L15.4769 4.08946C16.1761 3.38869 16.1761 2.25426 15.4769 1.55349L15.0093 1.0859ZM6.23244 8.45409L12.0508 2.63562L13.9272 4.51207L8.10874 10.3305L6.23244 8.45409ZM5.85762 9.20623L7.35676 10.7055L5.28309 11.2801L5.85762 9.20623ZM14.9135 3.52598L14.4908 3.94859L12.6142 2.07199L13.037 1.64938C13.426 1.26039 14.0567 1.26039 14.4457 1.64938L14.9135 2.11697C15.3018 2.50643 15.3018 3.13668 14.9135 3.52598V3.52598Z" fill="#246AFF" stroke="#246AFF" stroke-width="0.25"/>
</g>
<defs>
<clipPath id="clip0_13121_133329">
<rect width="16" height="16" fill="white" transform="translate(0 0.5)"/>
</clipPath>
</defs>
</svg>
