<svg width="16" height="16" viewBox="0 0 16 16" fill="none" xmlns="http://www.w3.org/2000/svg">
<g clip-path="url(#clip0_14093_149522)">
<path d="M0.312751 4.01109L7.844 1.35387C7.94491 1.31824 8.055 1.31824 8.15591 1.35387L15.6872 4.01109C15.8744 4.07715 15.9997 4.25402 16 4.45259C16.0002 4.65115 15.8753 4.8283 15.6882 4.8948L8.15697 7.57221C8.10619 7.59027 8.05306 7.5993 7.99997 7.5993C7.94684 7.5993 7.89375 7.59027 7.84297 7.57221L0.31172 4.8948C0.124626 4.8283 -0.000249863 4.65115 -3.05176e-05 4.45259C0.000219345 4.25402 0.125532 4.07715 0.312751 4.01109Z" fill="#6D7379"/>
<path d="M1.12576 10.2679V6.1792L2.06326 6.51248V10.2679C2.34564 10.4305 2.53592 10.735 2.53592 11.0842C2.53592 11.4334 2.34564 11.738 2.06326 11.9005V14.2041C2.06326 14.463 1.85339 14.6729 1.59451 14.6729C1.33564 14.6729 1.12576 14.463 1.12576 14.2041V11.9005C0.843388 11.738 0.653107 11.4334 0.653107 11.0843C0.653107 10.735 0.843357 10.4305 1.12576 10.2679Z" fill="#6D7379"/>
<path d="M7.99999 8.5366C8.1609 8.5366 8.31936 8.50926 8.47102 8.45535L12.7049 6.9502V9.01295C12.7049 9.5176 12.1784 9.94438 11.1401 10.2814C10.2351 10.5751 9.11986 10.7369 7.99999 10.7369C6.88011 10.7369 5.76496 10.5751 4.8599 10.2814C3.82158 9.94438 3.29511 9.5176 3.29511 9.01295V6.9502L7.52893 8.45535C7.68061 8.50926 7.83908 8.5366 7.99999 8.5366Z" fill="#6D7379"/>
</g>
<defs>
<clipPath id="clip0_14093_149522">
<rect width="16" height="16" fill="white" transform="matrix(-1 0 0 1 16 0)"/>
</clipPath>
</defs>
</svg>
