<svg width="24" height="24" viewBox="0 0 24 24" fill="none" xmlns="http://www.w3.org/2000/svg">
<path d="M11.9524 4.73438C10.1431 4.73438 8.67114 6.17963 8.67114 7.9563V9.258C7.53406 9.4184 6.65625 10.3975 6.65625 11.5781V16.9219C6.65625 17.4397 7.07593 17.8594 7.59375 17.8594H16.3125C16.8303 17.8594 17.25 17.4397 17.25 16.9219V11.5781C17.25 10.3969 16.3715 9.41748 15.2336 9.25763V7.9563C15.2336 6.17963 13.7617 4.73438 11.9524 4.73438ZM11.9524 6.60938C12.7277 6.60938 13.3586 7.21362 13.3586 7.9563V9.23438H10.5461V7.9563C10.5461 7.21362 11.1769 6.60938 11.9524 6.60938ZM15.375 11.5781V15.9844H8.53125V11.5781C8.53125 11.3196 8.74146 11.1094 9 11.1094H14.9062C15.1648 11.1094 15.375 11.3196 15.375 11.5781ZM12.8906 13.5469C12.8906 14.0647 12.4709 14.4844 11.9531 14.4844C11.4353 14.4844 11.0156 14.0647 11.0156 13.5469C11.0156 13.0291 11.4353 12.6094 11.9531 12.6094C12.4709 12.6094 12.8906 13.0291 12.8906 13.5469ZM24 12C24 14.3687 23.2969 16.6723 21.9668 18.6617C21.6791 19.092 21.0969 19.2078 20.6664 18.9201C20.2359 18.6323 20.1204 18.05 20.408 17.6197C21.5314 15.9395 22.125 13.9964 22.125 12C22.125 6.41711 17.5829 1.875 12 1.875C6.41711 1.875 1.875 6.41711 1.875 12C1.875 17.5829 6.41711 22.125 12 22.125C13.8517 22.125 15.663 21.6207 17.2377 20.6669C17.6805 20.3987 18.2571 20.5402 18.5253 20.9832C18.7936 21.4259 18.652 22.0023 18.2091 22.2706C16.3414 23.402 14.1943 24 12 24C8.79474 24 5.78119 22.7518 3.51471 20.4853C1.24823 18.2188 0 15.2053 0 12C0 8.79474 1.24823 5.78119 3.51471 3.51471C5.78119 1.24823 8.79474 0 12 0C15.2053 0 18.2188 1.24823 20.4853 3.51471C22.7518 5.78119 24 8.79474 24 12Z" fill="#3C4043"/>
</svg>
