<svg width="24" height="24" viewBox="0 0 24 24" fill="none" xmlns="http://www.w3.org/2000/svg">
<path d="M15.25 12.4999L16.7482 13.9982L19.75 11.0017" stroke="#27AE60" stroke-linecap="round" stroke-linejoin="round"/>
<path d="M22.7142 12.4286C22.712 11.2144 22.2806 10.0401 21.4964 9.11311C20.7122 8.18615 19.6255 7.56622 18.4285 7.36285V5.14285C18.4286 5.08653 18.4176 5.03074 18.3961 4.97868C18.3747 4.92662 18.3431 4.87929 18.3034 4.83942L14.8748 1.41085C14.8349 1.37108 14.7876 1.33955 14.7355 1.31808C14.6835 1.29661 14.6277 1.28561 14.5714 1.28571H4.28564C4.17198 1.28571 4.06297 1.33086 3.9826 1.41123C3.90223 1.4916 3.85707 1.60061 3.85707 1.71428V3.85714H1.71422C1.60055 3.85714 1.49154 3.90229 1.41117 3.98266C1.3308 4.06303 1.28564 4.17204 1.28564 4.28571V22.2857C1.28564 22.3994 1.3308 22.5084 1.41117 22.5888C1.49154 22.6691 1.60055 22.7143 1.71422 22.7143H16.2856C16.3993 22.7143 16.5083 22.6691 16.5887 22.5888C16.6691 22.5084 16.7142 22.3994 16.7142 22.2857V20.1428H17.9999C18.1136 20.1428 18.2226 20.0977 18.303 20.0173C18.3834 19.937 18.4285 19.8279 18.4285 19.7143V17.4943C19.6255 17.2909 20.7122 16.671 21.4964 15.744C22.2806 14.8171 22.712 13.6428 22.7142 12.4286ZM14.9999 2.74885L16.9654 4.71428H14.9999V2.74885ZM15.8571 21.8571H2.14279V4.71428H3.85707V19.7143C3.85707 19.8279 3.90223 19.937 3.9826 20.0173C4.06297 20.0977 4.17198 20.1428 4.28564 20.1428H15.8571V21.8571ZM17.5714 19.2857H4.71422V2.14285H14.1428V5.14285C14.1428 5.25651 14.1879 5.36552 14.2683 5.4459C14.3487 5.52627 14.4577 5.57142 14.5714 5.57142H17.5714V7.28571C16.2074 7.28571 14.8993 7.82754 13.9348 8.79202C12.9703 9.75649 12.4285 11.0646 12.4285 12.4286C12.4285 13.7925 12.9703 15.1006 13.9348 16.0651C14.8993 17.0296 16.2074 17.5714 17.5714 17.5714V19.2857ZM17.5714 16.7143C16.7237 16.7143 15.8951 16.4629 15.1903 15.992C14.4856 15.5211 13.9363 14.8517 13.6119 14.0686C13.2875 13.2855 13.2026 12.4238 13.368 11.5925C13.5334 10.7611 13.9415 9.99747 14.5409 9.39811C15.1403 8.79874 15.9039 8.39056 16.7353 8.2252C17.5666 8.05983 18.4283 8.1447 19.2114 8.46908C19.9945 8.79346 20.6639 9.34277 21.1348 10.0475C21.6057 10.7523 21.8571 11.5809 21.8571 12.4286C21.8557 13.5648 21.4037 14.6541 20.6003 15.4575C19.7969 16.261 18.7076 16.7129 17.5714 16.7143Z" fill="#27AE60" stroke="#27AE60" stroke-width="0.25"/>
<path d="M8.9999 11.6966L7.67304 13.0286L7.15875 12.5143C7.07839 12.4338 6.96935 12.3886 6.85563 12.3885C6.7419 12.3884 6.6328 12.4335 6.55232 12.5139C6.47185 12.5942 6.42659 12.7032 6.42651 12.817C6.42643 12.9307 6.47153 13.0398 6.55189 13.1203L7.36875 13.9363C7.44912 14.0166 7.55811 14.0618 7.67175 14.0618C7.78539 14.0618 7.89438 14.0166 7.97475 13.9363L9.60761 12.3077C9.68808 12.2273 9.73334 12.1183 9.73342 12.0046C9.7335 11.8909 9.6884 11.7818 9.60804 11.7013C9.52768 11.6208 9.41864 11.5756 9.30491 11.5755C9.19118 11.5754 9.08208 11.6205 9.00161 11.7009L8.9999 11.6966Z" fill="#27AE60" stroke="#27AE60" stroke-width="0.25"/>
<path d="M8.9999 15.1251L7.67304 16.4571L7.15875 15.9429C7.11896 15.903 7.07171 15.8714 7.0197 15.8498C6.96769 15.8282 6.91194 15.8171 6.85563 15.817C6.79931 15.817 6.74355 15.8281 6.69151 15.8496C6.63946 15.8711 6.59217 15.9026 6.55232 15.9424C6.51248 15.9822 6.48086 16.0295 6.45927 16.0815C6.43768 16.1335 6.42655 16.1892 6.42651 16.2455C6.42647 16.3019 6.43753 16.3576 6.45904 16.4097C6.48055 16.4617 6.5121 16.509 6.55189 16.5489L7.36875 17.3649C7.44912 17.4452 7.55811 17.4903 7.67175 17.4903C7.78539 17.4903 7.89438 17.4452 7.97475 17.3649L9.60761 15.7363C9.68808 15.6559 9.73334 15.5469 9.73342 15.4332C9.7335 15.3194 9.6884 15.2103 9.60804 15.1299C9.52768 15.0494 9.41864 15.0041 9.30491 15.004C9.19118 15.004 9.08208 15.0491 9.00161 15.1294L8.9999 15.1251Z" fill="#27AE60" stroke="#27AE60" stroke-width="0.25"/>
<path d="M6.85704 4.71427H11.9999C12.1136 4.71427 12.2226 4.66912 12.3029 4.58875C12.3833 4.50838 12.4285 4.39937 12.4285 4.2857C12.4285 4.17204 12.3833 4.06303 12.3029 3.98266C12.2226 3.90228 12.1136 3.85713 11.9999 3.85713H6.85704C6.74337 3.85713 6.63437 3.90228 6.55399 3.98266C6.47362 4.06303 6.42847 4.17204 6.42847 4.2857C6.42847 4.39937 6.47362 4.50838 6.55399 4.58875C6.63437 4.66912 6.74337 4.71427 6.85704 4.71427Z" fill="#27AE60" stroke="#27AE60" stroke-width="0.25"/>
<path d="M11.9999 6.42856H6.85704C6.74337 6.42856 6.63437 6.47371 6.55399 6.55408C6.47362 6.63446 6.42847 6.74347 6.42847 6.85713C6.42847 6.97079 6.47362 7.0798 6.55399 7.16018C6.63437 7.24055 6.74337 7.2857 6.85704 7.2857H11.9999C12.1136 7.2857 12.2226 7.24055 12.3029 7.16018C12.3833 7.0798 12.4285 6.97079 12.4285 6.85713C12.4285 6.74347 12.3833 6.63446 12.3029 6.55408C12.2226 6.47371 12.1136 6.42856 11.9999 6.42856Z" fill="#27AE60" stroke="#27AE60" stroke-width="0.25"/>
<path d="M9.42847 9H6.85704C6.74337 9 6.63437 9.04515 6.55399 9.12553C6.47362 9.2059 6.42847 9.31491 6.42847 9.42857C6.42847 9.54224 6.47362 9.65124 6.55399 9.73162C6.63437 9.81199 6.74337 9.85714 6.85704 9.85714H9.42847C9.54213 9.85714 9.65114 9.81199 9.73151 9.73162C9.81189 9.65124 9.85704 9.54224 9.85704 9.42857C9.85704 9.31491 9.81189 9.2059 9.73151 9.12553C9.65114 9.04515 9.54213 9 9.42847 9Z" fill="#27AE60" stroke="#27AE60" stroke-width="0.25"/>
</svg>
