<svg width="24" height="24" viewBox="0 0 24 24" fill="none" xmlns="http://www.w3.org/2000/svg">
<path d="M21.5521 10.027C21.2415 10.027 20.9897 10.2788 20.9897 10.5894V16.4644C20.9888 17.3959 20.2338 18.1509 19.3022 18.152H13.6772C13.5555 18.1517 13.437 18.1912 13.3397 18.2644L9.73973 20.9645V18.7145C9.73973 18.4038 9.48793 18.152 9.17723 18.152H3.55223C2.62069 18.1509 1.86569 17.3959 1.86487 16.4645V6.33936C1.86583 5.40796 2.62069 4.65296 3.55223 4.65199H10.6772C10.9879 4.65199 11.2397 4.40019 11.2397 4.08949C11.2397 3.77893 10.9879 3.52713 10.6772 3.52713H3.55223C1.99957 3.52864 0.741241 4.78698 0.739727 6.33936V16.4645C0.741241 18.017 1.99957 19.2753 3.55223 19.277H8.61473V22.0895C8.61473 22.4001 8.86654 22.6519 9.17723 22.6519C9.299 22.6519 9.41734 22.6124 9.51476 22.5394L13.8653 19.2769H19.3022C20.8549 19.2753 22.1131 18.017 22.1147 16.4644V10.5895C22.1147 10.2788 21.8628 10.027 21.5521 10.027Z" fill="white" stroke="white" stroke-width="0.25"/>
<path d="M9.30209 6.90199H4.67736C4.36653 6.90199 4.11473 7.1538 4.11473 7.46449C4.11473 7.77505 4.36653 8.02686 4.67736 8.02686H9.30209C9.61279 8.02686 9.86473 7.77505 9.86473 7.46449C9.86473 7.1538 9.61279 6.90199 9.30209 6.90199Z" fill="white" stroke="white" stroke-width="0.25"/>
<path d="M4.67736 11.402H11.4374C11.7481 11.402 12 11.1501 12 10.8395C12 10.5288 11.7481 10.277 11.4374 10.277H4.67736C4.36653 10.277 4.11473 10.5288 4.11473 10.8395C4.11473 11.1501 4.36653 11.402 4.67736 11.402Z" fill="white" stroke="white" stroke-width="0.25"/>
<path d="M4.67736 14.7769H18.1772C18.4879 14.7769 18.7396 14.5251 18.7396 14.2144C18.7396 13.9038 18.4878 13.652 18.1772 13.652H4.67736C4.36653 13.652 4.11473 13.9038 4.11473 14.2144C4.11473 14.5251 4.36653 14.7769 4.67736 14.7769Z" fill="white" stroke="white" stroke-width="0.25"/>
<g clip-path="url(#clip0_12784_129360)">
<path d="M17 1.41667C16.0935 1.41667 15.2074 1.68548 14.4536 2.1891C13.6999 2.69273 13.1125 3.40854 12.7656 4.24604C12.4187 5.08353 12.3279 6.00509 12.5047 6.89417C12.6816 7.78325 13.1181 8.59992 13.7591 9.24091C14.4001 9.8819 15.2168 10.3184 16.1058 10.4953C16.9949 10.6721 17.9165 10.5814 18.754 10.2345C19.5915 9.88755 20.3073 9.30009 20.8109 8.54637C21.3145 7.79264 21.5833 6.9065 21.5833 6.00001C21.5819 4.78487 21.0986 3.61991 20.2393 2.76068C19.3801 1.90145 18.2151 1.41811 17 1.41667ZM17 9.75001C16.2583 9.75001 15.5333 9.53007 14.9166 9.11802C14.2999 8.70596 13.8193 8.12029 13.5355 7.43507C13.2516 6.74985 13.1774 5.99585 13.3221 5.26842C13.4667 4.54099 13.8239 3.8728 14.3483 3.34835C14.8728 2.82391 15.541 2.46675 16.2684 2.32206C16.9958 2.17737 17.7498 2.25163 18.4351 2.53546C19.1203 2.81929 19.706 3.29993 20.118 3.91662C20.5301 4.5333 20.75 5.25833 20.75 6.00001C20.7489 6.99423 20.3535 7.94742 19.6504 8.65044C18.9474 9.35346 17.9942 9.7489 17 9.75001Z" fill="white" stroke="white" stroke-width="0.25"/>
<path d="M18.8017 4.65125L16.5958 6.67334L15.6279 5.70542C15.5895 5.66563 15.5435 5.63388 15.4927 5.61205C15.4418 5.59021 15.3872 5.57871 15.3318 5.57823C15.2765 5.57775 15.2216 5.5883 15.1704 5.60925C15.1192 5.6302 15.0727 5.66114 15.0336 5.70026C14.9945 5.73938 14.9635 5.7859 14.9426 5.83711C14.9216 5.88831 14.9111 5.94318 14.9116 5.99851C14.912 6.05383 14.9235 6.10851 14.9454 6.15934C14.9672 6.21018 14.999 6.25615 15.0387 6.29459L16.2887 7.54459C16.3647 7.62053 16.467 7.66422 16.5744 7.66655C16.6817 7.66888 16.7858 7.62967 16.865 7.55709L19.365 5.26542C19.4464 5.19072 19.4949 5.08672 19.4996 4.97631C19.5044 4.8659 19.4651 4.75812 19.3904 4.67667C19.3157 4.59523 19.2117 4.5468 19.1013 4.54203C18.9909 4.53726 18.8831 4.57655 18.8017 4.65125Z" fill="white" stroke="white" stroke-width="0.25"/>
</g>
<defs>
<clipPath id="clip0_12784_129360">
<rect width="10" height="10" fill="white" transform="translate(12 1)"/>
</clipPath>
</defs>
</svg>
