<svg width="24" height="24" viewBox="0 0 24 24" fill="none" xmlns="http://www.w3.org/2000/svg">
<path d="M12 0.499973C18.3513 0.499973 23.5 5.6487 23.5 12C23.5 18.3512 18.3513 23.5 12 23.5C5.64874 23.5 0.500019 18.3512 0.500019 12C0.500018 5.6487 5.64874 0.499973 12 0.499973ZM12 22.7834C17.9556 22.7834 22.7835 17.9555 22.7835 12C22.7835 6.04443 17.9556 1.21652 12 1.21652C6.04448 1.21652 1.21656 6.04444 1.21656 12C1.21656 17.9555 6.04448 22.7834 12 22.7834Z" fill="white" stroke="white" stroke-width="0.649412" stroke-linecap="round" stroke-linejoin="round"/>
<path d="M16.0989 5.19676C15.8889 5.04836 15.6046 5.07282 15.4231 5.25496L8.2431 12.4555C8.07989 12.6192 8.03169 12.8628 8.12032 13.0762C8.20891 13.2897 8.41545 13.4276 8.64655 13.4276H10.7258L8.16588 18.8343C8.05609 19.0661 8.12864 19.3415 8.33828 19.4893C8.5469 19.6365 8.83107 19.6131 9.01311 19.4313L13.9663 14.478C14.1148 14.3295 14.1148 14.0887 13.9663 13.9402C13.8178 13.7917 13.5771 13.7917 13.4285 13.9402L9.43274 17.936L11.5292 13.5082C11.6161 13.3246 11.6031 13.1126 11.4945 12.941C11.3859 12.7694 11.1998 12.667 10.9967 12.667H9.10636L14.9893 6.76712L12.8858 11.1619C12.7979 11.3455 12.8102 11.558 12.9187 11.7303C13.0272 11.9025 13.2135 12.0054 13.4171 12.0054H15.3632L14.6116 12.7569C14.4631 12.9055 14.4631 13.1462 14.6116 13.2948C14.7602 13.4432 15.0009 13.4432 15.1495 13.2948L16.2268 12.2175C16.3903 12.0539 16.4388 11.8102 16.3503 11.5965C16.2618 11.3829 16.0552 11.2448 15.8239 11.2448H13.6893L16.2698 5.85328C16.3809 5.62132 16.3089 5.34522 16.0989 5.19676Z" fill="white" stroke="white" stroke-width="0.3"/>
</svg>
