<svg width="17" height="17" viewBox="0 0 17 17" fill="none" xmlns="http://www.w3.org/2000/svg">
<path fill-rule="evenodd" clip-rule="evenodd" d="M2.42 0.5C1.35961 0.5 0.5 1.35961 0.5 2.42V14.58C0.5 15.6404 1.35961 16.5 2.42 16.5H14.58C15.6404 16.5 16.5 15.6404 16.5 14.58V2.42C16.5 1.35961 15.6404 0.5 14.58 0.5H2.42ZM5.29698 12.4204C5.45577 12.5 5.53517 12.5 5.69396 12.5C5.85275 12.5 5.93215 12.5 6.09094 12.4204L11.6487 9.23632C11.8868 9.07712 12.0456 8.83831 12.0456 8.5199C12.0456 8.20149 11.8868 7.96269 11.6487 7.80348L6.09094 4.6194C5.85275 4.4602 5.53517 4.4602 5.29698 4.6194C5.05879 4.77861 4.9 5.01741 4.9 5.33582V11.704C4.9 12.0224 5.05879 12.2612 5.29698 12.4204ZM9.66375 8.5199L6.48792 10.3507V6.68906L9.66375 8.5199Z" fill="#844FDA"/>
</svg>
