<svg width="24" height="24" viewBox="0 0 24 24" fill="none" xmlns="http://www.w3.org/2000/svg">
<g clip-path="url(#clip0_13956_49665)">
<path d="M7.96803 10.7424H4.66493C4.51331 10.7424 4.36791 10.6822 4.2607 10.5749C4.15349 10.4677 4.09326 10.3223 4.09326 10.1707C4.09326 10.0191 4.15349 9.87369 4.2607 9.76648C4.36791 9.65927 4.51331 9.59904 4.66493 9.59904H7.39636V5.81117C7.39636 5.65955 7.45659 5.51415 7.5638 5.40694C7.67101 5.29973 7.81641 5.2395 7.96803 5.2395C8.11964 5.2395 8.26505 5.29973 8.37226 5.40694C8.47947 5.51415 8.5397 5.65955 8.5397 5.81117V10.1707C8.5397 10.3223 8.47947 10.4677 8.37226 10.5749C8.26505 10.6822 8.11964 10.7424 7.96803 10.7424Z" fill="white" stroke="white" stroke-width="0.218402"/>
<path d="M18.4877 22.9063H12.9448C12.5694 22.9063 12.1977 22.8324 11.8509 22.6888C11.5041 22.5451 11.189 22.3346 10.9236 22.0692C10.6582 21.8037 10.4476 21.4886 10.304 21.1418C10.1604 20.795 10.0864 20.4234 10.0864 20.048V10.7252C10.0864 10.5736 10.1467 10.4282 10.2539 10.321C10.3611 10.2138 10.5065 10.1536 10.6581 10.1536H20.7743C20.926 10.1536 21.0714 10.2138 21.1786 10.321C21.2858 10.4282 21.346 10.5736 21.346 10.7252V20.048C21.346 20.4234 21.2721 20.795 21.1284 21.1418C20.9848 21.4886 20.7742 21.8037 20.5088 22.0692C20.2434 22.3346 19.9283 22.5451 19.5815 22.6888C19.2347 22.8324 18.863 22.9063 18.4877 22.9063ZM11.2298 11.2969V20.048C11.2298 20.5028 11.4104 20.9391 11.7321 21.2607C12.0537 21.5823 12.4899 21.763 12.9448 21.763H18.4877C18.9425 21.763 19.3787 21.5823 19.7004 21.2607C20.022 20.9391 20.2027 20.5028 20.2027 20.048V11.2969H11.2298Z" fill="white" stroke="white" stroke-width="0.218402"/>
<path d="M22.2801 19.3827H20.7709C20.6193 19.3827 20.4739 19.3224 20.3667 19.2152C20.2594 19.108 20.1992 18.9626 20.1992 18.811C20.1992 18.6594 20.2594 18.514 20.3667 18.4068C20.4739 18.2996 20.6193 18.2393 20.7709 18.2393H22.2801C22.4317 18.2393 22.5771 18.1791 22.6843 18.0719C22.7915 17.9647 22.8518 17.8193 22.8518 17.6677V15.3695C22.8518 15.2179 22.7915 15.0725 22.6843 14.9653C22.5771 14.8581 22.4317 14.7979 22.2801 14.7979H20.7709C20.6193 14.7979 20.4739 14.7376 20.3667 14.6304C20.2594 14.5232 20.1992 14.3778 20.1992 14.2262C20.1992 14.0746 20.2594 13.9292 20.3667 13.822C20.4739 13.7148 20.6193 13.6545 20.7709 13.6545H22.2801C22.7349 13.6545 23.1712 13.8352 23.4928 14.1569C23.8144 14.4785 23.9951 14.9147 23.9951 15.3695V17.6677C23.9951 18.1225 23.8144 18.5587 23.4928 18.8803C23.1712 19.202 22.7349 19.3827 22.2801 19.3827Z" fill="white" stroke="white" stroke-width="0.218402"/>
<path d="M14.6725 9.53386C14.5209 9.53386 14.3755 9.47363 14.2683 9.36642C14.1611 9.25921 14.1008 9.11381 14.1008 8.96219V7.12028C14.1008 6.3622 14.402 5.63517 14.938 5.09912C15.4741 4.56308 16.2011 4.26194 16.9592 4.26194H19.0675C19.2191 4.26194 19.3645 4.20171 19.4717 4.0945C19.5789 3.98729 19.6392 3.84188 19.6392 3.69027C19.6398 3.00181 19.9135 2.34173 20.4003 1.85492C20.8871 1.36811 21.5472 1.09436 22.2357 1.09375H23.4236C23.5752 1.09375 23.7206 1.15398 23.8278 1.26119C23.935 1.3684 23.9953 1.5138 23.9953 1.66542C23.9953 1.81703 23.935 1.96244 23.8278 2.06965C23.7206 2.17686 23.5752 2.23709 23.4236 2.23709H22.2357C21.8504 2.23739 21.4809 2.39059 21.2085 2.66305C20.936 2.93551 20.7828 3.30495 20.7825 3.69027C20.7825 4.14512 20.6018 4.58133 20.2802 4.90296C19.9586 5.22459 19.5223 5.40527 19.0675 5.40527H16.9592C16.5043 5.40527 16.0681 5.58596 15.7465 5.90759C15.4249 6.22921 15.2442 6.66543 15.2442 7.12028V8.96219C15.2442 9.11381 15.1839 9.25921 15.0767 9.36642C14.9695 9.47363 14.8241 9.53386 14.6725 9.53386Z" fill="white" stroke="white" stroke-width="0.218402"/>
<path d="M19.4825 7.24023H16.8688C16.7172 7.24023 16.5718 7.18 16.4646 7.07279C16.3574 6.96558 16.2971 6.82017 16.2971 6.66856C16.2971 6.51694 16.3574 6.37154 16.4646 6.26433C16.5718 6.15712 16.7172 6.09689 16.8688 6.09689H19.4825C20.0781 6.09628 20.6492 5.85939 21.0704 5.43819C21.4916 5.01699 21.7285 4.4459 21.7291 3.85023C21.7291 3.69862 21.7893 3.55321 21.8965 3.446C22.0038 3.33879 22.1492 3.27856 22.3008 3.27856C22.4524 3.27856 22.5978 3.33879 22.705 3.446C22.8122 3.55321 22.8724 3.69862 22.8724 3.85023C22.8715 4.74904 22.5141 5.61077 21.8785 6.24632C21.243 6.88187 20.3813 7.23932 19.4825 7.24023Z" fill="white" stroke="white" stroke-width="0.218402"/>
<path d="M7.96334 18.1293C5.85133 18.1293 3.82582 17.2903 2.33241 15.7969C0.838992 14.3035 0 12.278 0 10.166C0 8.05399 0.838992 6.02849 2.33241 4.53507C3.82582 3.04165 5.85133 2.20266 7.96334 2.20266C9.99341 2.19751 11.9464 2.97992 13.4113 4.38529C13.4686 4.43639 13.515 4.4985 13.5478 4.56792C13.5806 4.63733 13.599 4.71264 13.6021 4.78935C13.6051 4.86605 13.5926 4.94258 13.5655 5.01437C13.5383 5.08616 13.4969 5.15174 13.4438 5.20719C13.3908 5.26265 13.327 5.30685 13.2565 5.33716C13.186 5.36746 13.1101 5.38325 13.0333 5.38359C12.9566 5.38392 12.8805 5.3688 12.8097 5.33911C12.7389 5.30942 12.6749 5.26577 12.6213 5.21078C11.3686 4.00965 9.69885 3.34118 7.96334 3.346C6.15456 3.3554 4.4236 4.08295 3.15125 5.36859C1.8789 6.65424 1.16938 8.39267 1.17878 10.2014C1.18818 12.0102 1.91573 13.7412 3.20137 15.0135C4.48702 16.2859 6.22545 16.9954 8.03423 16.986C8.11682 16.9879 8.19942 16.9829 8.28119 16.9711C8.35626 16.9563 8.43354 16.9567 8.50846 16.9723C8.58338 16.9879 8.6544 17.0184 8.71732 17.0619C8.78023 17.1055 8.83377 17.1612 8.87474 17.2259C8.91572 17.2905 8.9433 17.3627 8.95585 17.4382C8.96841 17.5137 8.96568 17.5909 8.94783 17.6653C8.92999 17.7397 8.89738 17.8098 8.85195 17.8714C8.80652 17.933 8.74918 17.9848 8.68335 18.0238C8.61752 18.0628 8.54452 18.0882 8.46869 18.0985C8.30141 18.123 8.13236 18.1333 7.96334 18.1293Z" fill="white" stroke="white" stroke-width="0.218402"/>
<path d="M22.1624 22.9063H9.27015C9.11854 22.9063 8.97313 22.846 8.86592 22.7388C8.75872 22.6316 8.69849 22.4862 8.69849 22.3346C8.69849 22.183 8.75872 22.0376 8.86592 21.9304C8.97313 21.8232 9.11854 21.7629 9.27015 21.7629H22.1624C22.314 21.7629 22.4594 21.8232 22.5667 21.9304C22.6739 22.0376 22.7341 22.183 22.7341 22.3346C22.7341 22.4862 22.6739 22.6316 22.5667 22.7388C22.4594 22.846 22.314 22.9063 22.1624 22.9063Z" fill="white" stroke="white" stroke-width="0.218402"/>
</g>
<defs>
<clipPath id="clip0_13956_49665">
<rect width="24" height="24" fill="white"/>
</clipPath>
</defs>
</svg>
