<svg width="24" height="24" viewBox="0 0 24 24" fill="none" xmlns="http://www.w3.org/2000/svg">
<path d="M21.3602 2.81002C21.0459 2.4405 20.5877 2.22866 20.1029 2.22866H18.5119V1.73096C18.5119 1.11509 18.0107 0.614014 17.3949 0.614014H6.60517C5.98926 0.614014 5.48827 1.11509 5.48827 1.73092V2.22861H3.89702C3.41227 2.22861 2.95398 2.4405 2.63979 2.80997C2.32881 3.17562 2.1944 3.65588 2.27112 4.12756C2.6892 6.69832 4.30705 8.96945 6.60317 10.2152C6.81297 10.7196 7.05057 11.1974 7.31516 11.6425C8.16031 13.0647 9.21099 14.0475 10.3675 14.5228C10.4847 15.7079 9.69614 16.8305 8.50861 17.098C8.50607 17.0986 8.50429 17.0995 8.5018 17.1001C8.27003 17.1555 8.09751 17.3634 8.09751 17.6122V20.0301H7.11964C6.2478 20.0301 5.53853 20.7393 5.53853 21.6112V22.8591C5.53853 23.1502 5.77448 23.3861 6.06558 23.3861H17.9848C18.2759 23.3861 18.5119 23.1502 18.5119 22.8591V21.6112C18.5119 20.7393 17.8026 20.0301 16.9308 20.0301H15.9528V17.6122C15.9528 17.363 15.7796 17.1547 15.5473 17.0998C15.5451 17.0993 15.543 17.0986 15.5408 17.098C14.3443 16.8287 13.5543 15.6948 13.6838 14.5009C14.8201 14.0178 15.8524 13.0438 16.6851 11.6426C16.9497 11.1974 17.1872 10.7196 17.3971 10.2151C19.693 8.96931 21.3108 6.69823 21.7289 4.12756C21.8056 3.65588 21.6712 3.17566 21.3602 2.81002ZM3.31153 3.95832C3.28413 3.78989 3.3307 3.62457 3.44269 3.49283C3.55633 3.35922 3.72187 3.28263 3.89698 3.28263H5.48823V4.25231C5.48823 5.7728 5.68228 7.24561 6.05006 8.5925C4.60474 7.45038 3.60961 5.79126 3.31153 3.95832ZM16.9308 21.0842C17.2214 21.0842 17.4578 21.3206 17.4578 21.6112V22.3321H6.59259V21.6112C6.59259 21.3206 6.82903 21.0842 7.11964 21.0842H16.9308ZM14.8987 18.1392V20.0301H9.1517V18.1392H14.8987ZM10.5339 17.0852C10.6642 16.9418 10.7833 16.7864 10.8898 16.62C11.241 16.0712 11.4254 15.4477 11.4337 14.8109C11.6209 14.8364 11.8098 14.85 12.0004 14.85C12.2077 14.85 12.4131 14.8341 12.6165 14.804C12.6285 15.6597 12.9615 16.4696 13.5215 17.0851H10.5339V17.0852ZM17.4577 4.25236C17.4577 6.84888 16.8615 9.28221 15.7788 11.104C14.7473 12.8399 13.4054 13.7959 12.0003 13.7959C10.5949 13.7959 9.25288 12.84 8.22124 11.1041C7.13859 9.28225 6.54233 6.84892 6.54233 4.25245V1.73092C6.54233 1.69623 6.57053 1.66807 6.60513 1.66807H17.3948C17.4295 1.66807 17.4577 1.69627 17.4577 1.73092V4.25236ZM20.6885 3.95832C20.3904 5.79113 19.3954 7.4502 17.9501 8.59241C18.3178 7.24552 18.5119 5.7728 18.5119 4.25236V3.28267H20.1029C20.2781 3.28267 20.4436 3.35931 20.5572 3.49287C20.6692 3.62457 20.7158 3.78989 20.6885 3.95832Z" fill="white" stroke="white" stroke-width="0.23721"/>
<path d="M15.1996 6.02487C15.1376 5.83415 14.9727 5.69512 14.7742 5.66621L13.1838 5.43511L12.4725 3.99397C12.3837 3.8141 12.2005 3.7002 11.9999 3.7002C11.7993 3.7002 11.6161 3.8141 11.5273 3.99397L10.8161 5.43511L9.22567 5.66621C9.02713 5.69503 8.86221 5.83411 8.80021 6.02491C8.73825 6.21576 8.78993 6.42516 8.93359 6.56522L10.0844 7.68697L9.81272 9.27093C9.77879 9.46867 9.86004 9.66846 10.0224 9.78641C10.1846 9.90432 10.3999 9.91985 10.5774 9.82653L11.9999 9.07874L13.4224 9.82653C13.4995 9.86705 13.5837 9.88702 13.6675 9.88702C13.7768 9.88702 13.8856 9.85309 13.9774 9.78637C14.1397 9.66842 14.221 9.46863 14.187 9.27088L13.9153 7.68693L15.0662 6.56518C15.2099 6.42516 15.2616 6.21572 15.1996 6.02487ZM12.9813 7.12554C12.857 7.24661 12.8003 7.42104 12.8297 7.59206L12.9676 8.39664L12.2451 8.01677C12.1684 7.97638 12.0841 7.95628 11.9999 7.95628C11.9156 7.95628 11.8314 7.97647 11.7546 8.01677L11.0321 8.39664L11.1701 7.59206C11.1994 7.42109 11.1427 7.24665 11.0185 7.12554L10.434 6.55579L11.2418 6.43837C11.4134 6.41346 11.5619 6.30561 11.6386 6.15007L11.9999 5.41807L12.3612 6.15007C12.438 6.30561 12.5863 6.41342 12.758 6.43837L13.5658 6.55579L12.9813 7.12554Z" fill="white" stroke="white" stroke-width="0.23721"/>
</svg>
