<svg width="20" height="20" viewBox="0 0 20 20" fill="none" xmlns="http://www.w3.org/2000/svg">
<g clip-path="url(#clip0_13121_133318)">
<path d="M0.390976 5.01383L9.80504 1.6923C9.93117 1.64777 10.0688 1.64777 10.1949 1.6923L19.609 5.01383C19.843 5.09641 19.9997 5.3175 20 5.5657C20.0003 5.8139 19.8442 6.03535 19.6103 6.11847L10.1962 9.46523C10.1328 9.48781 10.0664 9.4991 10 9.4991C9.93359 9.4991 9.86723 9.48781 9.80375 9.46523L0.389688 6.11847C0.155821 6.03535 -0.000272751 5.8139 0 5.5657C0.000312805 5.3175 0.156954 5.09641 0.390976 5.01383Z" fill="#0B2585"/>
<path d="M1.40918 12.8349V7.724L2.58105 8.1406V12.8349C2.93402 13.0381 3.17188 13.4188 3.17188 13.8553C3.17188 14.2918 2.93402 14.6725 2.58105 14.8756V17.7552C2.58105 18.0788 2.31871 18.3411 1.99512 18.3411C1.67152 18.3411 1.40918 18.0788 1.40918 17.7552V14.8757C1.05621 14.6726 0.818359 14.2918 0.818359 13.8553C0.818359 13.4188 1.05617 13.0381 1.40918 12.8349Z" fill="#0B2585"/>
<path d="M10.0017 10.671C10.2029 10.671 10.4009 10.6368 10.5905 10.5694L15.8828 8.68796V11.2664C15.8828 11.8972 15.2247 12.4307 13.9268 12.8519C12.7955 13.2191 11.4016 13.4214 10.0017 13.4214C8.60188 13.4214 7.20793 13.2191 6.0766 12.8519C4.77871 12.4307 4.12062 11.8972 4.12062 11.2664V8.68796L9.41289 10.5694C9.6025 10.6368 9.80059 10.671 10.0017 10.671Z" fill="#0B2585"/>
</g>
<defs>
<clipPath id="clip0_13121_133318">
<rect width="20" height="20" fill="white" transform="matrix(-1 0 0 1 20 0)"/>
</clipPath>
</defs>
</svg>
