<svg width="16" height="16" viewBox="0 0 16 16" fill="none" xmlns="http://www.w3.org/2000/svg">
<path d="M11.8884 2.55551H9.5551C9.5551 1.99978 9.25862 1.48626 8.77724 1.20839C8.29598 0.930535 7.70303 0.930535 7.2218 1.20839C6.74044 1.48625 6.44394 1.99978 6.44394 2.55551H4.11064C3.49192 2.55551 2.89843 2.80134 2.4608 3.23897C2.02317 3.67659 1.77734 4.27008 1.77734 4.88881V12.6667C1.77734 13.2854 2.02317 13.8789 2.4608 14.3165C2.89843 14.7542 3.49192 15 4.11064 15H11.8885C12.5073 15 13.1007 14.7542 13.5384 14.3165C13.976 13.8789 14.2218 13.2854 14.2218 12.6667V4.88881C14.2218 4.27008 13.976 3.67659 13.5384 3.23897C13.1007 2.80134 12.5073 2.55551 11.8885 2.55551H11.8884ZM13.444 12.6664L13.4438 12.6665C13.4435 13.0789 13.2794 13.4743 12.9877 13.7658C12.6962 14.0575 12.3008 14.2215 11.8884 14.2219H4.11051C3.69815 14.2215 3.30273 14.0575 3.0112 13.7658C2.71953 13.4743 2.55547 13.0789 2.55507 12.6665V4.88861C2.55546 4.47624 2.71952 4.08082 3.0112 3.78929C3.30273 3.49762 3.69815 3.33356 4.11051 3.33316H4.88837C4.88837 3.53941 4.97027 3.73719 5.1161 3.88302C5.26193 4.02898 5.45983 4.11088 5.66609 4.11088H10.3327C10.5389 4.11088 10.7369 4.02898 10.8827 3.88302C11.0285 3.73719 11.1104 3.53939 11.1104 3.33316H11.8883C12.3006 3.33355 12.6961 3.49761 12.9876 3.78929C13.2792 4.08082 13.4433 4.47624 13.4437 4.88861L13.444 12.6664ZM7.99939 6.44445C8.41188 6.44445 8.80758 6.60838 9.09937 6.90005C9.39103 7.19184 9.55497 7.5874 9.55497 8.00003C9.55497 8.41252 9.39103 8.80822 9.09937 9.09988C8.80758 9.39167 8.41188 9.55548 7.99939 9.55548C7.58689 9.55548 7.1912 9.39167 6.8994 9.09988C6.60774 8.80822 6.44381 8.41252 6.44381 8.00003C6.44433 7.58754 6.60839 7.19224 6.89994 6.90058C7.1916 6.60892 7.58703 6.44499 7.99939 6.44445ZM7.99939 5.66673C7.38053 5.66673 6.78704 5.91256 6.34955 6.35005C5.91192 6.78768 5.66609 7.38117 5.66609 8.00003C5.66609 8.61876 5.91192 9.21225 6.34955 9.64987C6.78704 10.0875 7.38053 10.3333 7.99939 10.3333C8.61825 10.3333 9.21174 10.0875 9.64923 9.64987C10.0869 9.21225 10.3327 8.61876 10.3327 8.00003C10.3327 7.38117 10.0869 6.78768 9.64923 6.35005C9.21174 5.91256 8.61825 5.66673 7.99939 5.66673ZM10.3327 11.889V11.8888C10.745 11.8894 11.1405 12.0534 11.4321 12.345C11.7237 12.6366 11.8877 13.0321 11.8883 13.4444C11.888 13.6507 11.806 13.8483 11.6601 13.9941C11.5143 14.14 11.3166 14.222 11.1104 14.2221H4.88851C4.68226 14.222 4.48461 14.14 4.33878 13.9941C4.19295 13.8483 4.11092 13.6507 4.11066 13.4444C4.11118 13.0321 4.27524 12.6366 4.56678 12.345C4.85845 12.0534 5.25387 11.8894 5.66624 11.8888H10.3328M10.3328 11.1111H5.66624C5.04738 11.1111 4.45389 11.357 4.01639 11.7946C3.57876 12.2321 3.33293 12.8256 3.33293 13.4444C3.33293 13.8569 3.49687 14.2526 3.78853 14.5444C4.08032 14.8361 4.47589 15 4.88851 15H11.1108H11.1106C11.5233 15 11.9188 14.8361 12.2106 14.5444C12.5023 14.2526 12.6662 13.8569 12.6662 13.4444C12.6662 12.8256 12.4204 12.2321 11.9827 11.7946C11.5453 11.357 10.9518 11.1111 10.3329 11.1111H10.3328Z" fill="#3C4043"/>
</svg>
