<svg width="20" height="21" viewBox="0 0 20 21" fill="none" xmlns="http://www.w3.org/2000/svg">
<g clip-path="url(#clip0_14797_165652)">
<path d="M4.16667 16.3333H5.345L13.1067 8.57164L11.9283 7.3933L4.16667 15.155V16.3333ZM17.5 18H2.5V14.4641L13.6958 3.2683C13.8521 3.11208 14.064 3.02431 14.285 3.02431C14.506 3.02431 14.7179 3.11208 14.8742 3.2683L17.2317 5.6258C17.3879 5.78208 17.4757 5.994 17.4757 6.21497C17.4757 6.43594 17.3879 6.64786 17.2317 6.80414L7.7025 16.3333H17.5V18ZM13.1067 6.21497L14.285 7.3933L15.4633 6.21497L14.285 5.03664L13.1067 6.21497V6.21497Z" fill="#F6B91A"/>
</g>
<defs>
<clipPath id="clip0_14797_165652">
<rect width="20" height="20" fill="white" transform="translate(0 0.5)"/>
</clipPath>
</defs>
</svg>
