<svg width="16" height="16" viewBox="0 0 16 16" fill="none" xmlns="http://www.w3.org/2000/svg">
<path d="M6.25012 1.4H6.25L2.75 1.4L2.74988 1.4C2.392 1.40043 2.0489 1.54279 1.79584 1.79584C1.54279 2.0489 1.40043 2.392 1.4 2.74988V2.75L1.4 6.25L1.4 6.25012C1.40043 6.608 1.54279 6.9511 1.79584 7.20416C2.0489 7.45721 2.392 7.59957 2.74988 7.6H2.75H6.25H6.25012C6.608 7.59957 6.9511 7.45721 7.20416 7.20416C7.45721 6.9511 7.59957 6.608 7.6 6.25012V6.25V2.75V2.74988C7.59957 2.392 7.45721 2.0489 7.20416 1.79584C6.9511 1.54279 6.608 1.40043 6.25012 1.4ZM9.75 1.4L9.74988 1.4C9.392 1.40043 9.0489 1.54279 8.79584 1.79584C8.54279 2.0489 8.40043 2.392 8.4 2.74988V2.75V6.25V6.25012C8.40043 6.608 8.54279 6.9511 8.79584 7.20416C9.0489 7.45721 9.392 7.59957 9.74988 7.6H9.75H13.25H13.2501C13.608 7.59957 13.9511 7.45721 14.2042 7.20416C14.4572 6.9511 14.5996 6.608 14.6 6.25012V6.25V2.75V2.74988C14.5996 2.392 14.4572 2.0489 14.2042 1.79584C13.9511 1.54279 13.608 1.40043 13.2501 1.4L13.25 1.5V1.4L9.75 1.4ZM2.75 8.4H2.74988C2.392 8.40043 2.0489 8.54279 1.79584 8.79584C1.54279 9.0489 1.40043 9.392 1.4 9.74988V9.75L1.4 13.25L1.4 13.2501C1.40043 13.608 1.54279 13.9511 1.79584 14.2042C2.0489 14.4572 2.392 14.5996 2.74988 14.6H2.75H6.25H6.25012C6.608 14.5996 6.9511 14.4572 7.20416 14.2042C7.45721 13.9511 7.59957 13.608 7.6 13.2501V13.25V9.75V9.74988C7.59957 9.392 7.45721 9.0489 7.20416 8.79584C6.9511 8.54279 6.608 8.40043 6.25012 8.4L6.25 8.5V8.4H2.75ZM13.4955 10.1666C13.7592 10.5613 13.9 11.0253 13.9 11.4999C13.8993 12.1362 13.6462 12.7463 13.1963 13.1963C12.7463 13.6462 12.1362 13.8993 11.4999 13.9C11.0253 13.9 10.5613 13.7592 10.1666 13.4955C9.77195 13.2318 9.46434 12.857 9.28269 12.4184C9.10104 11.9799 9.05351 11.4973 9.14612 11.0318C9.23872 10.5662 9.4673 10.1386 9.80294 9.80294C10.1386 9.4673 10.5662 9.23872 11.0318 9.14612C11.4973 9.05351 11.9799 9.10104 12.4184 9.28269C12.857 9.46434 13.2318 9.77195 13.4955 10.1666ZM14.6 11.5V11.4999C14.5991 10.678 14.2722 9.89007 13.6911 9.30892C13.1099 8.72777 12.322 8.40089 11.5001 8.4L11.5 8.5V8.4C10.8869 8.4 10.2875 8.58181 9.77773 8.92244C9.26794 9.26308 8.8706 9.74723 8.63597 10.3137C8.40134 10.8801 8.33995 11.5034 8.45957 12.1048C8.57918 12.7061 8.87443 13.2585 9.30797 13.692C9.74151 14.1256 10.2939 14.4208 10.8952 14.5404C11.4966 14.66 12.1199 14.5987 12.6863 14.364C13.2528 14.1294 13.7369 13.7321 14.0776 13.2223C14.4182 12.7125 14.6 12.1131 14.6 11.5ZM6.9 6.25C6.9 6.42239 6.83152 6.58772 6.70962 6.70962C6.58772 6.83152 6.42239 6.9 6.25 6.9H2.75C2.57761 6.9 2.41228 6.83152 2.29038 6.70962C2.16848 6.58772 2.1 6.42239 2.1 6.25V2.75C2.1 2.57761 2.16848 2.41228 2.29038 2.29038C2.41228 2.16848 2.57761 2.1 2.75 2.1H6.25C6.42239 2.1 6.58772 2.16848 6.70962 2.29038C6.83152 2.41228 6.9 2.57761 6.9 2.75V6.25ZM13.9 6.25C13.9 6.42239 13.8315 6.58772 13.7096 6.70962C13.5877 6.83152 13.4224 6.9 13.25 6.9H9.75C9.57761 6.9 9.41228 6.83152 9.29038 6.70962C9.16848 6.58772 9.1 6.42239 9.1 6.25V2.75C9.1 2.57761 9.16848 2.41228 9.29038 2.29038C9.41228 2.16848 9.57761 2.1 9.75 2.1H13.25C13.4224 2.1 13.5877 2.16848 13.7096 2.29038C13.8315 2.41228 13.9 2.57761 13.9 2.75V6.25ZM6.9 13.25C6.9 13.4224 6.83152 13.5877 6.70962 13.7096C6.58772 13.8315 6.42239 13.9 6.25 13.9H2.75C2.57761 13.9 2.41228 13.8315 2.29038 13.7096C2.16848 13.5877 2.1 13.4224 2.1 13.25V9.75C2.1 9.57761 2.16848 9.41228 2.29038 9.29038C2.41228 9.16848 2.57761 9.1 2.75 9.1H6.25C6.42239 9.1 6.58772 9.16848 6.70962 9.29038C6.83152 9.41228 6.9 9.57761 6.9 9.75V13.25Z" fill="#3C4043" stroke="#3C4043" stroke-width="0.2"/>
</svg>
