<svg width="20" height="20" viewBox="0 0 20 20" fill="none" xmlns="http://www.w3.org/2000/svg">
<g clip-path="url(#clip0_9395_83503)">
<path d="M5.83268 3.33073V1.66406H14.166V3.33073H18.3327V4.9974H16.666V17.4974C16.666 17.7184 16.5782 17.9304 16.4219 18.0867C16.2657 18.2429 16.0537 18.3307 15.8327 18.3307H4.16602C3.945 18.3307 3.73304 18.2429 3.57676 18.0867C3.42048 17.9304 3.33268 17.7184 3.33268 17.4974V4.9974H1.66602V3.33073H5.83268ZM4.99935 4.9974V16.6641H14.9993V4.9974H4.99935ZM7.49935 7.4974H9.16602V14.1641H7.49935V7.4974ZM10.8327 7.4974H12.4993V14.1641H10.8327V7.4974Z" fill="black"/>
</g>
<defs>
<clipPath id="clip0_9395_83503">
<rect width="20" height="20" fill="white"/>
</clipPath>
</defs>
</svg>
