<svg width="24" height="24" viewBox="0 0 24 24" fill="none" xmlns="http://www.w3.org/2000/svg">
<path d="M2.25495 22.4348H12.395C13.458 22.4348 14.3218 21.5709 14.3218 20.5079V10.9061C14.3218 9.84316 13.458 8.97931 12.395 8.97931H11.6307C11.5114 8.97931 11.3885 8.98037 11.0925 8.98037C10.7964 8.98037 10.6599 8.98037 10.5543 8.98037L4.09567 8.97931C3.77716 8.97931 3.85344 8.97931 3.55742 8.97931C3.26139 8.97931 3.35142 8.97931 3.01921 8.97931H2.25495C1.19197 8.97931 0.328125 9.84316 0.328125 10.9061V20.5079C0.328125 21.5709 1.19197 22.4348 2.25495 22.4348ZM1.40459 10.9061C1.40459 10.4379 1.78671 10.0558 2.25495 10.0558H3.01921C3.33282 10.0558 3.26139 10.0558 3.55742 10.0558C3.85344 10.0558 3.90587 10.0558 4.09563 10.0558H10.5543C11.44 10.0558 10.7964 10.0558 11.0925 10.0558C11.3885 10.0558 11.44 10.0558 11.6307 10.0558H12.3949C12.8632 10.0558 13.2453 10.4379 13.2453 10.9061V12.4777H1.40459V10.9061ZM1.40459 13.5542H13.2454V20.5079C13.2454 20.9762 12.8633 21.3583 12.395 21.3583H2.25495C1.78671 21.3583 1.40459 20.9762 1.40459 20.5079V13.5542Z" fill="white" stroke="white" stroke-width="0.46855"/>
<path d="M20.3555 15.674C20.2852 15.7074 20.2104 15.7241 20.1361 15.7241C20.0233 15.7241 19.9116 15.6866 19.82 15.6133C19.82 15.6133 17.593 13.9424 16.166 12.8008H15.5585C15.0371 12.8008 14.9963 11.6787 15.502 11.6787H16.3941L19.6304 14.1666V12.1843C19.6304 11.9047 19.8564 11.6787 20.1361 11.6787H22.1588C22.4379 11.6787 22.6644 11.4516 22.6644 11.173V3.08223C22.6644 2.80361 22.4379 2.57656 22.1588 2.57656H10.0226C9.74349 2.57656 9.51695 2.80361 9.51695 3.08223L9.51695 7.43053C9.51695 7.88879 8.52141 7.9204 8.5056 7.43053L8.5056 4.09695V3.08223C8.5056 2.24585 9.18624 1.56522 10.0226 1.56522H22.1588C22.9951 1.56522 23.6758 2.24585 23.6758 3.08223V11.173C23.6758 12.0094 22.9951 12.69 22.1588 12.69H20.6417V15.2184C20.6417 15.4131 20.53 15.5895 20.3555 15.674Z" fill="white" stroke="white" stroke-width="0.521739"/>
</svg>
