<svg width="24" height="24" viewBox="0 0 24 24" fill="none" xmlns="http://www.w3.org/2000/svg">
<path d="M16.4444 14.224H7.55556C7.26087 14.224 6.97826 14.341 6.76988 14.5494C6.56151 14.7578 6.44444 15.0404 6.44444 15.3351C6.44444 15.6298 6.56151 15.9124 6.76988 16.1207C6.97826 16.3291 7.26087 16.4462 7.55556 16.4462H16.4444C16.7391 16.4462 17.0217 16.3291 17.2301 16.1207C17.4385 15.9124 17.5556 15.6298 17.5556 15.3351C17.5556 15.0404 17.4385 14.7578 17.2301 14.5494C17.0217 14.341 16.7391 14.224 16.4444 14.224ZM16.4444 9.77951H9.77778C9.48309 9.77951 9.20048 9.89658 8.9921 10.105C8.78373 10.3133 8.66667 10.5959 8.66667 10.8906C8.66667 11.1853 8.78373 11.4679 8.9921 11.6763C9.20048 11.8847 9.48309 12.0017 9.77778 12.0017H16.4444C16.7391 12.0017 17.0217 11.8847 17.2301 11.6763C17.4385 11.4679 17.5556 11.1853 17.5556 10.8906C17.5556 10.5959 17.4385 10.3133 17.2301 10.105C17.0217 9.89658 16.7391 9.77951 16.4444 9.77951ZM20.8889 3.11285H17.5556V2.00174C17.5556 1.70705 17.4385 1.42444 17.2301 1.21606C17.0217 1.00769 16.7391 0.890625 16.4444 0.890625C16.1498 0.890625 15.8671 1.00769 15.6588 1.21606C15.4504 1.42444 15.3333 1.70705 15.3333 2.00174V3.11285H13.1111V2.00174C13.1111 1.70705 12.994 1.42444 12.7857 1.21606C12.5773 1.00769 12.2947 0.890625 12 0.890625C11.7053 0.890625 11.4227 1.00769 11.2143 1.21606C11.006 1.42444 10.8889 1.70705 10.8889 2.00174V3.11285H8.66667V2.00174C8.66667 1.70705 8.5496 1.42444 8.34123 1.21606C8.13286 1.00769 7.85024 0.890625 7.55556 0.890625C7.26087 0.890625 6.97826 1.00769 6.76988 1.21606C6.56151 1.42444 6.44444 1.70705 6.44444 2.00174V3.11285H3.11111C2.81643 3.11285 2.53381 3.22991 2.32544 3.43828C2.11706 3.64666 2 3.92927 2 4.22396V19.7795C2 20.6636 2.35119 21.5114 2.97631 22.1365C3.60143 22.7617 4.44928 23.1128 5.33333 23.1128H18.6667C19.5507 23.1128 20.3986 22.7617 21.0237 22.1365C21.6488 21.5114 22 20.6636 22 19.7795V4.22396C22 3.92927 21.8829 3.64666 21.6746 3.43828C21.4662 3.22991 21.1836 3.11285 20.8889 3.11285V3.11285ZM19.7778 19.7795C19.7778 20.0742 19.6607 20.3568 19.4523 20.5652C19.244 20.7736 18.9614 20.8906 18.6667 20.8906H5.33333C5.03865 20.8906 4.75603 20.7736 4.54766 20.5652C4.33929 20.3568 4.22222 20.0742 4.22222 19.7795V5.33507H6.44444V6.44618C6.44444 6.74087 6.56151 7.02348 6.76988 7.23185C6.97826 7.44023 7.26087 7.55729 7.55556 7.55729C7.85024 7.55729 8.13286 7.44023 8.34123 7.23185C8.5496 7.02348 8.66667 6.74087 8.66667 6.44618V5.33507H10.8889V6.44618C10.8889 6.74087 11.006 7.02348 11.2143 7.23185C11.4227 7.44023 11.7053 7.55729 12 7.55729C12.2947 7.55729 12.5773 7.44023 12.7857 7.23185C12.994 7.02348 13.1111 6.74087 13.1111 6.44618V5.33507H15.3333V6.44618C15.3333 6.74087 15.4504 7.02348 15.6588 7.23185C15.8671 7.44023 16.1498 7.55729 16.4444 7.55729C16.7391 7.55729 17.0217 7.44023 17.2301 7.23185C17.4385 7.02348 17.5556 6.74087 17.5556 6.44618V5.33507H19.7778V19.7795Z" fill="#FF3939"/>
<g clip-path="url(#clip0_9722_86515)">
<rect x="12" y="12" width="12" height="12" rx="6" fill="#27AE60"/>
<g clip-path="url(#clip1_9722_86515)">
<path d="M15.2004 18.0063L17.6004 20.0062L20.8004 16.0062M18.0004 23.6063C17.265 23.6063 16.5368 23.4614 15.8574 23.18C15.1779 22.8985 14.5606 22.4861 14.0406 21.966C13.5206 21.446 13.1081 20.8287 12.8267 20.1493C12.5452 19.4699 12.4004 18.7417 12.4004 18.0063C12.4004 17.2708 12.5452 16.5426 12.8267 15.8632C13.1081 15.1838 13.5206 14.5665 14.0406 14.0465C14.5606 13.5264 15.1779 13.114 15.8574 12.8325C16.5368 12.5511 17.265 12.4062 18.0004 12.4062C19.4856 12.4063 20.91 12.9962 21.9602 14.0465C23.0104 15.0967 23.6004 16.521 23.6004 18.0063C23.6004 19.4915 23.0104 20.9158 21.9602 21.966C20.91 23.0163 19.4856 23.6063 18.0004 23.6063Z" stroke="#27AE60" stroke-width="1.2"/>
</g>
<path d="M15.2012 18L17.6012 20L20.8012 16" stroke="white" stroke-width="1.2"/>
</g>
<defs>
<clipPath id="clip0_9722_86515">
<rect x="12" y="12" width="12" height="12" rx="6" fill="white"/>
</clipPath>
<clipPath id="clip1_9722_86515">
<rect width="12" height="12" fill="white" transform="translate(12 12)"/>
</clipPath>
</defs>
</svg>
