<svg width="24" height="24" viewBox="0 0 24 24" fill="none" xmlns="http://www.w3.org/2000/svg">
<path d="M16 14H8C7.73478 14 7.48043 14.1054 7.29289 14.2929C7.10536 14.4804 7 14.7348 7 15C7 15.2652 7.10536 15.5196 7.29289 15.7071C7.48043 15.8946 7.73478 16 8 16H16C16.2652 16 16.5196 15.8946 16.7071 15.7071C16.8946 15.5196 17 15.2652 17 15C17 14.7348 16.8946 14.4804 16.7071 14.2929C16.5196 14.1054 16.2652 14 16 14ZM16 10H10C9.73478 10 9.48043 10.1054 9.29289 10.2929C9.10536 10.4804 9 10.7348 9 11C9 11.2652 9.10536 11.5196 9.29289 11.7071C9.48043 11.8946 9.73478 12 10 12H16C16.2652 12 16.5196 11.8946 16.7071 11.7071C16.8946 11.5196 17 11.2652 17 11C17 10.7348 16.8946 10.4804 16.7071 10.2929C16.5196 10.1054 16.2652 10 16 10ZM20 4H17V3C17 2.73478 16.8946 2.48043 16.7071 2.29289C16.5196 2.10536 16.2652 2 16 2C15.7348 2 15.4804 2.10536 15.2929 2.29289C15.1054 2.48043 15 2.73478 15 3V4H13V3C13 2.73478 12.8946 2.48043 12.7071 2.29289C12.5196 2.10536 12.2652 2 12 2C11.7348 2 11.4804 2.10536 11.2929 2.29289C11.1054 2.48043 11 2.73478 11 3V4H9V3C9 2.73478 8.89464 2.48043 8.70711 2.29289C8.51957 2.10536 8.26522 2 8 2C7.73478 2 7.48043 2.10536 7.29289 2.29289C7.10536 2.48043 7 2.73478 7 3V4H4C3.73478 4 3.48043 4.10536 3.29289 4.29289C3.10536 4.48043 3 4.73478 3 5V19C3 19.7956 3.31607 20.5587 3.87868 21.1213C4.44129 21.6839 5.20435 22 6 22H18C18.7956 22 19.5587 21.6839 20.1213 21.1213C20.6839 20.5587 21 19.7956 21 19V5C21 4.73478 20.8946 4.48043 20.7071 4.29289C20.5196 4.10536 20.2652 4 20 4V4ZM19 19C19 19.2652 18.8946 19.5196 18.7071 19.7071C18.5196 19.8946 18.2652 20 18 20H6C5.73478 20 5.48043 19.8946 5.29289 19.7071C5.10536 19.5196 5 19.2652 5 19V6H7V7C7 7.26522 7.10536 7.51957 7.29289 7.70711C7.48043 7.89464 7.73478 8 8 8C8.26522 8 8.51957 7.89464 8.70711 7.70711C8.89464 7.51957 9 7.26522 9 7V6H11V7C11 7.26522 11.1054 7.51957 11.2929 7.70711C11.4804 7.89464 11.7348 8 12 8C12.2652 8 12.5196 7.89464 12.7071 7.70711C12.8946 7.51957 13 7.26522 13 7V6H15V7C15 7.26522 15.1054 7.51957 15.2929 7.70711C15.4804 7.89464 15.7348 8 16 8C16.2652 8 16.5196 7.89464 16.7071 7.70711C16.8946 7.51957 17 7.26522 17 7V6H19V19Z" fill="#393A5C"/>
<g clip-path="url(#clip0_10652_106122)">
<rect x="13" y="13" width="10" height="10" rx="5" fill="white"/>
<g clip-path="url(#clip1_10652_106122)">
<path d="M15.6673 18.0026L17.6673 19.6693L20.334 16.3359M18.0007 22.6693C17.3878 22.6693 16.781 22.5486 16.2148 22.314C15.6486 22.0795 15.1342 21.7358 14.7008 21.3024C14.2675 20.8691 13.9237 20.3546 13.6892 19.7885C13.4547 19.2223 13.334 18.6154 13.334 18.0026C13.334 17.3898 13.4547 16.7829 13.6892 16.2167C13.9237 15.6506 14.2675 15.1361 14.7008 14.7028C15.1342 14.2694 15.6486 13.9257 16.2148 13.6912C16.781 13.4566 17.3878 13.3359 18.0007 13.3359C19.2383 13.3359 20.4253 13.8276 21.3005 14.7028C22.1757 15.5779 22.6673 16.7649 22.6673 18.0026C22.6673 19.2403 22.1757 20.4273 21.3005 21.3024C20.4253 22.1776 19.2383 22.6693 18.0007 22.6693Z" stroke="#27AE60"/>
</g>
</g>
<defs>
<clipPath id="clip0_10652_106122">
<rect x="13" y="13" width="10" height="10" rx="5" fill="white"/>
</clipPath>
<clipPath id="clip1_10652_106122">
<rect width="10" height="10" fill="white" transform="translate(13 13)"/>
</clipPath>
</defs>
</svg>
