<?xml version="1.0" standalone="no"?>
<!DOCTYPE svg PUBLIC "-//W3C//DTD SVG 20010904//EN"
 "http://www.w3.org/TR/2001/REC-SVG-20010904/DTD/svg10.dtd">
<svg version="1.0" xmlns="http://www.w3.org/2000/svg"
 width="40px" height="40px" 
 >

<g transform="translate(0.000000,512.000000) scale(0.100000,-0.100000)"
fill="#ffff" stroke="none">
<path d="M2430 5104 c-174 -37 -332 -160 -410 -316 -37 -76 -69 -189 -70 -245
0 -22 -3 -23 -90 -23 -156 0 -234 -26 -311 -103 -70 -70 -93 -125 -97 -239
l-4 -98 -202 0 c-114 0 -218 -5 -241 -11 -62 -17 -130 -93 -145 -160 -8 -40
-10 -536 -8 -1899 l3 -1845 22 -40 c27 -51 57 -79 113 -104 45 -20 56 -21
1570 -21 1514 0 1525 1 1570 21 56 25 86 53 113 104 l22 40 3 1845 c2 1363 0
1859 -8 1899 -15 67 -83 143 -145 160 -23 6 -127 11 -241 11 l-202 0 -4 98
c-5 113 -30 175 -100 243 -76 74 -155 99 -308 99 -87 0 -90 1 -90 23 -1 56
-33 169 -70 245 -120 241 -400 374 -670 316z m233 -324 c90 -34 165 -125 182
-222 l7 -38 -292 0 -292 0 7 38 c32 179 218 285 388 222z m-1213 -1095 l0
-125 1110 0 1110 0 0 125 0 125 160 0 160 0 0 -1770 0 -1770 -1430 0 -1430 0
0 1770 0 1770 160 0 160 0 0 -125z"/>
<path d="M2230 3294 c-14 -9 -109 -100 -211 -202 l-187 -184 -86 66 c-72 55
-94 66 -125 66 -35 0 -45 -7 -105 -70 -78 -83 -89 -129 -43 -178 29 -31 275
-225 306 -242 14 -7 46 -11 81 -8 74 5 79 9 366 300 195 197 232 239 238 270
9 51 -11 93 -72 151 -45 41 -57 47 -94 47 -24 0 -55 -7 -68 -16z"/>
<path d="M2781 3068 c-25 -13 -59 -40 -75 -61 -28 -35 -31 -45 -31 -112 0 -67
3 -77 31 -112 16 -21 50 -48 75 -61 44 -23 44 -23 465 -20 l421 3 40 28 c114
79 114 245 0 324 l-40 28 -421 3 c-421 3 -421 3 -465 -20z"/>
<path d="M2260 2393 c-16 -3 -101 -80 -226 -204 l-200 -199 -83 65 c-46 35
-92 67 -102 70 -36 12 -84 -14 -137 -75 -62 -70 -77 -105 -63 -143 10 -26 271
-241 329 -271 38 -20 92 -20 135 -2 18 8 147 130 288 272 265 267 281 288 264
346 -10 32 -50 83 -88 112 -35 26 -77 36 -117 29z"/>
<path d="M2826 2169 c-88 -21 -146 -84 -154 -168 -8 -92 30 -159 112 -197 51
-24 52 -24 441 -24 248 0 404 4 429 11 59 16 115 75 131 136 24 93 -13 180
-98 226 -41 22 -49 22 -432 24 -214 1 -407 -3 -429 -8z"/>
<path d="M2045 1310 c-110 -110 -204 -200 -209 -200 -5 0 -47 29 -94 65 -116
89 -134 89 -223 -4 -72 -75 -86 -109 -63 -156 20 -40 294 -254 349 -273 34
-11 51 -11 86 -2 38 10 77 45 296 263 139 138 260 266 269 285 26 55 12 97
-55 165 -55 54 -61 57 -106 57 l-49 0 -201 -200z"/>
<path d="M2785 1271 c-78 -35 -121 -113 -113 -203 6 -58 44 -111 104 -146 39
-22 39 -22 465 -20 l425 3 42 28 c123 81 111 266 -22 332 l-50 25 -405 0
c-372 0 -409 -2 -446 -19z"/>
</g>
</svg>
